<?xml version="1.0" encoding="UTF-8" standalone="no"?>
<!DOCTYPE svg PUBLIC "-//W3C//DTD SVG 1.1//EN" "http://www.w3.org/Graphics/SVG/1.1/DTD/svg11.dtd">
<svg width="100%" height="100%" viewBox="0 0 2953 2953" version="1.1" xmlns="http://www.w3.org/2000/svg" xmlns:xlink="http://www.w3.org/1999/xlink" xml:space="preserve" xmlns:serif="http://www.serif.com/" style="fill-rule:evenodd;clip-rule:evenodd;stroke-linejoin:round;stroke-miterlimit:2;">
    <g id="outline--backup-" serif:id="outline (backup)" transform="matrix(1.01771,0,0,1.03006,-26.1492,-78.1043)">
        <g id="main-section" serif:id="main section">
            <g id="Layer1" transform="matrix(1,0,0,1,0.788613,-27.3874)">
                <g transform="matrix(1,0,0,1,0,0.117251)">
                    <path d="M2611.08,931.102L1948.28,1394.54C1945.14,1328.67 1928.5,1266.32 1901.05,1210.2L2636.09,696.888L2611.08,931.102ZM2600.09,924.739L2621.86,720.868L1915.69,1214.01C1938.54,1263.22 1953.36,1316.91 1958.45,1373.38L2600.09,924.739Z"/>
                    <path d="M2602.41,1012.24L2576.49,1254.91L1886.43,1651.98C1919.36,1594.62 1940.59,1529.7 1946.87,1460.49L2602.41,1012.24ZM2588.21,1035.89L1957.91,1466.89C1952.3,1521.95 1937.43,1574.29 1914.9,1622.33L2565.57,1247.93L2588.21,1035.89Z"/>
                    <path d="M2539.61,1600.2L2315.99,1712.5L2020.29,1674.43L2566.85,1345.18L2539.61,1600.2ZM2528.73,1592.8L2552.85,1367.05L2054.47,1667.27L2313.93,1700.67L2528.73,1592.8Z"/>
                    <path d="M1595.93,1874.48C1628.46,1865.98 1659.62,1854.11 1689.03,1839.24L1680.72,2453.69L1591.18,2528.82L1595.93,1874.48ZM1607.34,1883.13L1602.83,2504.19L1669.33,2448.39L1677.32,1857.48C1654.86,1867.75 1631.48,1876.35 1607.34,1883.13Z"/>
                </g>
                <g transform="matrix(1,0,0,1,-0.0283671,0.28178)">
                    <path d="M2611.08,931.102L1948.28,1394.54C1945.14,1328.67 1928.5,1266.32 1901.05,1210.2L2636.09,696.888L2611.08,931.102ZM2600.09,924.739L2621.86,720.868L1915.69,1214.01C1938.54,1263.22 1953.36,1316.91 1958.45,1373.38L2600.09,924.739Z"/>
                    <path d="M2602.41,1012.24L2576.49,1254.91L1886.43,1651.98C1919.36,1594.62 1940.59,1529.7 1946.87,1460.49L2602.41,1012.24ZM2588.21,1035.89L1957.91,1466.89C1952.3,1521.95 1937.43,1574.29 1914.9,1622.33L2565.57,1247.93L2588.21,1035.89Z"/>
                    <path d="M2539.61,1600.2L2315.99,1712.5L2020.29,1674.43L2566.85,1345.18L2539.61,1600.2ZM2528.73,1592.8L2552.85,1367.05L2054.47,1667.27L2313.93,1700.67L2528.73,1592.8Z"/>
                    <path d="M1595.93,1874.48C1628.46,1865.98 1659.62,1854.11 1689.03,1839.24L1680.72,2453.69L1591.18,2528.82L1595.93,1874.48ZM1607.34,1883.13L1602.83,2504.19L1669.33,2448.39L1677.32,1857.48C1654.86,1867.75 1631.48,1876.35 1607.34,1883.13Z"/>
                </g>
                <g transform="matrix(1,0,0,1,-0.0283671,0.38201)">
                    <path d="M2611.08,931.102L1948.28,1394.54C1945.14,1328.67 1928.5,1266.32 1901.05,1210.2L2636.09,696.888L2611.08,931.102ZM2600.09,924.739L2621.86,720.868L1915.69,1214.01C1938.54,1263.22 1953.36,1316.91 1958.45,1373.38L2600.09,924.739Z"/>
                    <path d="M2602.41,1012.24L2576.49,1254.91L1886.43,1651.98C1919.36,1594.62 1940.59,1529.7 1946.87,1460.49L2602.41,1012.24ZM2588.21,1035.89L1957.91,1466.89C1952.3,1521.95 1937.43,1574.29 1914.9,1622.33L2565.57,1247.93L2588.21,1035.89Z"/>
                    <path d="M2539.61,1600.2L2315.99,1712.5L2020.29,1674.43L2566.85,1345.18L2539.61,1600.2ZM2528.73,1592.8L2552.85,1367.05L2054.47,1667.27L2313.93,1700.67L2528.73,1592.8Z"/>
                    <path d="M1595.93,1874.48C1628.46,1865.98 1659.62,1854.11 1689.03,1839.24L1680.72,2453.69L1591.18,2528.82L1595.93,1874.48ZM1607.34,1883.13L1602.83,2504.19L1669.33,2448.39L1677.32,1857.48C1654.86,1867.75 1631.48,1876.35 1607.34,1883.13Z"/>
                </g>
                <g transform="matrix(-1,0,0,1,2951.18,-0.741223)">
                    <path d="M2611.16,931.042L2636.18,696.828L1899.6,1211.21C1927.02,1267.36 1943.63,1329.74 1946.72,1395.63L2611.16,931.042ZM2600.17,924.679L1956.9,1374.46C1951.85,1317.97 1937.06,1264.26 1914.24,1215.03L2621.95,720.808L2600.17,924.679Z"/>
                    <path d="M2602.5,1012.18L1945.26,1461.6C1938.93,1530.77 1917.66,1595.64 1884.71,1652.97L2576.58,1254.86L2602.5,1012.18ZM2588.3,1035.84L2565.65,1247.88L1913.22,1623.3C1935.76,1575.3 1950.64,1523.01 1956.3,1467.99L2588.3,1035.84Z"/>
                    <path d="M2539.7,1600.16L2566.93,1345.13L2020.29,1674.43L2315.99,1712.5L2539.7,1600.16ZM2528.82,1592.76L2313.93,1700.67L2054.47,1667.27L2552.93,1366.99L2528.82,1592.76Z"/>
                    <path d="M1595.93,1874.81L1591.18,2529.56L1680.71,2454.44L1689.06,1839.17C1659.66,1854.17 1628.48,1866.18 1595.93,1874.81ZM1607.33,1883.43C1631.49,1876.56 1654.88,1867.85 1677.35,1857.48L1669.31,2449.14L1602.82,2504.93L1607.33,1883.43Z"/>
                </g>
                <g transform="matrix(0.95895,0,0,0.923292,-77.261,224.932)">
                    <path d="M1620.15,843.726C1858.07,843.726 2051.23,1044.35 2051.23,1291.46C2051.23,1538.57 1858.07,1739.19 1620.15,1739.19C1382.23,1739.19 1189.07,1538.57 1189.07,1291.46C1189.07,1044.35 1382.23,843.726 1620.15,843.726ZM1620.15,889.673C1833.65,889.673 2006.99,1069.71 2006.99,1291.46C2006.99,1513.21 1833.65,1693.24 1620.15,1693.24C1406.64,1693.24 1233.3,1513.21 1233.3,1291.46C1233.3,1069.71 1406.64,889.673 1620.15,889.673Z" style="fill:white;"/>
                    <path d="M1620.15,843.726C1858.07,843.726 2051.23,1044.35 2051.23,1291.46C2051.23,1538.57 1858.07,1739.19 1620.15,1739.19C1382.23,1739.19 1189.07,1538.57 1189.07,1291.46C1189.07,1044.35 1382.23,843.726 1620.15,843.726ZM1620.15,889.673C1406.64,889.673 1233.3,1069.71 1233.3,1291.46C1233.3,1513.21 1406.64,1693.24 1620.15,1693.24C1833.65,1693.24 2006.99,1513.21 2006.99,1291.46C2006.99,1069.71 1833.65,889.673 1620.15,889.673Z"/>
                </g>
                <g transform="matrix(1,0,0,1.03682,-1.93488,-69.4582)">
                    <path d="M1436.19,1887.86C1450.07,1889.05 1464.12,1889.65 1478.31,1889.65C1491.97,1889.65 1505.5,1889.09 1518.86,1887.99L1518.86,2566.11L1477.52,2599.56L1436.19,2566.11L1436.19,1887.86ZM1447.65,1899.65L1447.65,2561.05L1477.52,2585.23L1507.4,2561.05L1507.4,1899.75C1497.78,1900.3 1488.08,1900.58 1478.31,1900.58C1468.01,1900.58 1457.79,1900.27 1447.65,1899.65Z"/>
                </g>
            </g>
            <path d="M1207.74,1777.97C1162.61,1831.78 954.581,2080.96 954.581,2080.96L791.198,1943.57L1104.02,1679.59C1133.4,1717.37 1168.39,1750.59 1207.74,1777.97ZM1191.11,1780.06C1158.11,1755.82 1128.29,1727.51 1102.4,1695.85L808.867,1943.56L953.146,2064.88C988.519,2022.51 1140.6,1840.37 1191.11,1780.06ZM741.106,1901.45L569.821,1757.42L983.737,1697.86L741.106,1901.45ZM741.114,1886.58L945.898,1714.75L596.546,1765.02L741.114,1886.58ZM1208.42,1878.74L1208.42,2294.41L1003.92,2122.45L1208.42,1878.74ZM1196.95,1910.15L1019.97,2121.07L1196.95,2269.89L1196.95,1910.15Z"/>
            <g transform="matrix(-1,0,0,1,2952.76,0)">
                <path d="M1207.84,1779.13C1168.41,1751.94 1133.3,1718.91 1103.77,1681.29L791.198,1943.57L954.581,2080.96L1207.84,1779.13ZM1191.17,1781.26L953.168,2064.9L808.896,1943.58L1102.17,1697.5C1128.17,1729.01 1158.09,1757.18 1191.17,1781.26ZM741.106,1901.45L983.737,1697.86L569.821,1757.42L741.106,1901.45ZM741.114,1886.58L596.546,1765.02L945.898,1714.75L741.114,1886.58ZM1208.42,1878.74L1003.92,2122.45L1208.42,2294.41L1208.42,1878.74ZM1196.95,1910.15L1196.95,2269.89L1019.97,2121.07L1196.95,1910.15Z"/>
            </g>
        </g>
        <g id="Top-section" serif:id="Top section">
            <g id="Circles">
                <g transform="matrix(1.15582,-2.77556e-17,-2.77556e-17,1.32279,-135.419,-474.953)">
                    <ellipse cx="996.597" cy="929.026" rx="51.094" ry="44.644"/>
                    <path d="M996.597,884.382C1024.8,884.382 1047.69,904.386 1047.69,929.026C1047.69,953.666 1024.8,973.671 996.597,973.671C968.398,973.671 945.503,953.666 945.503,929.026C945.503,904.386 968.398,884.382 996.597,884.382ZM996.597,884.453C968.443,884.453 945.585,904.426 945.585,929.026C945.585,953.627 968.443,973.6 996.597,973.6C1024.75,973.6 1047.61,953.627 1047.61,929.026C1047.61,904.426 1024.75,884.453 996.597,884.453Z"/>
                </g>
                <g transform="matrix(1.15582,-2.77556e-17,-2.77556e-17,1.32279,784.394,-474.953)">
                    <ellipse cx="996.597" cy="929.026" rx="51.094" ry="44.644"/>
                    <path d="M996.597,884.382C1024.8,884.382 1047.69,904.386 1047.69,929.026C1047.69,953.666 1024.8,973.671 996.597,973.671C968.398,973.671 945.503,953.666 945.503,929.026C945.503,904.386 968.398,884.382 996.597,884.382ZM996.597,884.453C968.443,884.453 945.585,904.426 945.585,929.026C945.585,953.627 968.443,973.6 996.597,973.6C1024.75,973.6 1047.61,953.627 1047.61,929.026C1047.61,904.426 1024.75,884.453 996.597,884.453Z"/>
                </g>
                <g transform="matrix(1.15582,-2.77556e-17,-2.77556e-17,1.32279,784.394,-648.18)">
                    <ellipse cx="996.597" cy="929.026" rx="51.094" ry="44.644"/>
                    <path d="M996.597,884.382C1024.8,884.382 1047.69,904.386 1047.69,929.026C1047.69,953.666 1024.8,973.671 996.597,973.671C968.398,973.671 945.503,953.666 945.503,929.026C945.503,904.386 968.398,884.382 996.597,884.382ZM996.597,884.453C968.443,884.453 945.585,904.426 945.585,929.026C945.585,953.627 968.443,973.6 996.597,973.6C1024.75,973.6 1047.61,953.627 1047.61,929.026C1047.61,904.426 1024.75,884.453 996.597,884.453Z"/>
                </g>
                <g transform="matrix(1.15582,-2.77556e-17,-2.77556e-17,1.32279,-135.419,-648.18)">
                    <ellipse cx="996.597" cy="929.026" rx="51.094" ry="44.644"/>
                    <path d="M996.597,884.382C1024.8,884.382 1047.69,904.386 1047.69,929.026C1047.69,953.666 1024.8,973.671 996.597,973.671C968.398,973.671 945.503,953.666 945.503,929.026C945.503,904.386 968.398,884.382 996.597,884.382ZM996.597,884.453C968.443,884.453 945.585,904.426 945.585,929.026C945.585,953.627 968.443,973.6 996.597,973.6C1024.75,973.6 1047.61,953.627 1047.61,929.026C1047.61,904.426 1024.75,884.453 996.597,884.453Z"/>
                </g>
            </g>
            <g id="Diamonds">
                <g transform="matrix(1.19916,0,0,1.43621,-313.867,-372.379)">
                    <path d="M1491.49,687.486L1763.67,723.936L1491.49,760.386L1219.32,723.936L1491.49,687.486Z"/>
                    <path d="M1491.49,687.486L1763.67,723.936L1491.49,760.386L1219.32,723.936L1491.49,687.486ZM1491.49,687.552L1219.81,723.936L1491.49,760.32L1763.17,723.936L1491.49,687.552Z"/>
                </g>
                <g transform="matrix(1,0,0,1,34.3246,-41.5565)">
                    <path d="M1345.3,535.674L1376.49,708.9L1345.3,882.127L1314.1,708.9L1345.3,535.674Z"/>
                    <path d="M1345.3,535.674L1376.49,708.9L1345.3,882.127L1314.1,708.9L1345.3,535.674ZM1345.3,536.21L1314.19,708.9L1345.3,881.591L1376.4,708.9L1345.3,536.21Z"/>
                </g>
                <g transform="matrix(1,0,0,1,-46.2625,-72.0311)">
                    <path d="M1520.15,491.847L1564.09,739.375L1520.15,986.903L1476.21,739.375L1520.15,491.847Z"/>
                    <path d="M1520.15,491.847L1564.09,739.375L1520.15,986.903L1476.21,739.375L1520.15,491.847ZM1520.15,492.39L1476.3,739.375L1520.15,986.36L1564,739.375L1520.15,492.39Z"/>
                </g>
                <g transform="matrix(1,0,0,1,224.435,-41.5565)">
                    <path d="M1345.3,535.674L1376.49,708.9L1345.3,882.127L1314.1,708.9L1345.3,535.674Z"/>
                    <path d="M1345.3,535.674L1376.49,708.9L1345.3,882.127L1314.1,708.9L1345.3,535.674ZM1345.3,536.21L1314.19,708.9L1345.3,881.591L1376.4,708.9L1345.3,536.21Z"/>
                </g>
            </g>
        </g>
    </g>
</svg>
