<?xml version="1.0" encoding="UTF-8" standalone="no"?><!DOCTYPE svg PUBLIC "-//W3C//DTD SVG 1.1//EN" "http://www.w3.org/Graphics/SVG/1.1/DTD/svg11.dtd"><svg width="100%" height="100%" viewBox="0 0 512 512" version="1.1" xmlns="http://www.w3.org/2000/svg" xmlns:xlink="http://www.w3.org/1999/xlink" xml:space="preserve" xmlns:serif="http://www.serif.com/" style="fill-rule:evenodd;clip-rule:evenodd;stroke-linejoin:round;stroke-miterlimit:2;"><rect id="white_fill_name" x="0" y="-0" width="512" height="512" style="fill:none;"/><g id="_--White-Fill-Name" serif:id="- White Fill Name"><g><path id="W" d="M62,214.255c0,-0 50.675,25.821 84.684,35.891l63.016,-22.963c-24.071,0.086 -76.604,-4.829 -89.48,-12.929c12.454,-8.624 65.553,-12.939 89.466,-12.921l-62.965,-22.902c-34.053,10.041 -84.721,35.824 -84.721,35.824Z" style="fill:#fff;"/><path id="NW" d="M125.638,83.88c6.836,6.817 70.495,20.419 84.285,36.128c13.543,15.427 14.948,36.664 19.455,53.514c-25.264,-47.583 -54.666,-40.635 -69.396,-55.28c14.697,14.602 11.034,45.238 58.574,70.594c-16.763,-4.499 -41.231,-7.258 -56.822,-20.696c-15.79,-13.608 -29.301,-77.47 -36.096,-84.26Z" style="fill:#fff;"/><path id="Center" d="M226.02,214.255l29.982,-42.427l29.983,42.427l-29.983,42.427l-29.982,-42.427Z" style="fill:#fff;"/><path id="SW" d="M125.638,344.631c6.836,-6.817 70.495,-20.419 84.285,-36.129c13.543,-15.426 14.948,-36.663 19.455,-53.514c-25.264,47.584 -54.666,40.636 -69.396,55.281c14.697,-14.602 11.034,-45.238 58.574,-70.594c-16.763,4.498 -41.231,7.258 -56.822,20.695c-15.79,13.609 -29.301,77.471 -36.096,84.261Z" style="fill:#fff;"/><path id="S" d="M256,408.258c0,0 -25.777,-50.699 -35.847,-84.708l19.609,-53.875c-0.086,24.071 8.141,67.517 16.241,80.393c8.623,-12.454 16.258,-56.48 16.239,-80.393l19.609,53.875c-10.041,34.053 -35.851,84.708 -35.851,84.708Z" style="fill:#fff;"/><path id="SE" d="M386.361,344.631c-6.836,-6.817 -70.495,-20.419 -84.285,-36.129c-13.543,-15.426 -14.948,-36.663 -19.455,-53.514c25.264,47.584 54.666,40.636 69.395,55.281c-14.696,-14.602 -11.034,-45.238 -58.573,-70.594c16.763,4.498 41.231,7.258 56.822,20.695c15.79,13.609 29.301,77.471 36.096,84.261Z" style="fill:#fff;"/><path id="E" d="M450,214.255c0,-0 -50.675,25.821 -84.684,35.891l-63.016,-22.963c24.071,0.086 76.604,-4.829 89.48,-12.929c-12.454,-8.624 -65.553,-12.939 -89.466,-12.921l62.965,-22.902c34.053,10.041 84.721,35.824 84.721,35.824Z" style="fill:#fff;"/><path id="NE" d="M386.378,83.896c-6.817,6.836 -20.419,70.495 -36.128,84.285c-15.427,13.543 -39.938,16.159 -56.788,20.667c47.583,-25.264 43.913,-55.867 58.558,-70.597c-14.602,14.697 -44.045,7.744 -69.401,55.284c4.498,-16.764 6.061,-37.952 19.499,-53.543c13.608,-15.79 77.47,-29.301 84.26,-36.096Z" style="fill:#fff;"/><path id="N" d="M256,20.257c0,0 25.82,50.675 35.89,84.684l-19.648,53.918c0.087,-24.071 -8.144,-67.505 -16.244,-80.381c-8.624,12.454 -16.266,56.407 -16.247,80.32l-19.576,-53.819c10.041,-34.053 35.825,-84.722 35.825,-84.722Z" style="fill:#fff;"/></g><g id="name_white_symbol"><path d="M127.892,462.326l-6.981,0l-2.775,-7.22l-12.705,0l-2.623,7.22l-6.808,0l12.38,-31.784l6.786,0l12.726,31.784Zm-11.816,-12.575l-4.379,-11.794l-4.293,11.794l8.672,0Z" style="fill:#fff;fill-rule:nonzero;"/><path d="M151.299,462.326l0,-31.784l13.507,0c3.397,0 5.865,0.285 7.404,0.856c1.54,0.571 2.772,1.587 3.697,3.047c0.925,1.459 1.387,3.129 1.387,5.008c0,2.385 -0.701,4.354 -2.103,5.908c-1.402,1.554 -3.498,2.533 -6.287,2.938c1.387,0.809 2.533,1.698 3.436,2.666c0.904,0.969 2.121,2.689 3.653,5.16l3.881,6.201l-7.675,0l-4.639,-6.916c-1.648,-2.472 -2.775,-4.029 -3.383,-4.672c-0.607,-0.644 -1.25,-1.084 -1.929,-1.323c-0.679,-0.238 -1.756,-0.358 -3.231,-0.358l-1.3,0l-0,13.269l-6.418,0Zm6.418,-18.342l4.748,0c3.078,0 5.001,-0.13 5.767,-0.39c0.766,-0.26 1.366,-0.708 1.799,-1.344c0.434,-0.636 0.651,-1.431 0.651,-2.385c-0,-1.07 -0.286,-1.933 -0.857,-2.591c-0.571,-0.658 -1.376,-1.073 -2.417,-1.247c-0.52,-0.072 -2.081,-0.108 -4.683,-0.108l-5.008,-0l-0,8.065Z" style="fill:#fff;fill-rule:nonzero;"/><path d="M203.411,462.326l0,-31.784l6.418,0l-0,14.114l12.965,-14.114l8.629,0l-11.968,12.38l12.618,19.404l-8.304,0l-8.737,-14.916l-5.203,5.311l-0,9.605l-6.418,0Z" style="fill:#fff;fill-rule:nonzero;"/><path d="M284.033,462.326l-6.981,0l-2.775,-7.22l-12.705,0l-2.623,7.22l-6.808,0l12.38,-31.784l6.786,0l12.726,31.784Zm-11.816,-12.575l-4.379,-11.794l-4.293,11.794l8.672,0Z" style="fill:#fff;fill-rule:nonzero;"/><path d="M307.483,462.326l0,-31.784l6.244,0l13.009,21.226l-0,-21.226l5.962,0l0,31.784l-6.439,0l-12.814,-20.727l0,20.727l-5.962,0Z" style="fill:#fff;fill-rule:nonzero;"/><rect x="359.27" y="430.542" width="6.418" height="31.784" style="fill:#fff;fill-rule:nonzero;"/><path d="M390.156,451.984l6.245,-0.607c0.375,2.096 1.138,3.635 2.287,4.618c1.149,0.983 2.699,1.475 4.65,1.475c2.067,-0 3.625,-0.438 4.673,-1.312c1.048,-0.875 1.571,-1.897 1.571,-3.068c0,-0.752 -0.22,-1.391 -0.661,-1.919c-0.441,-0.527 -1.21,-0.986 -2.309,-1.376c-0.751,-0.261 -2.464,-0.723 -5.138,-1.388c-3.44,-0.853 -5.854,-1.901 -7.242,-3.144c-1.951,-1.749 -2.926,-3.881 -2.926,-6.396c-0,-1.618 0.458,-3.132 1.376,-4.542c0.918,-1.409 2.241,-2.482 3.968,-3.219c1.727,-0.737 3.812,-1.106 6.255,-1.106c3.989,-0 6.992,0.874 9.008,2.623c2.016,1.749 3.075,4.084 3.176,7.003l-6.417,0.282c-0.275,-1.633 -0.864,-2.808 -1.767,-3.523c-0.903,-0.715 -2.259,-1.073 -4.065,-1.073c-1.865,-0 -3.325,0.383 -4.38,1.149c-0.679,0.491 -1.019,1.149 -1.019,1.973c0,0.751 0.318,1.395 0.954,1.929c0.81,0.68 2.775,1.388 5.897,2.125c3.122,0.737 5.431,1.5 6.927,2.287c1.496,0.788 2.667,1.865 3.513,3.231c0.845,1.366 1.268,3.053 1.268,5.062c0,1.822 -0.506,3.527 -1.518,5.117c-1.011,1.59 -2.442,2.772 -4.292,3.545c-1.851,0.773 -4.156,1.16 -6.917,1.16c-4.018,-0 -7.104,-0.929 -9.257,-2.786c-2.154,-1.858 -3.44,-4.564 -3.86,-8.12Z" style="fill:#fff;fill-rule:nonzero;"/><path d="M158.024,482.618l3.111,0.986c-0.477,1.735 -1.27,3.023 -2.38,3.865c-1.109,0.842 -2.517,1.263 -4.222,1.263c-2.11,-0 -3.845,-0.721 -5.203,-2.163c-1.359,-1.442 -2.038,-3.413 -2.038,-5.913c-0,-2.645 0.682,-4.7 2.048,-6.163c1.366,-1.464 3.162,-2.195 5.388,-2.195c1.944,-0 3.523,0.574 4.737,1.723c0.723,0.68 1.265,1.655 1.626,2.927l-3.176,0.759c-0.188,-0.824 -0.58,-1.474 -1.176,-1.951c-0.596,-0.477 -1.321,-0.716 -2.174,-0.716c-1.178,0 -2.133,0.423 -2.867,1.269c-0.733,0.845 -1.1,2.215 -1.1,4.108c-0,2.009 0.361,3.44 1.084,4.293c0.723,0.853 1.662,1.279 2.818,1.279c0.853,0 1.587,-0.271 2.201,-0.813c0.614,-0.542 1.055,-1.395 1.323,-2.558Z" style="fill:#fff;fill-rule:nonzero;"/><path d="M168.788,480.612c0,-1.619 0.242,-2.977 0.726,-4.076c0.362,-0.809 0.855,-1.535 1.48,-2.179c0.625,-0.643 1.31,-1.12 2.054,-1.431c0.99,-0.419 2.132,-0.628 3.426,-0.628c2.341,-0 4.215,0.726 5.621,2.179c1.405,1.452 2.108,3.472 2.108,6.059c0,2.566 -0.697,4.573 -2.092,6.022c-1.395,1.449 -3.259,2.174 -5.594,2.174c-2.363,-0 -4.242,-0.721 -5.637,-2.163c-1.395,-1.442 -2.092,-3.427 -2.092,-5.957Zm3.306,-0.108c0,1.799 0.416,3.164 1.247,4.092c0.831,0.929 1.886,1.393 3.165,1.393c1.28,0 2.329,-0.461 3.15,-1.382c0.82,-0.921 1.23,-2.304 1.23,-4.146c-0,-1.822 -0.399,-3.18 -1.198,-4.076c-0.799,-0.897 -1.859,-1.345 -3.182,-1.345c-1.322,0 -2.388,0.454 -3.198,1.361c-0.809,0.907 -1.214,2.275 -1.214,4.103Z" style="fill:#fff;fill-rule:nonzero;"/><path d="M192.268,488.461l0,-15.892l6.754,-0c1.698,-0 2.932,0.142 3.702,0.428c0.77,0.285 1.386,0.793 1.848,1.523c0.463,0.73 0.694,1.565 0.694,2.504c-0,1.193 -0.351,2.177 -1.052,2.954c-0.701,0.777 -1.748,1.267 -3.143,1.469c0.694,0.405 1.266,0.849 1.718,1.333c0.452,0.485 1.061,1.345 1.827,2.58l1.94,3.101l-3.838,-0l-2.319,-3.458c-0.824,-1.236 -1.388,-2.015 -1.691,-2.336c-0.304,-0.322 -0.626,-0.542 -0.965,-0.662c-0.34,-0.119 -0.878,-0.179 -1.615,-0.179l-0.651,0l0,6.635l-3.209,-0Zm3.209,-9.171l2.374,-0c1.539,-0 2.501,-0.065 2.884,-0.195c0.383,-0.13 0.683,-0.354 0.899,-0.672c0.217,-0.318 0.326,-0.716 0.326,-1.193c-0,-0.535 -0.143,-0.966 -0.429,-1.295c-0.285,-0.329 -0.688,-0.537 -1.208,-0.624c-0.26,-0.036 -1.041,-0.054 -2.342,-0.054l-2.504,0l0,4.033Z" style="fill:#fff;fill-rule:nonzero;"/><path d="M213.841,488.461l-0,-15.892l5.149,-0c1.951,-0 3.223,0.079 3.816,0.238c0.91,0.239 1.673,0.757 2.287,1.556c0.614,0.798 0.922,1.83 0.922,3.095c-0,0.975 -0.178,1.796 -0.532,2.461c-0.354,0.664 -0.804,1.187 -1.349,1.566c-0.546,0.379 -1.101,0.631 -1.664,0.753c-0.766,0.152 -1.876,0.228 -3.328,0.228l-2.092,0l-0,5.995l-3.209,-0Zm3.209,-13.204l-0,4.51l1.756,-0c1.264,-0 2.11,-0.083 2.536,-0.25c0.427,-0.166 0.761,-0.426 1.003,-0.78c0.242,-0.354 0.363,-0.766 0.363,-1.236c0,-0.578 -0.17,-1.055 -0.509,-1.431c-0.34,-0.376 -0.77,-0.61 -1.29,-0.704c-0.383,-0.073 -1.153,-0.109 -2.309,-0.109l-1.55,0Z" style="fill:#fff;fill-rule:nonzero;"/><path d="M233.549,480.612c-0,-1.619 0.242,-2.977 0.726,-4.076c0.361,-0.809 0.854,-1.535 1.48,-2.179c0.625,-0.643 1.31,-1.12 2.054,-1.431c0.99,-0.419 2.132,-0.628 3.425,-0.628c2.342,-0 4.216,0.726 5.621,2.179c1.406,1.452 2.109,3.472 2.109,6.059c-0,2.566 -0.698,4.573 -2.093,6.022c-1.394,1.449 -3.259,2.174 -5.593,2.174c-2.363,-0 -4.242,-0.721 -5.637,-2.163c-1.395,-1.442 -2.092,-3.427 -2.092,-5.957Zm3.306,-0.108c-0,1.799 0.415,3.164 1.247,4.092c0.831,0.929 1.886,1.393 3.165,1.393c1.279,0 2.329,-0.461 3.149,-1.382c0.82,-0.921 1.23,-2.304 1.23,-4.146c0,-1.822 -0.399,-3.18 -1.197,-4.076c-0.799,-0.897 -1.86,-1.345 -3.182,-1.345c-1.323,0 -2.389,0.454 -3.198,1.361c-0.809,0.907 -1.214,2.275 -1.214,4.103Z" style="fill:#fff;fill-rule:nonzero;"/><path d="M257.029,488.461l-0,-15.892l6.753,-0c1.699,-0 2.933,0.142 3.702,0.428c0.77,0.285 1.386,0.793 1.849,1.523c0.462,0.73 0.694,1.565 0.694,2.504c-0,1.193 -0.351,2.177 -1.052,2.954c-0.701,0.777 -1.749,1.267 -3.144,1.469c0.694,0.405 1.267,0.849 1.719,1.333c0.451,0.485 1.06,1.345 1.826,2.58l1.941,3.101l-3.838,-0l-2.32,-3.458c-0.824,-1.236 -1.387,-2.015 -1.691,-2.336c-0.303,-0.322 -0.625,-0.542 -0.965,-0.662c-0.339,-0.119 -0.878,-0.179 -1.615,-0.179l-0.65,0l-0,6.635l-3.209,-0Zm3.209,-9.171l2.374,-0c1.539,-0 2.5,-0.065 2.883,-0.195c0.383,-0.13 0.683,-0.354 0.9,-0.672c0.217,-0.318 0.325,-0.716 0.325,-1.193c0,-0.535 -0.142,-0.966 -0.428,-1.295c-0.285,-0.329 -0.688,-0.537 -1.209,-0.624c-0.26,-0.036 -1.04,-0.054 -2.341,-0.054l-2.504,0l-0,4.033Z" style="fill:#fff;fill-rule:nonzero;"/><path d="M292.932,488.461l-3.49,-0l-1.388,-3.61l-6.352,-0l-1.312,3.61l-3.404,-0l6.19,-15.892l3.393,-0l6.363,15.892Zm-5.908,-6.288l-2.189,-5.897l-2.147,5.897l4.336,0Z" style="fill:#fff;fill-rule:nonzero;"/><path d="M302.114,488.461l0,-13.204l-4.715,0l-0,-2.688l12.629,-0l-0,2.688l-4.705,0l-0,13.204l-3.209,-0Z" style="fill:#fff;fill-rule:nonzero;"/><rect x="317.551" y="472.569" width="3.209" height="15.892" style="fill:#fff;fill-rule:nonzero;"/><path d="M328.716,480.612c0,-1.619 0.243,-2.977 0.727,-4.076c0.361,-0.809 0.854,-1.535 1.48,-2.179c0.625,-0.643 1.309,-1.12 2.054,-1.431c0.99,-0.419 2.132,-0.628 3.425,-0.628c2.342,-0 4.215,0.726 5.621,2.179c1.406,1.452 2.109,3.472 2.109,6.059c-0,2.566 -0.698,4.573 -2.093,6.022c-1.394,1.449 -3.259,2.174 -5.593,2.174c-2.364,-0 -4.243,-0.721 -5.637,-2.163c-1.395,-1.442 -2.093,-3.427 -2.093,-5.957Zm3.307,-0.108c-0,1.799 0.415,3.164 1.246,4.092c0.832,0.929 1.887,1.393 3.166,1.393c1.279,0 2.329,-0.461 3.149,-1.382c0.82,-0.921 1.23,-2.304 1.23,-4.146c0,-1.822 -0.399,-3.18 -1.197,-4.076c-0.799,-0.897 -1.86,-1.345 -3.182,-1.345c-1.323,0 -2.389,0.454 -3.198,1.361c-0.809,0.907 -1.214,2.275 -1.214,4.103Z" style="fill:#fff;fill-rule:nonzero;"/><path d="M352.218,488.461l0,-15.892l3.123,-0l6.504,10.612l-0,-10.612l2.981,-0l-0,15.892l-3.22,-0l-6.406,-10.364l-0,10.364l-2.982,-0Z" style="fill:#fff;fill-rule:nonzero;"/><rect x="400.015" y="478.517" width="15.985" height="3.996" style="fill:#fff;"/><rect x="96" y="478.517" width="15.985" height="3.996" style="fill:#fff;"/></g></g></svg>