<?xml version="1.0" encoding="UTF-8" standalone="no"?><!DOCTYPE svg PUBLIC "-//W3C//DTD SVG 1.1//EN" "http://www.w3.org/Graphics/SVG/1.1/DTD/svg11.dtd"><svg width="100%" height="100%" viewBox="0 0 512 512" version="1.1" xmlns="http://www.w3.org/2000/svg" xmlns:xlink="http://www.w3.org/1999/xlink" xml:space="preserve" xmlns:serif="http://www.serif.com/" style="fill-rule:evenodd;clip-rule:evenodd;stroke-linejoin:round;stroke-miterlimit:2;"><rect id="white_fill" x="0" y="-0" width="512" height="512" style="fill:none;"/><g id="_--White-Fill" serif:id="- White Fill"><path id="W" d="M49.07,255.997c0,-0 54.052,27.542 90.328,38.284l67.217,-24.495c-25.676,0.092 -81.71,-5.15 -95.444,-13.79c13.284,-9.199 69.922,-13.802 95.429,-13.782l-67.162,-24.429c-36.322,10.711 -90.368,38.212 -90.368,38.212Z" style="fill:#fff;"/><path id="NW" d="M116.95,116.933c7.291,7.271 75.193,21.78 89.902,38.536c14.445,16.455 15.944,39.107 20.752,57.081c-26.948,-50.756 -58.31,-43.344 -74.021,-58.965c15.676,15.575 11.769,48.253 62.478,75.299c-17.881,-4.799 -43.979,-7.742 -60.61,-22.075c-16.842,-14.516 -31.254,-82.634 -38.501,-89.876Z" style="fill:#fff;"/><path id="Center" d="M224.021,255.997l31.981,-45.255l31.981,45.255l-31.981,45.255l-31.981,-45.255Z" style="fill:#fff;"/><path id="SW" d="M116.95,395.062c7.291,-7.271 75.193,-21.78 89.902,-38.536c14.445,-16.455 15.944,-39.107 20.752,-57.081c-26.948,50.755 -58.31,43.344 -74.021,58.965c15.676,-15.575 11.769,-48.253 62.478,-75.299c-17.881,4.798 -43.979,7.742 -60.61,22.075c-16.842,14.515 -31.254,82.633 -38.501,89.876Z" style="fill:#fff;"/><path id="S" d="M256,462.93c-0,0 -27.495,-54.078 -38.236,-90.354l20.916,-57.466c-0.092,25.675 8.683,72.017 17.323,85.751c9.198,-13.284 17.342,-60.244 17.322,-85.751l20.916,57.466c-10.711,36.323 -38.241,90.354 -38.241,90.354Z" style="fill:#fff;"/><path id="SE" d="M395.049,395.062c-7.291,-7.271 -75.193,-21.78 -89.903,-38.536c-14.444,-16.455 -15.943,-39.107 -20.751,-57.081c26.948,50.755 58.31,43.344 74.021,58.965c-15.676,-15.575 -11.77,-48.253 -62.478,-75.299c17.881,4.798 43.979,7.742 60.61,22.075c16.842,14.515 31.253,82.633 38.501,89.876Z" style="fill:#fff;"/><path id="E" d="M462.93,255.997c-0,-0 -54.052,27.542 -90.328,38.284l-67.217,-24.495c25.676,0.092 81.71,-5.15 95.444,-13.79c-13.284,-9.199 -69.922,-13.802 -95.429,-13.782l67.162,-24.429c36.322,10.711 90.368,38.212 90.368,38.212Z" style="fill:#fff;"/><path id="NE" d="M395.068,116.95c-7.272,7.291 -21.781,75.193 -38.537,89.903c-16.454,14.444 -42.599,17.236 -60.573,22.043c50.756,-26.947 46.841,-59.59 62.462,-75.301c-15.576,15.676 -46.981,8.259 -74.027,58.968c4.798,-17.881 6.465,-40.481 20.798,-57.112c14.516,-16.842 82.634,-31.253 89.877,-38.501Z" style="fill:#fff;"/><path id="N" d="M256,49.07c-0,-0 27.541,54.052 38.282,90.328l-20.957,57.511c0.092,-25.675 -8.687,-72.004 -17.327,-85.738c-9.199,13.283 -17.35,60.166 -17.33,85.673l-20.881,-57.406c10.711,-36.323 38.213,-90.368 38.213,-90.368Z" style="fill:#fff;"/></g></svg>