<?xml version="1.0" encoding="UTF-8" standalone="no"?><!DOCTYPE svg PUBLIC "-//W3C//DTD SVG 1.1//EN" "http://www.w3.org/Graphics/SVG/1.1/DTD/svg11.dtd"><svg width="100%" height="100%" viewBox="0 0 512 94" version="1.1" xmlns="http://www.w3.org/2000/svg" xmlns:xlink="http://www.w3.org/1999/xlink" xml:space="preserve" xmlns:serif="http://www.serif.com/" style="fill-rule:evenodd;clip-rule:evenodd;stroke-linejoin:round;stroke-miterlimit:2;"><rect id="name_white" x="0" y="0" width="512" height="93.993" style="fill:none;"/><clipPath id="_clip1"><rect x="0" y="0" width="512" height="93.993"/></clipPath><g clip-path="url(#_clip1)"><g id="Background"></g><g id="name_white_symbol"><path d="M51.028,51.722l-11.17,-0l-4.44,-11.552l-20.328,0l-4.198,11.552l-10.892,-0l19.808,-50.855l10.857,0l20.363,50.855Zm-18.906,-20.12l-7.007,-18.871l-6.868,18.871l13.875,-0Z" style="fill:#fff;fill-rule:nonzero;"/><path d="M88.478,51.722l0,-50.855l21.612,0c5.435,0 9.383,0.457 11.846,1.37c2.463,0.914 4.435,2.539 5.915,4.874c1.48,2.336 2.22,5.007 2.22,8.014c-0,3.815 -1.122,6.966 -3.365,9.452c-2.243,2.486 -5.596,4.053 -10.06,4.701c2.22,1.295 4.053,2.717 5.498,4.267c1.446,1.549 3.394,4.301 5.846,8.256l6.209,9.921l-12.28,-0l-7.424,-11.066c-2.636,-3.955 -4.44,-6.447 -5.411,-7.476c-0.971,-1.029 -2,-1.734 -3.087,-2.116c-1.087,-0.381 -2.81,-0.572 -5.169,-0.572l-2.081,-0l-0,21.23l-10.269,-0Zm10.269,-29.347l7.596,-0c4.926,-0 8.002,-0.209 9.228,-0.625c1.226,-0.416 2.185,-1.133 2.879,-2.151c0.694,-1.017 1.041,-2.289 1.041,-3.815c-0,-1.712 -0.457,-3.094 -1.371,-4.146c-0.913,-1.052 -2.202,-1.717 -3.867,-1.994c-0.833,-0.116 -3.331,-0.174 -7.493,-0.174l-8.013,0l-0,12.905Z" style="fill:#fff;fill-rule:nonzero;"/><path d="M171.858,51.722l-0,-50.855l10.268,0l-0,22.583l20.744,-22.583l13.806,0l-19.148,19.808l20.189,31.047l-13.286,-0l-13.98,-23.867l-8.325,8.499l-0,15.368l-10.268,-0Z" style="fill:#fff;fill-rule:nonzero;"/><path d="M300.853,51.722l-11.17,-0l-4.44,-11.552l-20.328,0l-4.197,11.552l-10.893,-0l19.808,-50.855l10.858,0l20.362,50.855Zm-18.905,-20.12l-7.008,-18.871l-6.868,18.871l13.876,-0Z" style="fill:#fff;fill-rule:nonzero;"/><path d="M338.373,51.722l0,-50.855l9.991,0l20.813,33.961l0,-33.961l9.54,0l-0,50.855l-10.303,-0l-20.501,-33.163l-0,33.163l-9.54,-0Z" style="fill:#fff;fill-rule:nonzero;"/><rect x="421.232" y="0.867" width="10.268" height="50.854" style="fill:#fff;fill-rule:nonzero;"/><path d="M470.65,35.175l9.991,-0.971c0.601,3.353 1.821,5.816 3.66,7.388c1.838,1.573 4.318,2.359 7.44,2.359c3.308,0 5.799,-0.699 7.476,-2.098c1.677,-1.4 2.515,-3.036 2.515,-4.909c-0,-1.202 -0.353,-2.226 -1.058,-3.07c-0.705,-0.844 -1.937,-1.578 -3.694,-2.203c-1.203,-0.416 -3.943,-1.156 -8.222,-2.22c-5.504,-1.364 -9.366,-3.041 -11.586,-5.03c-3.122,-2.798 -4.683,-6.209 -4.683,-10.233c-0,-2.59 0.734,-5.013 2.203,-7.267c1.468,-2.255 3.584,-3.972 6.348,-5.152c2.763,-1.179 6.099,-1.769 10.008,-1.769c6.382,-0 11.187,1.399 14.413,4.197c3.226,2.799 4.92,6.534 5.082,11.205l-10.268,0.451c-0.439,-2.613 -1.382,-4.492 -2.827,-5.637c-1.446,-1.145 -3.614,-1.717 -6.504,-1.717c-2.984,-0 -5.319,0.613 -7.008,1.838c-1.087,0.787 -1.63,1.839 -1.63,3.157c-0,1.203 0.509,2.232 1.526,3.087c1.295,1.087 4.441,2.221 9.436,3.4c4.995,1.179 8.689,2.399 11.083,3.66c2.394,1.26 4.267,2.983 5.62,5.168c1.353,2.186 2.029,4.886 2.029,8.1c-0,2.914 -0.809,5.643 -2.428,8.187c-1.619,2.544 -3.909,4.435 -6.869,5.672c-2.96,1.237 -6.649,1.856 -11.066,1.856c-6.429,-0 -11.366,-1.486 -14.812,-4.458c-3.446,-2.972 -5.504,-7.302 -6.175,-12.991Z" style="fill:#fff;fill-rule:nonzero;"/><path d="M99.238,84.188l4.978,1.579c-0.764,2.775 -2.033,4.836 -3.808,6.183c-1.775,1.347 -4.026,2.021 -6.755,2.021c-3.377,-0 -6.152,-1.154 -8.326,-3.46c-2.174,-2.307 -3.261,-5.461 -3.261,-9.462c0,-4.232 1.093,-7.519 3.279,-9.86c2.185,-2.342 5.058,-3.513 8.62,-3.513c3.11,0 5.637,0.92 7.579,2.758c1.157,1.087 2.024,2.648 2.602,4.683l-5.082,1.214c-0.3,-1.318 -0.928,-2.359 -1.882,-3.122c-0.954,-0.763 -2.113,-1.144 -3.477,-1.144c-1.885,-0 -3.414,0.676 -4.588,2.029c-1.174,1.353 -1.76,3.544 -1.76,6.574c-0,3.214 0.578,5.504 1.734,6.868c1.156,1.364 2.66,2.047 4.51,2.047c1.364,-0 2.538,-0.434 3.521,-1.301c0.982,-0.867 1.688,-2.232 2.116,-4.094Z" style="fill:#fff;fill-rule:nonzero;"/><path d="M116.461,80.98c-0,-2.59 0.387,-4.764 1.162,-6.522c0.578,-1.295 1.367,-2.457 2.368,-3.486c1,-1.029 2.095,-1.792 3.286,-2.29c1.584,-0.67 3.411,-1.006 5.481,-1.006c3.747,0 6.744,1.162 8.993,3.487c2.249,2.324 3.374,5.556 3.374,9.695c-0,4.105 -1.116,7.317 -3.348,9.635c-2.231,2.319 -5.215,3.478 -8.949,3.478c-3.782,-0 -6.788,-1.154 -9.02,-3.46c-2.231,-2.307 -3.347,-5.484 -3.347,-9.531Zm5.29,-0.174c-0,2.879 0.665,5.062 1.995,6.548c1.329,1.486 3.018,2.229 5.064,2.229c2.047,-0 3.726,-0.737 5.039,-2.212c1.312,-1.474 1.968,-3.686 1.968,-6.634c0,-2.914 -0.638,-5.088 -1.916,-6.522c-1.278,-1.434 -2.975,-2.15 -5.091,-2.15c-2.116,-0 -3.821,0.725 -5.116,2.176c-1.295,1.451 -1.943,3.64 -1.943,6.565Z" style="fill:#fff;fill-rule:nonzero;"/><path d="M154.029,93.537l0,-25.427l10.806,-0c2.717,-0 4.692,0.228 5.923,0.685c1.232,0.457 2.217,1.269 2.958,2.437c0.74,1.168 1.11,2.503 1.11,4.007c-0,1.908 -0.561,3.483 -1.683,4.726c-1.121,1.243 -2.798,2.026 -5.03,2.35c1.11,0.648 2.027,1.359 2.749,2.134c0.723,0.774 1.697,2.15 2.923,4.128l3.105,4.96l-6.14,0l-3.712,-5.533c-1.318,-1.977 -2.22,-3.223 -2.706,-3.737c-0.486,-0.515 -1,-0.868 -1.544,-1.059c-0.543,-0.19 -1.405,-0.286 -2.584,-0.286l-1.041,0l0,10.615l-5.134,0Zm5.134,-14.673l3.799,-0c2.463,-0 4.001,-0.104 4.614,-0.313c0.612,-0.208 1.092,-0.566 1.439,-1.075c0.347,-0.509 0.52,-1.145 0.52,-1.908c0,-0.855 -0.228,-1.546 -0.685,-2.073c-0.456,-0.526 -1.101,-0.858 -1.934,-0.997c-0.416,-0.058 -1.665,-0.087 -3.746,-0.087l-4.007,0l0,6.453Z" style="fill:#fff;fill-rule:nonzero;"/><path d="M188.545,93.537l0,-25.427l8.239,-0c3.122,-0 5.157,0.127 6.105,0.382c1.457,0.381 2.677,1.211 3.66,2.489c0.983,1.277 1.474,2.928 1.474,4.951c0,1.561 -0.283,2.874 -0.85,3.938c-0.566,1.063 -1.286,1.899 -2.159,2.506c-0.873,0.607 -1.761,1.009 -2.662,1.205c-1.226,0.243 -3.001,0.365 -5.325,0.365l-3.348,-0l0,9.591l-5.134,0Zm5.134,-21.126l0,7.216l2.81,-0c2.024,-0 3.376,-0.133 4.059,-0.399c0.682,-0.266 1.217,-0.682 1.604,-1.249c0.387,-0.567 0.581,-1.226 0.581,-1.977c0,-0.925 -0.272,-1.688 -0.815,-2.29c-0.544,-0.601 -1.232,-0.977 -2.064,-1.127c-0.613,-0.116 -1.844,-0.174 -3.694,-0.174l-2.481,0Z" style="fill:#fff;fill-rule:nonzero;"/><path d="M220.078,80.98c-0,-2.59 0.387,-4.764 1.162,-6.522c0.578,-1.295 1.367,-2.457 2.367,-3.486c1.001,-1.029 2.096,-1.792 3.287,-2.29c1.584,-0.67 3.411,-1.006 5.481,-1.006c3.747,0 6.744,1.162 8.993,3.487c2.249,2.324 3.374,5.556 3.374,9.695c-0,4.105 -1.116,7.317 -3.348,9.635c-2.231,2.319 -5.215,3.478 -8.95,3.478c-3.781,-0 -6.787,-1.154 -9.019,-3.46c-2.231,-2.307 -3.347,-5.484 -3.347,-9.531Zm5.29,-0.174c-0,2.879 0.665,5.062 1.995,6.548c1.329,1.486 3.017,2.229 5.064,2.229c2.047,-0 3.726,-0.737 5.039,-2.212c1.312,-1.474 1.968,-3.686 1.968,-6.634c0,-2.914 -0.638,-5.088 -1.916,-6.522c-1.278,-1.434 -2.975,-2.15 -5.091,-2.15c-2.116,-0 -3.821,0.725 -5.117,2.176c-1.295,1.451 -1.942,3.64 -1.942,6.565Z" style="fill:#fff;fill-rule:nonzero;"/><path d="M257.646,93.537l0,-25.427l10.806,-0c2.717,-0 4.692,0.228 5.923,0.685c1.232,0.457 2.217,1.269 2.957,2.437c0.74,1.168 1.11,2.503 1.11,4.007c0,1.908 -0.56,3.483 -1.682,4.726c-1.122,1.243 -2.798,2.026 -5.03,2.35c1.11,0.648 2.027,1.359 2.749,2.134c0.723,0.774 1.697,2.15 2.923,4.128l3.105,4.96l-6.141,0l-3.711,-5.533c-1.318,-1.977 -2.22,-3.223 -2.706,-3.737c-0.486,-0.515 -1,-0.868 -1.544,-1.059c-0.543,-0.19 -1.405,-0.286 -2.584,-0.286l-1.041,0l0,10.615l-5.134,0Zm5.134,-14.673l3.799,-0c2.463,-0 4.001,-0.104 4.613,-0.313c0.613,-0.208 1.093,-0.566 1.44,-1.075c0.347,-0.509 0.52,-1.145 0.52,-1.908c0,-0.855 -0.228,-1.546 -0.685,-2.073c-0.456,-0.526 -1.101,-0.858 -1.934,-0.997c-0.416,-0.058 -1.665,-0.087 -3.746,-0.087l-4.007,0l0,6.453Z" style="fill:#fff;fill-rule:nonzero;"/><path d="M315.092,93.537l-5.585,0l-2.22,-5.776l-10.164,0l-2.099,5.776l-5.446,0l9.904,-25.427l5.428,-0l10.182,25.427Zm-9.453,-10.06l-3.504,-9.435l-3.434,9.435l6.938,0Z" style="fill:#fff;fill-rule:nonzero;"/><path d="M329.783,93.537l-0,-21.126l-7.545,0l-0,-4.301l20.206,-0l0,4.301l-7.527,0l-0,21.126l-5.134,0Z" style="fill:#fff;fill-rule:nonzero;"/><rect x="354.481" y="68.11" width="5.134" height="25.427" style="fill:#fff;fill-rule:nonzero;"/><path d="M372.346,80.98c0,-2.59 0.388,-4.764 1.162,-6.522c0.579,-1.295 1.368,-2.457 2.368,-3.486c1,-1.029 2.096,-1.792 3.287,-2.29c1.584,-0.67 3.411,-1.006 5.481,-1.006c3.746,0 6.744,1.162 8.993,3.487c2.249,2.324 3.373,5.556 3.373,9.695c0,4.105 -1.115,7.317 -3.347,9.635c-2.232,2.319 -5.215,3.478 -8.95,3.478c-3.781,-0 -6.787,-1.154 -9.019,-3.46c-2.232,-2.307 -3.348,-5.484 -3.348,-9.531Zm5.291,-0.174c-0,2.879 0.664,5.062 1.994,6.548c1.33,1.486 3.018,2.229 5.065,2.229c2.046,-0 3.726,-0.737 5.038,-2.212c1.313,-1.474 1.969,-3.686 1.969,-6.634c0,-2.914 -0.639,-5.088 -1.917,-6.522c-1.277,-1.434 -2.974,-2.15 -5.09,-2.15c-2.116,-0 -3.822,0.725 -5.117,2.176c-1.295,1.451 -1.942,3.64 -1.942,6.565Z" style="fill:#fff;fill-rule:nonzero;"/><path d="M409.95,93.537l-0,-25.427l4.995,-0l10.407,16.98l-0,-16.98l4.769,-0l0,25.427l-5.151,0l-10.251,-16.581l0,16.581l-4.769,0Z" style="fill:#fff;fill-rule:nonzero;"/><rect x="486.424" y="77.627" width="25.576" height="6.394" style="fill:#fff;"/><rect x="0" y="77.627" width="25.576" height="6.394" style="fill:#fff;"/></g></g></svg>