<?xml version="1.0" encoding="UTF-8" standalone="no"?><!DOCTYPE svg PUBLIC "-//W3C//DTD SVG 1.1//EN" "http://www.w3.org/Graphics/SVG/1.1/DTD/svg11.dtd"><svg width="100%" height="100%" viewBox="0 0 512 512" version="1.1" xmlns="http://www.w3.org/2000/svg" xmlns:xlink="http://www.w3.org/1999/xlink" xml:space="preserve" xmlns:serif="http://www.serif.com/" style="fill-rule:evenodd;clip-rule:evenodd;stroke-linecap:round;stroke-linejoin:round;stroke-miterlimit:1.5;"><rect id="color_fill_name" x="0" y="-0" width="512" height="512" style="fill:none;"/><g id="_--Colored-Name" serif:id="- Colored Name"><g><g><g id="CENTER"><g id="Base"><path d="M226.02,214.337l29.982,-42.427l29.983,42.427l-29.983,42.427l-29.982,-42.427Z" style="fill:#0015ca;"/><path id="NW" d="M256.002,214.337l-29.982,0l29.982,-42.427l0,42.427Z" style="fill:url(#_Radial1);"/><path id="SW" d="M256.002,214.337l0,42.427l-29.982,-42.427l29.982,0Z" style="fill:url(#_Radial2);"/><path id="SE" d="M256.002,214.337l29.983,0l-29.983,42.427l0,-42.427Z" style="fill:url(#_Radial3);"/><path id="NE" d="M256.002,214.337l0,-42.427l29.983,42.427l-29.983,0Z" style="fill:url(#_Radial4);"/></g><g id="Highlight"><path id="NW1" serif:id="NW" d="M256.002,214.337l-29.982,0l29.982,-42.427l0,42.427Zm-0.474,-0.474l-0,-40.461l-28.593,40.461l28.593,0Z" style="fill:url(#_Radial5);"/><path id="SW1" serif:id="SW" d="M256.002,214.337l0,42.427l-29.982,-42.427l29.982,0Zm-0.474,0.474l-28.593,0l28.593,40.461l-0,-40.461Z" style="fill:url(#_Radial6);"/><path id="SW2" serif:id="SW" d="M256.002,214.337l0,42.427l-29.982,-42.427l29.982,0Zm-0.474,0.474l-28.593,0l28.593,40.461l-0,-40.461Z" style="fill:url(#_Radial7);"/><path id="SE1" serif:id="SE" d="M256.002,214.337l29.983,0l-29.983,42.427l0,-42.427Zm0.474,0.474l0,40.461l28.593,-40.461l-28.593,0Z" style="fill:url(#_Radial8);"/><path id="SE2" serif:id="SE" d="M256.002,214.337l29.983,0l-29.983,42.427l0,-42.427Zm0.474,0.474l0,40.461l28.593,-40.461l-28.593,0Z" style="fill:url(#_Radial9);"/><path id="NE1" serif:id="NE" d="M256.002,214.337l0,-42.427l29.983,42.427l-29.983,0Zm0.474,-0.474l28.593,0l-28.593,-40.461l0,40.461Z" style="fill:url(#_Radial10);"/></g></g><g id="NW2" serif:id="NW"><g id="Base1" serif:id="Base"><path id="Base2" serif:id="Base" d="M125.638,83.963c6.836,6.816 70.495,20.419 84.285,36.128c13.543,15.426 14.948,36.663 19.455,53.514c-25.264,-47.584 -54.666,-40.636 -69.396,-55.281c14.697,14.603 11.034,45.239 58.574,70.594c-16.763,-4.498 -41.231,-7.257 -56.822,-20.695c-15.79,-13.609 -29.301,-77.47 -36.096,-84.26Z" style="fill:#0015ca;"/><path id="Base3" serif:id="Base" d="M125.638,83.963c6.836,6.816 70.495,20.419 84.285,36.128c13.543,15.426 14.948,36.663 19.455,53.514c-25.264,-47.584 -54.666,-40.636 -69.396,-55.281c14.697,14.603 11.034,45.239 58.574,70.594c-16.763,-4.498 -41.231,-7.257 -56.822,-20.695c-15.79,-13.609 -29.301,-77.47 -36.096,-84.26Z" style="fill:url(#_Radial11);"/><path id="Base4" serif:id="Base" d="M125.638,83.963c6.836,6.816 70.495,20.419 84.285,36.128c13.543,15.426 14.948,36.663 19.455,53.514c-25.264,-47.584 -54.666,-40.636 -69.396,-55.281c14.697,14.603 11.034,45.239 58.574,70.594c-16.763,-4.498 -41.231,-7.257 -56.822,-20.695c-15.79,-13.609 -29.301,-77.47 -36.096,-84.26Z" style="fill:url(#_Radial12);"/><path id="Base5" serif:id="Base" d="M125.638,83.963c6.836,6.816 70.495,20.419 84.285,36.128c13.543,15.426 14.948,36.663 19.455,53.514c-25.264,-47.584 -54.666,-40.636 -69.396,-55.281c14.697,14.603 11.034,45.239 58.574,70.594c-16.763,-4.498 -41.231,-7.257 -56.822,-20.695c-15.79,-13.609 -29.301,-77.47 -36.096,-84.26Z" style="fill:url(#_Radial13);"/></g><g id="Highlights"><path id="Top-Border" serif:id="Top Border" d="M169.056,124.524c15.853,7.735 39.472,9.989 60.322,49.081c-4.498,-16.764 -6.302,-38.247 -19.74,-53.838c-13.608,-15.79 -77.208,-28.995 -83.998,-35.79c6.817,6.836 20.157,70.189 35.866,83.979c15.427,13.543 40.199,16.455 57.05,20.962c-39.313,-20.872 -43.666,-45.399 -52.242,-61.597c-1.803,-3.405 -3.793,-6.443 -6.335,-9.002c2.593,2.608 5.654,4.535 9.077,6.205Zm-3.033,3.093c2.32,4.401 4.092,9.129 6.585,14.514c6.476,13.994 16.426,30.781 42.952,45.611c-16.598,-4.053 -39.331,-7.394 -53.79,-20.086c-3.739,-3.283 -7.347,-9.42 -10.782,-16.937c-5.188,-11.357 -9.958,-25.856 -14.092,-38.522c-3.224,-9.879 -6.064,-18.646 -8.413,-23.956c-0.499,-1.128 -0.716,-1.796 -1.173,-2.596c1.205,0.684 2.542,1.114 4.463,1.893c7.53,3.051 20.081,6.844 33.051,11.187c11.091,3.715 22.488,7.832 31.299,12.235c5.826,2.911 10.517,5.941 13.212,9.068c12.587,14.604 14.943,34.437 18.873,50.607c-14.863,-26.454 -31.225,-35.292 -44.886,-40.862c-5.157,-2.103 -9.727,-3.485 -13.975,-5.546c-0.822,-0.315 -1.906,-0.906 -3.083,-1.636c-1.349,-0.787 -2.627,-1.645 -3.827,-2.605c-0.962,-0.706 -1.869,-1.409 -2.631,-2.037c-0.692,-0.569 -1.264,-1.075 -1.651,-1.466c0.381,0.413 0.881,0.994 1.445,1.683c0.666,0.812 1.423,1.774 2.183,2.79c0.737,0.928 1.427,1.904 2.08,2.925c0.935,1.394 1.726,2.72 2.16,3.736Z" style="fill:url(#_Radial14);"/><path id="Top-Border1" serif:id="Top Border" d="M169.056,124.524c15.853,7.735 39.472,9.989 60.322,49.081c-4.498,-16.764 -6.302,-38.247 -19.74,-53.838c-13.608,-15.79 -77.208,-28.995 -83.998,-35.79c6.817,6.836 20.157,70.189 35.866,83.979c15.427,13.543 40.199,16.455 57.05,20.962c-39.313,-20.872 -43.666,-45.399 -52.242,-61.597c-1.803,-3.405 -3.793,-6.443 -6.335,-9.002c2.593,2.608 5.654,4.535 9.077,6.205Zm-3.033,3.093c2.32,4.401 4.092,9.129 6.585,14.514c6.476,13.994 16.426,30.781 42.952,45.611c-16.598,-4.053 -39.331,-7.394 -53.79,-20.086c-3.739,-3.283 -7.347,-9.42 -10.782,-16.937c-5.188,-11.357 -9.958,-25.856 -14.092,-38.522c-3.224,-9.879 -6.064,-18.646 -8.413,-23.956c-0.499,-1.128 -0.716,-1.796 -1.173,-2.596c1.205,0.684 2.542,1.114 4.463,1.893c7.53,3.051 20.081,6.844 33.051,11.187c11.091,3.715 22.488,7.832 31.299,12.235c5.826,2.911 10.517,5.941 13.212,9.068c12.587,14.604 14.943,34.437 18.873,50.607c-14.863,-26.454 -31.225,-35.292 -44.886,-40.862c-5.157,-2.103 -9.727,-3.485 -13.975,-5.546c-0.822,-0.315 -1.906,-0.906 -3.083,-1.636c-1.349,-0.787 -2.627,-1.645 -3.827,-2.605c-0.962,-0.706 -1.869,-1.409 -2.631,-2.037c-0.692,-0.569 -1.264,-1.075 -1.651,-1.466c0.381,0.413 0.881,0.994 1.445,1.683c0.666,0.812 1.423,1.774 2.183,2.79c0.737,0.928 1.427,1.904 2.08,2.925c0.935,1.394 1.726,2.72 2.16,3.736Z" style="fill:url(#_Radial15);"/><path id="Top-Border2" serif:id="Top Border" d="M169.056,124.524c15.853,7.735 39.472,9.989 60.322,49.081c-4.498,-16.764 -6.302,-38.247 -19.74,-53.838c-13.608,-15.79 -77.208,-28.995 -83.998,-35.79c6.817,6.836 20.157,70.189 35.866,83.979c15.427,13.543 40.199,16.455 57.05,20.962c-39.313,-20.872 -43.666,-45.399 -52.242,-61.597c-1.803,-3.405 -3.793,-6.443 -6.335,-9.002c2.593,2.608 5.654,4.535 9.077,6.205Zm-3.033,3.093c2.32,4.401 4.092,9.129 6.585,14.514c6.476,13.994 16.426,30.781 42.952,45.611c-16.598,-4.053 -39.331,-7.394 -53.79,-20.086c-3.739,-3.283 -7.347,-9.42 -10.782,-16.937c-5.188,-11.357 -9.958,-25.856 -14.092,-38.522c-3.224,-9.879 -6.064,-18.646 -8.413,-23.956c-0.499,-1.128 -0.716,-1.796 -1.173,-2.596c1.205,0.684 2.542,1.114 4.463,1.893c7.53,3.051 20.081,6.844 33.051,11.187c11.091,3.715 22.488,7.832 31.299,12.235c5.826,2.911 10.517,5.941 13.212,9.068c12.587,14.604 14.943,34.437 18.873,50.607c-14.863,-26.454 -31.225,-35.292 -44.886,-40.862c-5.157,-2.103 -9.727,-3.485 -13.975,-5.546c-0.822,-0.315 -1.906,-0.906 -3.083,-1.636c-1.349,-0.787 -2.627,-1.645 -3.827,-2.605c-0.962,-0.706 -1.869,-1.409 -2.631,-2.037c-0.692,-0.569 -1.264,-1.075 -1.651,-1.466c0.381,0.413 0.881,0.994 1.445,1.683c0.666,0.812 1.423,1.774 2.183,2.79c0.737,0.928 1.427,1.904 2.08,2.925c0.935,1.394 1.726,2.72 2.16,3.736Z" style="fill:url(#_Radial16);"/><path id="Top-Border3" serif:id="Top Border" d="M169.056,124.524c15.853,7.735 39.472,9.989 60.322,49.081c-4.498,-16.764 -6.302,-38.247 -19.74,-53.838c-13.608,-15.79 -77.208,-28.995 -83.998,-35.79c6.817,6.836 20.157,70.189 35.866,83.979c15.427,13.543 40.199,16.455 57.05,20.962c-39.313,-20.872 -43.666,-45.399 -52.242,-61.597c-1.803,-3.405 -3.793,-6.443 -6.335,-9.002c2.593,2.608 5.654,4.535 9.077,6.205Zm-3.033,3.093c2.32,4.401 4.092,9.129 6.585,14.514c6.476,13.994 16.426,30.781 42.952,45.611c-16.598,-4.053 -39.331,-7.394 -53.79,-20.086c-3.739,-3.283 -7.347,-9.42 -10.782,-16.937c-5.188,-11.357 -9.958,-25.856 -14.092,-38.522c-3.224,-9.879 -6.064,-18.646 -8.413,-23.956c-0.499,-1.128 -0.716,-1.796 -1.173,-2.596c1.205,0.684 2.542,1.114 4.463,1.893c7.53,3.051 20.081,6.844 33.051,11.187c11.091,3.715 22.488,7.832 31.299,12.235c5.826,2.911 10.517,5.941 13.212,9.068c12.587,14.604 14.943,34.437 18.873,50.607c-14.863,-26.454 -31.225,-35.292 -44.886,-40.862c-5.157,-2.103 -9.727,-3.485 -13.975,-5.546c-0.822,-0.315 -1.906,-0.906 -3.083,-1.636c-1.349,-0.787 -2.627,-1.645 -3.827,-2.605c-0.962,-0.706 -1.869,-1.409 -2.631,-2.037c-0.692,-0.569 -1.264,-1.075 -1.651,-1.466c0.381,0.413 0.881,0.994 1.445,1.683c0.666,0.812 1.423,1.774 2.183,2.79c0.737,0.928 1.427,1.904 2.08,2.925c0.935,1.394 1.726,2.72 2.16,3.736Z" style="fill:url(#_Radial17);"/></g></g><g id="W"><g id="Base6" serif:id="Base"><path id="Base7" serif:id="Base" d="M62,214.337c0,0 50.675,25.822 84.684,35.892l63.016,-22.964c-24.071,0.086 -76.604,-4.829 -89.48,-12.929c12.454,-8.623 65.553,-12.939 89.466,-12.92l-62.965,-22.903c-34.053,10.042 -84.721,35.824 -84.721,35.824Z" style="fill:#0015ca;"/><path id="Full" d="M62,214.337c0,0 50.675,25.822 84.684,35.892l63.016,-22.964c-24.071,0.086 -76.604,-4.829 -89.48,-12.929c12.454,-8.623 65.553,-12.939 89.466,-12.92l-62.965,-22.903c-34.053,10.042 -84.721,35.824 -84.721,35.824Z" style="fill:url(#_Radial18);"/><path id="Full1" serif:id="Full" d="M62,214.337c0,0 50.675,25.822 84.684,35.892l63.016,-22.964c-24.071,0.086 -76.604,-4.829 -89.48,-12.929c12.454,-8.623 65.553,-12.939 89.466,-12.92l-62.965,-22.903c-34.053,10.042 -84.721,35.824 -84.721,35.824Z" style="fill:url(#_Radial19);"/><path id="Full2" serif:id="Full" d="M62,214.337c0,0 50.675,25.822 84.684,35.892l63.016,-22.964c-24.071,0.086 -76.604,-4.829 -89.48,-12.929c12.454,-8.623 65.553,-12.939 89.466,-12.92l-62.965,-22.903c-34.053,10.042 -84.721,35.824 -84.721,35.824Z" style="fill:url(#_Radial20);"/></g><g id="Blend"><clipPath id="_clip21"><path id="Botom" d="M62.89,214.337c4.533,2.291 51.447,26.092 83.787,35.681l61.889,-22.552c-17.078,-0.047 -47.009,-2.425 -67.928,-6.552c-9.193,-1.814 -16.648,-3.97 -20.524,-6.408c-0.057,-0.036 -0.092,-0.098 -0.094,-0.165c-0.001,-0.067 0.031,-0.131 0.087,-0.169c3.75,-2.597 11.17,-4.811 20.372,-6.629c20.929,-4.135 51.093,-6.246 68.078,-6.325l-61.842,-22.494c-32.383,9.561 -79.293,33.321 -83.825,35.613Z"/></clipPath><g clip-path="url(#_clip21)"><path d="M62.054,214.337c-0.036,0.018 -0.054,0.028 -0.054,0.028c0,-0 50.675,25.794 84.684,35.864l63.016,-22.964c-24.07,0.086 -76.599,-4.828 -89.478,-12.928l-58.168,0Z" style="fill:url(#_Radial22);"/></g><path id="Bend" d="M120.021,214.341l-57.579,0.025" style="fill:none;stroke:url(#_Radial23);stroke-width:0.47px;"/></g><g id="Highlights1" serif:id="Highlights"><path id="Border" d="M62,214.337c0,0 50.668,-25.782 84.721,-35.824l62.965,22.903c-23.913,-0.019 -77.012,4.297 -89.466,12.92c12.876,8.1 65.409,13.015 89.48,12.929l-63.016,22.964c-34.009,-10.07 -84.684,-35.892 -84.684,-35.892Zm0.945,0c6.394,3.224 52.178,26.075 83.725,35.443l60.631,-22.095c-17.271,-0.156 -46.282,-2.519 -66.707,-6.549c-9.228,-1.821 -16.71,-3.991 -20.601,-6.439c-0.121,-0.076 -0.196,-0.208 -0.199,-0.351c-0.003,-0.144 0.066,-0.279 0.184,-0.361c3.766,-2.608 11.216,-4.839 20.457,-6.665c20.433,-4.036 49.664,-6.146 66.862,-6.319l-60.59,-22.038c-31.587,9.34 -77.368,32.155 -83.762,35.374Z" style="fill:url(#_Radial24);"/><path id="Border1" serif:id="Border" d="M62,214.337c0,0 50.668,-25.782 84.721,-35.824l62.965,22.903c-23.913,-0.019 -77.012,4.297 -89.466,12.92c12.876,8.1 65.409,13.015 89.48,12.929l-63.016,22.964c-34.009,-10.07 -84.684,-35.892 -84.684,-35.892Zm0.945,0c6.394,3.224 52.178,26.075 83.725,35.443l60.631,-22.095c-17.271,-0.156 -46.282,-2.519 -66.707,-6.549c-9.228,-1.821 -16.71,-3.991 -20.601,-6.439c-0.121,-0.076 -0.196,-0.208 -0.199,-0.351c-0.003,-0.144 0.066,-0.279 0.184,-0.361c3.766,-2.608 11.216,-4.839 20.457,-6.665c20.433,-4.036 49.664,-6.146 66.862,-6.319l-60.59,-22.038c-31.587,9.34 -77.368,32.155 -83.762,35.374Z" style="fill:url(#_Radial25);"/><path id="Border2" serif:id="Border" d="M62,214.337c0,0 50.668,-25.782 84.721,-35.824l62.965,22.903c-23.913,-0.019 -77.012,4.297 -89.466,12.92c12.876,8.1 65.409,13.015 89.48,12.929l-63.016,22.964c-34.009,-10.07 -84.684,-35.892 -84.684,-35.892Zm0.945,0c6.394,3.224 52.178,26.075 83.725,35.443l60.631,-22.095c-17.271,-0.156 -46.282,-2.519 -66.707,-6.549c-9.228,-1.821 -16.71,-3.991 -20.601,-6.439c-0.121,-0.076 -0.196,-0.208 -0.199,-0.351c-0.003,-0.144 0.066,-0.279 0.184,-0.361c3.766,-2.608 11.216,-4.839 20.457,-6.665c20.433,-4.036 49.664,-6.146 66.862,-6.319l-60.59,-22.038c-31.587,9.34 -77.368,32.155 -83.762,35.374Z" style="fill:url(#_Radial26);"/><path id="Border3" serif:id="Border" d="M62,214.337c0,0 50.668,-25.782 84.721,-35.824l62.965,22.903c-23.913,-0.019 -77.012,4.297 -89.466,12.92c12.876,8.1 65.409,13.015 89.48,12.929l-63.016,22.964c-34.009,-10.07 -84.684,-35.892 -84.684,-35.892Zm0.945,0c6.394,3.224 52.178,26.075 83.725,35.443l60.631,-22.095c-17.271,-0.156 -46.282,-2.519 -66.707,-6.549c-9.228,-1.821 -16.71,-3.991 -20.601,-6.439c-0.121,-0.076 -0.196,-0.208 -0.199,-0.351c-0.003,-0.144 0.066,-0.279 0.184,-0.361c3.766,-2.608 11.216,-4.839 20.457,-6.665c20.433,-4.036 49.664,-6.146 66.862,-6.319l-60.59,-22.038c-31.587,9.34 -77.368,32.155 -83.762,35.374Z" style="fill:url(#_Radial27);"/></g></g><g id="SW3" serif:id="SW"><g id="Base8" serif:id="Base"><path id="Base9" serif:id="Base" d="M125.638,344.713c6.836,-6.817 70.495,-20.419 84.285,-36.128c13.543,-15.427 14.948,-36.664 19.455,-53.514c-25.264,47.583 -54.666,40.635 -69.396,55.28c14.697,-14.602 11.034,-45.238 58.574,-70.594c-16.763,4.499 -41.231,7.258 -56.822,20.696c-15.79,13.608 -29.301,77.47 -36.096,84.26Z" style="fill:#0015ca;"/><path id="Base10" serif:id="Base" d="M125.638,344.713c6.836,-6.817 70.495,-20.419 84.285,-36.128c13.543,-15.427 14.948,-36.664 19.455,-53.514c-25.264,47.583 -54.666,40.635 -69.396,55.28c14.697,-14.602 11.034,-45.238 58.574,-70.594c-16.763,4.499 -41.231,7.258 -56.822,20.696c-15.79,13.608 -29.301,77.47 -36.096,84.26Z" style="fill:url(#_Radial28);"/><path id="Base11" serif:id="Base" d="M125.638,344.713c6.836,-6.817 70.495,-20.419 84.285,-36.128c13.543,-15.427 14.948,-36.664 19.455,-53.514c-25.264,47.583 -54.666,40.635 -69.396,55.28c14.697,-14.602 11.034,-45.238 58.574,-70.594c-16.763,4.499 -41.231,7.258 -56.822,20.696c-15.79,13.608 -29.301,77.47 -36.096,84.26Z" style="fill:url(#_Radial29);"/><path id="Base12" serif:id="Base" d="M125.638,344.713c6.836,-6.817 70.495,-20.419 84.285,-36.128c13.543,-15.427 14.948,-36.664 19.455,-53.514c-25.264,47.583 -54.666,40.635 -69.396,55.28c14.697,-14.602 11.034,-45.238 58.574,-70.594c-16.763,4.499 -41.231,7.258 -56.822,20.696c-15.79,13.608 -29.301,77.47 -36.096,84.26Z" style="fill:url(#_Radial30);"/><path id="Base13" serif:id="Base" d="M125.638,344.713c6.836,-6.817 70.495,-20.419 84.285,-36.128c13.543,-15.427 14.948,-36.664 19.455,-53.514c-25.264,47.583 -54.666,40.635 -69.396,55.28c14.697,-14.602 11.034,-45.238 58.574,-70.594c-16.763,4.499 -41.231,7.258 -56.822,20.696c-15.79,13.608 -29.301,77.47 -36.096,84.26Z" style="fill:url(#_Radial31);"/></g><g id="Highlights2" serif:id="Highlights"><path id="Top-Border4" serif:id="Top Border" d="M169.056,304.152c15.853,-7.735 39.472,-9.989 60.322,-49.081c-4.498,16.763 -6.302,38.246 -19.74,53.838c-13.608,15.79 -77.208,28.994 -83.998,35.789c6.817,-6.835 20.157,-70.188 35.866,-83.979c15.427,-13.542 40.199,-16.454 57.05,-20.962c-39.313,20.873 -43.666,45.399 -52.242,61.598c-1.803,3.405 -3.793,6.443 -6.335,9.002c2.593,-2.609 5.654,-4.535 9.077,-6.205Zm-3.033,-3.093c2.32,-4.401 4.092,-9.129 6.585,-14.515c6.476,-13.994 16.426,-30.781 42.952,-45.61c-16.598,4.053 -39.331,7.393 -53.79,20.086c-3.739,3.282 -7.347,9.42 -10.782,16.937c-5.188,11.357 -9.958,25.855 -14.092,38.522c-3.224,9.878 -6.064,18.645 -8.413,23.956c-0.499,1.127 -0.716,1.795 -1.173,2.596c1.205,-0.685 2.542,-1.115 4.463,-1.893c7.53,-3.051 20.081,-6.844 33.051,-11.188c11.091,-3.714 22.488,-7.831 31.299,-12.234c5.826,-2.912 10.517,-5.941 13.212,-9.068c12.587,-14.605 14.943,-34.437 18.873,-50.607c-14.863,26.454 -31.225,35.292 -44.886,40.862c-5.157,2.102 -9.727,3.485 -13.975,5.546c-0.822,0.315 -1.906,0.906 -3.083,1.635c-1.349,0.788 -2.627,1.645 -3.827,2.605c-0.962,0.706 -1.869,1.41 -2.631,2.037c-0.692,0.569 -1.264,1.076 -1.651,1.467c0.381,-0.413 0.881,-0.994 1.445,-1.683c0.666,-0.812 1.423,-1.774 2.183,-2.79c0.737,-0.928 1.427,-1.904 2.08,-2.925c0.935,-1.394 1.726,-2.72 2.16,-3.736Z" style="fill:url(#_Radial32);"/><path id="Top-Border5" serif:id="Top Border" d="M169.056,304.152c15.853,-7.735 39.472,-9.989 60.322,-49.081c-4.498,16.763 -6.302,38.246 -19.74,53.838c-13.608,15.79 -77.208,28.994 -83.998,35.789c6.817,-6.835 20.157,-70.188 35.866,-83.979c15.427,-13.542 40.199,-16.454 57.05,-20.962c-39.313,20.873 -43.666,45.399 -52.242,61.598c-1.803,3.405 -3.793,6.443 -6.335,9.002c2.593,-2.609 5.654,-4.535 9.077,-6.205Zm-3.033,-3.093c2.32,-4.401 4.092,-9.129 6.585,-14.515c6.476,-13.994 16.426,-30.781 42.952,-45.61c-16.598,4.053 -39.331,7.393 -53.79,20.086c-3.739,3.282 -7.347,9.42 -10.782,16.937c-5.188,11.357 -9.958,25.855 -14.092,38.522c-3.224,9.878 -6.064,18.645 -8.413,23.956c-0.499,1.127 -0.716,1.795 -1.173,2.596c1.205,-0.685 2.542,-1.115 4.463,-1.893c7.53,-3.051 20.081,-6.844 33.051,-11.188c11.091,-3.714 22.488,-7.831 31.299,-12.234c5.826,-2.912 10.517,-5.941 13.212,-9.068c12.587,-14.605 14.943,-34.437 18.873,-50.607c-14.863,26.454 -31.225,35.292 -44.886,40.862c-5.157,2.102 -9.727,3.485 -13.975,5.546c-0.822,0.315 -1.906,0.906 -3.083,1.635c-1.349,0.788 -2.627,1.645 -3.827,2.605c-0.962,0.706 -1.869,1.41 -2.631,2.037c-0.692,0.569 -1.264,1.076 -1.651,1.467c0.381,-0.413 0.881,-0.994 1.445,-1.683c0.666,-0.812 1.423,-1.774 2.183,-2.79c0.737,-0.928 1.427,-1.904 2.08,-2.925c0.935,-1.394 1.726,-2.72 2.16,-3.736Z" style="fill:url(#_Radial33);"/><path id="Top-Border6" serif:id="Top Border" d="M169.056,304.152c15.853,-7.735 39.472,-9.989 60.322,-49.081c-4.498,16.763 -6.302,38.246 -19.74,53.838c-13.608,15.79 -77.208,28.994 -83.998,35.789c6.817,-6.835 20.157,-70.188 35.866,-83.979c15.427,-13.542 40.199,-16.454 57.05,-20.962c-39.313,20.873 -43.666,45.399 -52.242,61.598c-1.803,3.405 -3.793,6.443 -6.335,9.002c2.593,-2.609 5.654,-4.535 9.077,-6.205Zm-3.033,-3.093c2.32,-4.401 4.092,-9.129 6.585,-14.515c6.476,-13.994 16.426,-30.781 42.952,-45.61c-16.598,4.053 -39.331,7.393 -53.79,20.086c-3.739,3.282 -7.347,9.42 -10.782,16.937c-5.188,11.357 -9.958,25.855 -14.092,38.522c-3.224,9.878 -6.064,18.645 -8.413,23.956c-0.499,1.127 -0.716,1.795 -1.173,2.596c1.205,-0.685 2.542,-1.115 4.463,-1.893c7.53,-3.051 20.081,-6.844 33.051,-11.188c11.091,-3.714 22.488,-7.831 31.299,-12.234c5.826,-2.912 10.517,-5.941 13.212,-9.068c12.587,-14.605 14.943,-34.437 18.873,-50.607c-14.863,26.454 -31.225,35.292 -44.886,40.862c-5.157,2.102 -9.727,3.485 -13.975,5.546c-0.822,0.315 -1.906,0.906 -3.083,1.635c-1.349,0.788 -2.627,1.645 -3.827,2.605c-0.962,0.706 -1.869,1.41 -2.631,2.037c-0.692,0.569 -1.264,1.076 -1.651,1.467c0.381,-0.413 0.881,-0.994 1.445,-1.683c0.666,-0.812 1.423,-1.774 2.183,-2.79c0.737,-0.928 1.427,-1.904 2.08,-2.925c0.935,-1.394 1.726,-2.72 2.16,-3.736Z" style="fill:url(#_Radial34);"/></g></g><g id="S"><g id="Base14" serif:id="Base"><path id="Base15" serif:id="Base" d="M256.002,408.34c0,0 -25.779,-50.698 -35.849,-84.708l19.609,-53.875c-0.086,24.071 8.141,67.517 16.241,80.393c8.623,-12.454 16.258,-56.48 16.239,-80.393l19.609,53.875c-10.041,34.053 -35.849,84.708 -35.849,84.708Z" style="fill:url(#_Linear35);"/><path id="Base16" serif:id="Base" d="M256.002,408.34c0,0 -25.779,-50.698 -35.849,-84.708l19.609,-53.875c-0.086,24.071 8.141,67.517 16.241,80.393c8.623,-12.454 16.258,-56.48 16.239,-80.393l19.609,53.875c-10.041,34.053 -35.849,84.708 -35.849,84.708Z" style="fill:url(#_Radial36);"/><path id="Base17" serif:id="Base" d="M256.002,408.34c0,0 -25.779,-50.698 -35.849,-84.708l19.609,-53.875c-0.086,24.071 8.141,67.517 16.241,80.393c8.623,-12.454 16.258,-56.48 16.239,-80.393l19.609,53.875c-10.041,34.053 -35.849,84.708 -35.849,84.708Z" style="fill:url(#_Radial37);"/></g><g id="Blend1" serif:id="Blend"><path id="Right-Inner" serif:id="Right Inner" d="M256.002,407.453l0,-56.903c0.131,0 0.255,-0.064 0.33,-0.172c2.604,-3.762 5.126,-10.381 7.37,-18.458c4.987,-17.948 8.629,-43.118 8.921,-59.946l18.807,51.671c-9.362,31.667 -32.295,77.596 -35.428,83.809c0,-0.001 0,-0.001 0,-0.001Z" style="fill:url(#_Radial38);"/><path id="Right-Inner1" serif:id="Right Inner" d="M256.002,407.453l0,-56.903c0.131,0 0.255,-0.064 0.33,-0.172c2.604,-3.762 5.126,-10.381 7.37,-18.458c4.987,-17.948 8.629,-43.118 8.921,-59.946l18.807,51.671c-9.362,31.667 -32.295,77.596 -35.428,83.809c0,-0.001 0,-0.001 0,-0.001Z" style="fill:url(#_Radial39);"/><path id="Left-Inner" serif:id="Left Inner" d="M256.002,407.453c-3.131,-6.22 -26.039,-52.182 -35.428,-83.808l18.802,-51.66c0.397,24.5 8.41,65.855 16.288,78.378c0.072,0.114 0.196,0.184 0.33,0.187c0.003,-0 0.005,-0 0.008,-0l0,56.903Z" style="fill:url(#_Radial40);"/><path id="Bend1" serif:id="Bend" d="M256.015,350.176l-0.015,57.278" style="fill:none;stroke:url(#_Radial41);stroke-width:0.47px;"/></g><g id="Highlights3" serif:id="Highlights"><path id="Base18" serif:id="Base" d="M256.002,408.34c0,0 -25.779,-50.698 -35.849,-84.708l19.609,-53.875c-0.086,24.071 8.141,67.517 16.241,80.393c8.623,-12.454 16.258,-56.48 16.239,-80.393l19.609,53.875c-10.041,34.053 -35.849,84.708 -35.849,84.708Zm0,-0.945c3.223,-6.394 26.06,-52.163 35.4,-83.749l-18.755,-51.527c-0.31,16.829 -3.946,41.909 -8.919,59.808c-2.245,8.081 -4.769,14.703 -7.374,18.466c-0.082,0.118 -0.217,0.187 -0.361,0.183c-0.143,-0.003 -0.275,-0.078 -0.351,-0.199c-7.864,-12.5 -15.864,-53.723 -16.29,-78.247l-18.75,51.516c9.368,31.547 32.182,77.351 35.4,83.749Z" style="fill:url(#_Radial42);"/><path id="Base19" serif:id="Base" d="M256.002,408.34c0,0 -25.779,-50.698 -35.849,-84.708l19.609,-53.875c-0.086,24.071 8.141,67.517 16.241,80.393c8.623,-12.454 16.258,-56.48 16.239,-80.393l19.609,53.875c-10.041,34.053 -35.849,84.708 -35.849,84.708Zm0,-0.945c3.223,-6.394 26.06,-52.163 35.4,-83.749l-18.755,-51.527c-0.31,16.829 -3.946,41.909 -8.919,59.808c-2.245,8.081 -4.769,14.703 -7.374,18.466c-0.082,0.118 -0.217,0.187 -0.361,0.183c-0.143,-0.003 -0.275,-0.078 -0.351,-0.199c-7.864,-12.5 -15.864,-53.723 -16.29,-78.247l-18.75,51.516c9.368,31.547 32.182,77.351 35.4,83.749Z" style="fill:url(#_Radial43);"/><path id="Base20" serif:id="Base" d="M256.002,408.34c0,0 -25.779,-50.698 -35.849,-84.708l19.609,-53.875c-0.086,24.071 8.141,67.517 16.241,80.393c8.623,-12.454 16.258,-56.48 16.239,-80.393l19.609,53.875c-10.041,34.053 -35.849,84.708 -35.849,84.708Zm0,-0.945c3.223,-6.394 26.06,-52.163 35.4,-83.749l-18.755,-51.527c-0.31,16.829 -3.946,41.909 -8.919,59.808c-2.245,8.081 -4.769,14.703 -7.374,18.466c-0.082,0.118 -0.217,0.187 -0.361,0.183c-0.143,-0.003 -0.275,-0.078 -0.351,-0.199c-7.864,-12.5 -15.864,-53.723 -16.29,-78.247l-18.75,51.516c9.368,31.547 32.182,77.351 35.4,83.749Z" style="fill:url(#_Radial44);"/><path id="Base21" serif:id="Base" d="M256.002,408.34c0,0 -25.779,-50.698 -35.849,-84.708l19.609,-53.875c-0.086,24.071 8.141,67.517 16.241,80.393c8.623,-12.454 16.258,-56.48 16.239,-80.393l19.609,53.875c-10.041,34.053 -35.849,84.708 -35.849,84.708Zm0,-0.945c3.223,-6.394 26.06,-52.163 35.4,-83.749l-18.755,-51.527c-0.31,16.829 -3.946,41.909 -8.919,59.808c-2.245,8.081 -4.769,14.703 -7.374,18.466c-0.082,0.118 -0.217,0.187 -0.361,0.183c-0.143,-0.003 -0.275,-0.078 -0.351,-0.199c-7.864,-12.5 -15.864,-53.723 -16.29,-78.247l-18.75,51.516c9.368,31.547 32.182,77.351 35.4,83.749Z" style="fill:url(#_Radial45);"/></g></g><g id="SE3" serif:id="SE"><g id="Base22" serif:id="Base"><path id="Base23" serif:id="Base" d="M386.361,344.713c-6.836,-6.817 -70.495,-20.419 -84.285,-36.128c-13.543,-15.427 -14.948,-36.664 -19.455,-53.514c25.264,47.583 54.666,40.635 69.395,55.28c-14.696,-14.602 -11.034,-45.238 -58.573,-70.594c16.763,4.499 41.231,7.258 56.822,20.696c15.79,13.608 29.301,77.47 36.096,84.26Z" style="fill:#4300c0;"/><path id="Base24" serif:id="Base" d="M386.361,344.713c-6.836,-6.817 -70.495,-20.419 -84.285,-36.128c-13.543,-15.427 -14.948,-36.664 -19.455,-53.514c25.264,47.583 54.666,40.635 69.395,55.28c-14.696,-14.602 -11.034,-45.238 -58.573,-70.594c16.763,4.499 41.231,7.258 56.822,20.696c15.79,13.608 29.301,77.47 36.096,84.26Z" style="fill:url(#_Radial46);"/><path id="Base25" serif:id="Base" d="M386.361,344.713c-6.836,-6.817 -70.495,-20.419 -84.285,-36.128c-13.543,-15.427 -14.948,-36.664 -19.455,-53.514c25.264,47.583 54.666,40.635 69.395,55.28c-14.696,-14.602 -11.034,-45.238 -58.573,-70.594c16.763,4.499 41.231,7.258 56.822,20.696c15.79,13.608 29.301,77.47 36.096,84.26Z" style="fill:url(#_Radial47);"/><path id="Base26" serif:id="Base" d="M386.361,344.713c-6.836,-6.817 -70.495,-20.419 -84.285,-36.128c-13.543,-15.427 -14.948,-36.664 -19.455,-53.514c25.264,47.583 54.666,40.635 69.395,55.28c-14.696,-14.602 -11.034,-45.238 -58.573,-70.594c16.763,4.499 41.231,7.258 56.822,20.696c15.79,13.608 29.301,77.47 36.096,84.26Z" style="fill:url(#_Radial48);"/><path id="Base27" serif:id="Base" d="M386.361,344.713c-6.836,-6.817 -70.495,-20.419 -84.285,-36.128c-13.543,-15.427 -14.948,-36.664 -19.455,-53.514c25.264,47.583 54.666,40.635 69.395,55.28c-14.696,-14.602 -11.034,-45.238 -58.573,-70.594c16.763,4.499 41.231,7.258 56.822,20.696c15.79,13.608 29.301,77.47 36.096,84.26Z" style="fill:url(#_Radial49);"/></g><g id="Highlights4" serif:id="Highlights"><path id="Top-Border7" serif:id="Top Border" d="M342.943,304.152c-15.853,-7.735 -39.472,-9.989 -60.322,-49.081c4.498,16.763 6.302,38.246 19.739,53.838c13.609,15.79 77.208,28.994 83.999,35.789c-6.817,-6.835 -20.157,-70.188 -35.867,-83.979c-15.426,-13.542 -40.199,-16.454 -57.049,-20.962c39.313,20.873 43.666,45.399 52.242,61.598c1.802,3.405 3.793,6.443 6.335,9.002c-2.593,-2.609 -5.654,-4.535 -9.077,-6.205Zm3.032,-3.093c-2.319,-4.401 -4.091,-9.129 -6.584,-14.515c-6.477,-13.994 -16.426,-30.781 -42.952,-45.61c16.598,4.053 39.331,7.393 53.789,20.086c3.74,3.282 7.348,9.42 10.782,16.937c5.189,11.357 9.958,25.855 14.093,38.522c3.224,9.878 6.063,18.645 8.413,23.956c0.499,1.127 0.716,1.795 1.173,2.596c-1.205,-0.685 -2.542,-1.115 -4.464,-1.893c-7.529,-3.051 -20.081,-6.844 -33.05,-11.188c-11.091,-3.714 -22.489,-7.831 -31.299,-12.234c-5.826,-2.912 -10.517,-5.941 -13.213,-9.068c-12.587,-14.605 -14.943,-34.437 -18.872,-50.607c14.863,26.454 31.225,35.292 44.886,40.862c5.157,2.102 9.726,3.485 13.974,5.546c0.823,0.315 1.907,0.906 3.083,1.635c1.35,0.788 2.628,1.645 3.827,2.605c0.962,0.706 1.87,1.41 2.632,2.037c0.691,0.569 1.264,1.076 1.651,1.467c-0.381,-0.413 -0.881,-0.994 -1.446,-1.683c-0.665,-0.812 -1.422,-1.774 -2.182,-2.79c-0.738,-0.928 -1.427,-1.904 -2.081,-2.925c-0.934,-1.394 -1.726,-2.72 -2.16,-3.736Z" style="fill:url(#_Radial50);"/><path id="Top-Border8" serif:id="Top Border" d="M342.943,304.152c-15.853,-7.735 -39.472,-9.989 -60.322,-49.081c4.498,16.763 6.302,38.246 19.739,53.838c13.609,15.79 77.208,28.994 83.999,35.789c-6.817,-6.835 -20.157,-70.188 -35.867,-83.979c-15.426,-13.542 -40.199,-16.454 -57.049,-20.962c39.313,20.873 43.666,45.399 52.242,61.598c1.802,3.405 3.793,6.443 6.335,9.002c-2.593,-2.609 -5.654,-4.535 -9.077,-6.205Zm3.032,-3.093c-2.319,-4.401 -4.091,-9.129 -6.584,-14.515c-6.477,-13.994 -16.426,-30.781 -42.952,-45.61c16.598,4.053 39.331,7.393 53.789,20.086c3.74,3.282 7.348,9.42 10.782,16.937c5.189,11.357 9.958,25.855 14.093,38.522c3.224,9.878 6.063,18.645 8.413,23.956c0.499,1.127 0.716,1.795 1.173,2.596c-1.205,-0.685 -2.542,-1.115 -4.464,-1.893c-7.529,-3.051 -20.081,-6.844 -33.05,-11.188c-11.091,-3.714 -22.489,-7.831 -31.299,-12.234c-5.826,-2.912 -10.517,-5.941 -13.213,-9.068c-12.587,-14.605 -14.943,-34.437 -18.872,-50.607c14.863,26.454 31.225,35.292 44.886,40.862c5.157,2.102 9.726,3.485 13.974,5.546c0.823,0.315 1.907,0.906 3.083,1.635c1.35,0.788 2.628,1.645 3.827,2.605c0.962,0.706 1.87,1.41 2.632,2.037c0.691,0.569 1.264,1.076 1.651,1.467c-0.381,-0.413 -0.881,-0.994 -1.446,-1.683c-0.665,-0.812 -1.422,-1.774 -2.182,-2.79c-0.738,-0.928 -1.427,-1.904 -2.081,-2.925c-0.934,-1.394 -1.726,-2.72 -2.16,-3.736Z" style="fill:url(#_Radial51);"/><path id="Top-Border9" serif:id="Top Border" d="M342.943,304.152c-15.853,-7.735 -39.472,-9.989 -60.322,-49.081c4.498,16.763 6.302,38.246 19.739,53.838c13.609,15.79 77.208,28.994 83.999,35.789c-6.817,-6.835 -20.157,-70.188 -35.867,-83.979c-15.426,-13.542 -40.199,-16.454 -57.049,-20.962c39.313,20.873 43.666,45.399 52.242,61.598c1.802,3.405 3.793,6.443 6.335,9.002c-2.593,-2.609 -5.654,-4.535 -9.077,-6.205Zm3.032,-3.093c-2.319,-4.401 -4.091,-9.129 -6.584,-14.515c-6.477,-13.994 -16.426,-30.781 -42.952,-45.61c16.598,4.053 39.331,7.393 53.789,20.086c3.74,3.282 7.348,9.42 10.782,16.937c5.189,11.357 9.958,25.855 14.093,38.522c3.224,9.878 6.063,18.645 8.413,23.956c0.499,1.127 0.716,1.795 1.173,2.596c-1.205,-0.685 -2.542,-1.115 -4.464,-1.893c-7.529,-3.051 -20.081,-6.844 -33.05,-11.188c-11.091,-3.714 -22.489,-7.831 -31.299,-12.234c-5.826,-2.912 -10.517,-5.941 -13.213,-9.068c-12.587,-14.605 -14.943,-34.437 -18.872,-50.607c14.863,26.454 31.225,35.292 44.886,40.862c5.157,2.102 9.726,3.485 13.974,5.546c0.823,0.315 1.907,0.906 3.083,1.635c1.35,0.788 2.628,1.645 3.827,2.605c0.962,0.706 1.87,1.41 2.632,2.037c0.691,0.569 1.264,1.076 1.651,1.467c-0.381,-0.413 -0.881,-0.994 -1.446,-1.683c-0.665,-0.812 -1.422,-1.774 -2.182,-2.79c-0.738,-0.928 -1.427,-1.904 -2.081,-2.925c-0.934,-1.394 -1.726,-2.72 -2.16,-3.736Z" style="fill:url(#_Radial52);"/></g></g><g id="E"><g id="Base28" serif:id="Base"><path id="Base29" serif:id="Base" d="M450,214.34c0,0 -50.675,25.819 -84.684,35.889l-63.016,-22.964c24.071,0.086 76.604,-4.829 89.48,-12.929c-12.454,-8.623 -65.553,-12.939 -89.466,-12.92l62.965,-22.903c34.053,10.042 84.721,35.827 84.721,35.827Z" style="fill:#4300c0;"/><path id="Full3" serif:id="Full" d="M450,214.34c0,0 -50.675,25.819 -84.684,35.889l-63.016,-22.964c24.071,0.086 76.604,-4.829 89.48,-12.929c-12.454,-8.623 -65.553,-12.939 -89.466,-12.92l62.965,-22.903c34.053,10.042 84.721,35.827 84.721,35.827Z" style="fill:url(#_Radial53);"/><path id="Full4" serif:id="Full" d="M450,214.34c0,0 -50.675,25.819 -84.684,35.889l-63.016,-22.964c24.071,0.086 76.604,-4.829 89.48,-12.929c-12.454,-8.623 -65.553,-12.939 -89.466,-12.92l62.965,-22.903c34.053,10.042 84.721,35.827 84.721,35.827Z" style="fill:url(#_Radial54);"/><path id="Full5" serif:id="Full" d="M450,214.34c0,0 -50.675,25.819 -84.684,35.889l-63.016,-22.964c24.071,0.086 76.604,-4.829 89.48,-12.929c-12.454,-8.623 -65.553,-12.939 -89.466,-12.92l62.965,-22.903c34.053,10.042 84.721,35.827 84.721,35.827Z" style="fill:url(#_Radial55);"/></g><g id="Blend2"><clipPath id="_clip56"><path id="Botom1" serif:id="Botom" d="M449.111,214.337c-4.533,2.291 -51.448,26.092 -83.788,35.681l-61.889,-22.552c17.078,-0.047 47.009,-2.425 67.928,-6.552c9.193,-1.814 16.648,-3.97 20.524,-6.408c0.057,-0.036 0.092,-0.098 0.094,-0.165c0.001,-0.067 -0.031,-0.131 -0.087,-0.169c-3.75,-2.597 -11.17,-4.811 -20.372,-6.629c-20.929,-4.135 -51.093,-6.246 -68.078,-6.325l61.842,-22.494c32.383,9.561 79.294,33.321 83.826,35.613Z"/></clipPath><g clip-path="url(#_clip56)"><path d="M391.778,214.337l58.222,0c0,0 -50.675,25.822 -84.684,35.892l-63.016,-22.964c24.07,0.086 76.599,-4.828 89.478,-12.928Z" style="fill:url(#_Radial57);"/></g><path id="Bend2" serif:id="Bend" d="M391.979,214.341l57.579,-0.001" style="fill:none;stroke:url(#_Radial58);stroke-width:0.47px;"/></g><g id="Highlights5" serif:id="Highlights"><path id="Border4" serif:id="Border" d="M450,214.34c-0,0 -50.675,25.819 -84.684,35.889l-63.016,-22.964c24.071,0.086 76.604,-4.829 89.48,-12.929c-12.454,-8.623 -65.553,-12.939 -89.466,-12.92l62.965,-22.903c34.053,10.042 84.721,35.827 84.721,35.827Zm-0.945,0c-6.394,-3.219 -52.176,-26.037 -83.762,-35.378l-60.588,22.039c17.195,0.173 46.426,2.283 66.86,6.319c9.241,1.826 16.691,4.057 20.457,6.665c0.118,0.082 0.187,0.217 0.184,0.361c-0.003,0.143 -0.078,0.275 -0.199,0.351c-3.891,2.448 -11.373,4.618 -20.601,6.439c-20.425,4.03 -49.436,6.393 -66.709,6.549l60.633,22.095c31.547,-9.368 77.331,-32.216 83.725,-35.44Z" style="fill:url(#_Radial59);"/><path id="Border5" serif:id="Border" d="M450,214.34c-0,0 -50.675,25.819 -84.684,35.889l-63.016,-22.964c24.071,0.086 76.604,-4.829 89.48,-12.929c-12.454,-8.623 -65.553,-12.939 -89.466,-12.92l62.965,-22.903c34.053,10.042 84.721,35.827 84.721,35.827Zm-0.945,0c-6.394,-3.219 -52.176,-26.037 -83.762,-35.378l-60.588,22.039c17.195,0.173 46.426,2.283 66.86,6.319c9.241,1.826 16.691,4.057 20.457,6.665c0.118,0.082 0.187,0.217 0.184,0.361c-0.003,0.143 -0.078,0.275 -0.199,0.351c-3.891,2.448 -11.373,4.618 -20.601,6.439c-20.425,4.03 -49.436,6.393 -66.709,6.549l60.633,22.095c31.547,-9.368 77.331,-32.216 83.725,-35.44Z" style="fill:url(#_Radial60);"/><path id="Border6" serif:id="Border" d="M450,214.34c-0,0 -50.675,25.819 -84.684,35.889l-63.016,-22.964c24.071,0.086 76.604,-4.829 89.48,-12.929c-12.454,-8.623 -65.553,-12.939 -89.466,-12.92l62.965,-22.903c34.053,10.042 84.721,35.827 84.721,35.827Zm-0.945,0c-6.394,-3.219 -52.176,-26.037 -83.762,-35.378l-60.588,22.039c17.195,0.173 46.426,2.283 66.86,6.319c9.241,1.826 16.691,4.057 20.457,6.665c0.118,0.082 0.187,0.217 0.184,0.361c-0.003,0.143 -0.078,0.275 -0.199,0.351c-3.891,2.448 -11.373,4.618 -20.601,6.439c-20.425,4.03 -49.436,6.393 -66.709,6.549l60.633,22.095c31.547,-9.368 77.331,-32.216 83.725,-35.44Z" style="fill:url(#_Radial61);"/><path id="Border7" serif:id="Border" d="M450,214.34c-0,0 -50.675,25.819 -84.684,35.889l-63.016,-22.964c24.071,0.086 76.604,-4.829 89.48,-12.929c-12.454,-8.623 -65.553,-12.939 -89.466,-12.92l62.965,-22.903c34.053,10.042 84.721,35.827 84.721,35.827Zm-0.945,0c-6.394,-3.219 -52.176,-26.037 -83.762,-35.378l-60.588,22.039c17.195,0.173 46.426,2.283 66.86,6.319c9.241,1.826 16.691,4.057 20.457,6.665c0.118,0.082 0.187,0.217 0.184,0.361c-0.003,0.143 -0.078,0.275 -0.199,0.351c-3.891,2.448 -11.373,4.618 -20.601,6.439c-20.425,4.03 -49.436,6.393 -66.709,6.549l60.633,22.095c31.547,-9.368 77.331,-32.216 83.725,-35.44Z" style="fill:url(#_Radial62);"/></g></g><g id="NE2" serif:id="NE"><g id="Color"><path id="Base30" serif:id="Base" d="M386.378,83.979c-6.817,6.835 -20.419,70.494 -36.128,84.285c-15.427,13.542 -39.938,16.159 -56.788,20.666c47.583,-25.263 43.913,-55.867 58.558,-70.596c-14.602,14.696 -44.045,7.743 -69.401,55.283c4.498,-16.764 6.061,-37.951 19.499,-53.543c13.608,-15.789 77.47,-29.3 84.26,-36.095Z" style="fill:#4300c0;"/><path id="Purple" d="M386.378,83.979c-6.817,6.835 -20.419,70.494 -36.128,84.285c-15.427,13.542 -39.938,16.159 -56.789,20.666c47.584,-25.263 43.914,-55.867 58.559,-70.596c-14.602,14.696 -44.045,7.743 -69.401,55.283c4.498,-16.764 6.061,-37.951 19.499,-53.543c13.608,-15.789 77.47,-29.3 84.26,-36.095Z" style="fill:url(#_Radial63);"/><path id="Purple1" serif:id="Purple" d="M386.378,83.979c-6.817,6.835 -20.419,70.494 -36.128,84.285c-15.427,13.542 -39.938,16.159 -56.789,20.666c47.584,-25.263 43.914,-55.867 58.559,-70.596c-14.602,14.696 -44.045,7.743 -69.401,55.283c4.498,-16.764 6.061,-37.951 19.499,-53.543c13.608,-15.789 77.47,-29.3 84.26,-36.095Z" style="fill:url(#_Radial64);"/><path id="Purple2" serif:id="Purple" d="M386.378,83.979c-6.817,6.835 -20.419,70.494 -36.128,84.285c-15.427,13.542 -39.938,16.159 -56.789,20.667c47.584,-25.264 43.914,-55.868 58.559,-70.597c-14.602,14.696 -44.045,7.743 -69.401,55.283c4.498,-16.764 6.061,-37.951 19.499,-53.543c13.608,-15.789 77.47,-29.3 84.26,-36.095Z" style="fill:url(#_Radial65);"/></g><g id="Highlights6" serif:id="Highlights"><path id="Bottom-Border" serif:id="Bottom Border" d="M342.936,124.545c-15.853,7.735 -39.467,9.98 -60.317,49.072c4.498,-16.763 6.061,-37.951 19.499,-53.543c13.608,-15.789 77.47,-29.3 84.26,-36.095c-6.817,6.835 -20.419,70.494 -36.128,84.285c-15.427,13.542 -39.937,16.159 -56.788,20.666c39.313,-20.872 43.641,-45.39 52.216,-61.588c1.803,-3.405 3.793,-6.443 6.336,-9.002c-2.593,2.608 -5.655,4.535 -9.078,6.205Zm3.033,3.093c-2.32,4.401 -4.328,9.415 -6.821,14.801c-6.476,13.994 -16.163,30.485 -42.69,45.315c16.599,-4.053 39.069,-7.098 53.528,-19.791c3.739,-3.282 7.347,-9.42 10.782,-16.937c5.188,-11.357 9.958,-25.855 14.092,-38.522c3.224,-9.878 6.064,-18.645 8.413,-23.956c0.499,-1.127 0.978,-2.101 1.435,-2.902c-1.205,0.685 -2.803,1.421 -4.725,2.2c-7.53,3.05 -20.081,6.843 -33.051,11.187c-11.091,3.714 -22.488,7.831 -31.299,12.234c-5.826,2.912 -10.517,5.941 -13.212,9.069c-12.587,14.604 -14.703,34.141 -18.633,50.311c14.864,-26.454 30.985,-34.997 44.646,-40.566c5.157,-2.103 9.963,-3.772 14.211,-5.833c0.823,-0.316 1.906,-0.906 3.083,-1.636c1.349,-0.787 2.628,-1.645 3.827,-2.605c0.962,-0.706 1.869,-1.409 2.632,-2.037c0.691,-0.569 1.264,-1.075 1.651,-1.466c-0.381,0.413 -0.881,0.994 -1.446,1.683c-0.666,0.812 -1.422,1.774 -2.182,2.79c-0.738,0.928 -1.427,1.904 -2.081,2.924c-0.934,1.395 -1.726,2.721 -2.16,3.737Z" style="fill:url(#_Radial66);"/><path id="Bottom-Border1" serif:id="Bottom Border" d="M342.936,124.545c-15.853,7.735 -39.467,9.98 -60.317,49.072c4.498,-16.763 6.061,-37.951 19.499,-53.543c13.608,-15.789 77.47,-29.3 84.26,-36.095c-6.817,6.835 -20.419,70.494 -36.128,84.285c-15.427,13.542 -39.937,16.159 -56.788,20.666c39.313,-20.872 43.641,-45.39 52.216,-61.588c1.803,-3.405 3.793,-6.443 6.336,-9.002c-2.593,2.608 -5.655,4.535 -9.078,6.205Zm3.033,3.093c-2.32,4.401 -4.328,9.415 -6.821,14.801c-6.476,13.994 -16.163,30.485 -42.69,45.315c16.599,-4.053 39.069,-7.098 53.528,-19.791c3.739,-3.282 7.347,-9.42 10.782,-16.937c5.188,-11.357 9.958,-25.855 14.092,-38.522c3.224,-9.878 6.064,-18.645 8.413,-23.956c0.499,-1.127 0.978,-2.101 1.435,-2.902c-1.205,0.685 -2.803,1.421 -4.725,2.2c-7.53,3.05 -20.081,6.843 -33.051,11.187c-11.091,3.714 -22.488,7.831 -31.299,12.234c-5.826,2.912 -10.517,5.941 -13.212,9.069c-12.587,14.604 -14.703,34.141 -18.633,50.311c14.864,-26.454 30.985,-34.997 44.646,-40.566c5.157,-2.103 9.963,-3.772 14.211,-5.833c0.823,-0.316 1.906,-0.906 3.083,-1.636c1.349,-0.787 2.628,-1.645 3.827,-2.605c0.962,-0.706 1.869,-1.409 2.632,-2.037c0.691,-0.569 1.264,-1.075 1.651,-1.466c-0.381,0.413 -0.881,0.994 -1.446,1.683c-0.666,0.812 -1.422,1.774 -2.182,2.79c-0.738,0.928 -1.427,1.904 -2.081,2.924c-0.934,1.395 -1.726,2.721 -2.16,3.737Z" style="fill:url(#_Radial67);"/><path id="Top-Border10" serif:id="Top Border" d="M342.936,124.545c-15.853,7.735 -39.467,9.98 -60.317,49.072c4.498,-16.763 6.061,-37.951 19.499,-53.543c13.608,-15.789 77.47,-29.3 84.26,-36.095c-6.817,6.835 -20.419,70.494 -36.128,84.285c-15.427,13.542 -39.937,16.159 -56.788,20.666c39.313,-20.872 43.641,-45.39 52.216,-61.588c1.803,-3.405 3.793,-6.443 6.336,-9.002c-2.593,2.608 -5.655,4.535 -9.078,6.205Zm3.033,3.093c-2.32,4.401 -4.328,9.415 -6.821,14.801c-6.476,13.994 -16.163,30.485 -42.69,45.315c16.599,-4.053 39.069,-7.098 53.528,-19.791c3.739,-3.282 7.347,-9.42 10.782,-16.937c5.188,-11.357 9.958,-25.855 14.092,-38.522c3.224,-9.878 6.064,-18.645 8.413,-23.956c0.499,-1.127 0.978,-2.101 1.435,-2.902c-1.205,0.685 -2.803,1.421 -4.725,2.2c-7.53,3.05 -20.081,6.843 -33.051,11.187c-11.091,3.714 -22.488,7.831 -31.299,12.234c-5.826,2.912 -10.517,5.941 -13.212,9.069c-12.587,14.604 -14.703,34.141 -18.633,50.311c14.864,-26.454 30.985,-34.997 44.646,-40.566c5.157,-2.103 9.963,-3.772 14.211,-5.833c0.823,-0.316 1.906,-0.906 3.083,-1.636c1.349,-0.787 2.628,-1.645 3.827,-2.605c0.962,-0.706 1.869,-1.409 2.632,-2.037c0.691,-0.569 1.264,-1.075 1.651,-1.466c-0.381,0.413 -0.881,0.994 -1.446,1.683c-0.666,0.812 -1.422,1.774 -2.182,2.79c-0.738,0.928 -1.427,1.904 -2.081,2.924c-0.934,1.395 -1.726,2.721 -2.16,3.737Z" style="fill:url(#_Radial68);"/></g></g><g id="N"><g id="Colors"><path id="Base31" serif:id="Base" d="M256,20.34c0,0 25.82,50.675 35.89,84.684l-19.648,53.918c0.087,-24.071 -8.144,-67.505 -16.244,-80.381c-8.624,12.453 -16.266,56.407 -16.247,80.32l-19.576,-53.82c10.041,-34.052 35.825,-84.721 35.825,-84.721Z" style="fill:url(#_Linear69);"/><path id="Blue" d="M256,20.34c-0,0 25.82,50.675 35.89,84.684l-19.648,53.918c0.087,-24.071 -8.144,-67.505 -16.244,-80.381c-8.624,12.453 -16.266,56.407 -16.247,80.32l-19.576,-53.82c10.041,-34.052 35.825,-84.721 35.825,-84.721Z" style="fill:url(#_Radial70);"/><path id="Purple3" serif:id="Purple" d="M256,20.34c0,0 25.82,50.675 35.89,84.684l-19.648,53.918c0.087,-24.071 -8.144,-67.505 -16.244,-80.381c-8.624,12.453 -16.266,56.407 -16.247,80.32l-19.576,-53.82c10.041,-34.052 35.825,-84.721 35.825,-84.721Z" style="fill:url(#_Radial71);"/></g><g id="Blend3" serif:id="Blend"><path id="Left-Spill" serif:id="Left Spill" d="M256.002,78.567l-0.002,-58.227c0,0 25.82,50.675 35.89,84.684l-19.648,53.918c0.087,-24.067 -8.141,-67.49 -16.24,-80.375Z" style="fill:url(#_Linear72);"/><path id="Left-Highlight" serif:id="Left Highlight" d="M256.002,78.567c-0.001,-0.002 -0.003,-0.004 -0.004,-0.006c-8.624,12.453 -16.266,56.407 -16.247,80.32l-19.576,-53.82c9.863,-33.447 34.936,-82.924 35.825,-84.673l0.002,58.179Z" style="fill:url(#_Radial73);"/><path id="Left-border-highlight" serif:id="Left border highlight" d="M256.002,78.567l-0.004,-0.006c-8.624,12.453 -16.266,56.407 -16.247,80.32l-19.576,-53.82c9.863,-33.447 34.936,-82.924 35.825,-84.673l0.002,58.179Zm-0.427,-0.145l-0.001,-56.24c-4.489,8.957 -25.965,52.48 -34.95,82.866l18.722,51.47c0.311,-16.827 3.95,-41.873 8.925,-59.75c2.225,-7.998 4.724,-14.566 7.304,-18.346Z" style="fill:url(#_Radial74);"/></g><g id="Highlights7" serif:id="Highlights"><path id="Right-border" serif:id="Right border" d="M256,20.34c0,0 25.82,50.675 35.89,84.684l-19.648,53.918c0.087,-24.071 -8.144,-67.505 -16.244,-80.381c-8.624,12.453 -16.266,56.407 -16.247,80.32l-19.576,-53.82c10.041,-34.052 35.825,-84.721 35.825,-84.721Zm0,0.886c-3.132,6.213 -26.041,52.155 -35.404,83.822l18.774,51.615c0.293,-16.825 3.938,-41.961 8.927,-59.888c2.245,-8.068 4.767,-14.681 7.372,-18.442c0.076,-0.111 0.203,-0.175 0.338,-0.172c0.134,0.003 0.258,0.073 0.329,0.187c7.878,12.522 15.896,53.869 16.292,78.368l18.841,-51.705c-9.389,-31.627 -32.338,-77.571 -35.469,-83.785Z" style="fill:url(#_Radial75);"/><path id="Left-border" serif:id="Left border" d="M256,20.34c0,0 25.82,50.675 35.89,84.684l-19.648,53.918c0.087,-24.071 -8.144,-67.505 -16.244,-80.381c-8.624,12.453 -16.266,56.407 -16.247,80.32l-19.576,-53.82c10.041,-34.052 35.825,-84.721 35.825,-84.721Zm0,0.886c-3.132,6.213 -26.041,52.155 -35.404,83.822l18.774,51.615c0.293,-16.825 3.938,-41.961 8.927,-59.888c2.245,-8.068 4.767,-14.681 7.372,-18.442c0.076,-0.111 0.203,-0.175 0.338,-0.172c0.134,0.003 0.258,0.073 0.329,0.187c7.878,12.522 15.896,53.869 16.292,78.368l18.841,-51.705c-9.389,-31.627 -32.338,-77.571 -35.469,-83.785Z" style="fill:url(#_Radial76);"/></g></g></g><g id="name_white_symbol"><path d="M127.892,462.326l-6.981,0l-2.775,-7.22l-12.705,0l-2.623,7.22l-6.808,0l12.38,-31.784l6.786,0l12.726,31.784Zm-11.816,-12.575l-4.379,-11.794l-4.293,11.794l8.672,0Z" style="fill:#fff;fill-rule:nonzero;"/><path d="M151.299,462.326l0,-31.784l13.507,0c3.397,0 5.865,0.285 7.404,0.856c1.54,0.571 2.772,1.587 3.697,3.047c0.925,1.459 1.387,3.129 1.387,5.008c0,2.385 -0.701,4.354 -2.103,5.908c-1.402,1.554 -3.498,2.533 -6.287,2.938c1.387,0.809 2.533,1.698 3.436,2.666c0.904,0.969 2.121,2.689 3.653,5.16l3.881,6.201l-7.675,0l-4.639,-6.916c-1.648,-2.472 -2.775,-4.029 -3.383,-4.672c-0.607,-0.644 -1.25,-1.084 -1.929,-1.323c-0.679,-0.238 -1.756,-0.358 -3.231,-0.358l-1.3,0l-0,13.269l-6.418,0Zm6.418,-18.342l4.748,0c3.078,0 5.001,-0.13 5.767,-0.39c0.766,-0.26 1.366,-0.708 1.799,-1.344c0.434,-0.636 0.651,-1.431 0.651,-2.385c-0,-1.07 -0.286,-1.933 -0.857,-2.591c-0.571,-0.658 -1.376,-1.073 -2.417,-1.247c-0.52,-0.072 -2.081,-0.108 -4.683,-0.108l-5.008,-0l-0,8.065Z" style="fill:#fff;fill-rule:nonzero;"/><path d="M203.411,462.326l0,-31.784l6.418,0l-0,14.114l12.965,-14.114l8.629,0l-11.968,12.38l12.618,19.404l-8.304,0l-8.737,-14.916l-5.203,5.311l-0,9.605l-6.418,0Z" style="fill:#fff;fill-rule:nonzero;"/><path d="M284.033,462.326l-6.981,0l-2.775,-7.22l-12.705,0l-2.623,7.22l-6.808,0l12.38,-31.784l6.786,0l12.726,31.784Zm-11.816,-12.575l-4.379,-11.794l-4.293,11.794l8.672,0Z" style="fill:#fff;fill-rule:nonzero;"/><path d="M307.483,462.326l0,-31.784l6.244,0l13.009,21.226l-0,-21.226l5.962,0l0,31.784l-6.439,0l-12.814,-20.727l0,20.727l-5.962,0Z" style="fill:#fff;fill-rule:nonzero;"/><rect x="359.27" y="430.542" width="6.418" height="31.784" style="fill:#fff;fill-rule:nonzero;"/><path d="M390.156,451.984l6.245,-0.607c0.375,2.096 1.138,3.635 2.287,4.618c1.149,0.983 2.699,1.475 4.65,1.475c2.067,-0 3.625,-0.438 4.673,-1.312c1.048,-0.875 1.571,-1.897 1.571,-3.068c0,-0.752 -0.22,-1.391 -0.661,-1.919c-0.441,-0.527 -1.21,-0.986 -2.309,-1.376c-0.751,-0.261 -2.464,-0.723 -5.138,-1.388c-3.44,-0.853 -5.854,-1.901 -7.242,-3.144c-1.951,-1.749 -2.926,-3.881 -2.926,-6.396c-0,-1.618 0.458,-3.132 1.376,-4.542c0.918,-1.409 2.241,-2.482 3.968,-3.219c1.727,-0.737 3.812,-1.106 6.255,-1.106c3.989,0 6.992,0.874 9.008,2.623c2.016,1.749 3.075,4.084 3.176,7.003l-6.417,0.282c-0.275,-1.633 -0.864,-2.808 -1.767,-3.523c-0.903,-0.715 -2.259,-1.073 -4.065,-1.073c-1.865,-0 -3.325,0.383 -4.38,1.149c-0.679,0.491 -1.019,1.149 -1.019,1.973c0,0.751 0.318,1.395 0.954,1.929c0.81,0.68 2.775,1.388 5.897,2.125c3.122,0.737 5.431,1.5 6.927,2.287c1.496,0.788 2.667,1.865 3.513,3.231c0.845,1.366 1.268,3.053 1.268,5.062c0,1.822 -0.506,3.527 -1.518,5.117c-1.011,1.59 -2.442,2.772 -4.292,3.545c-1.851,0.773 -4.156,1.16 -6.917,1.16c-4.018,-0 -7.104,-0.929 -9.257,-2.786c-2.154,-1.858 -3.44,-4.564 -3.86,-8.12Z" style="fill:#fff;fill-rule:nonzero;"/><path d="M158.024,482.618l3.111,0.986c-0.477,1.735 -1.27,3.023 -2.38,3.865c-1.109,0.842 -2.517,1.263 -4.222,1.263c-2.11,-0 -3.845,-0.721 -5.203,-2.163c-1.359,-1.442 -2.038,-3.413 -2.038,-5.913c-0,-2.645 0.682,-4.7 2.048,-6.163c1.366,-1.464 3.162,-2.195 5.388,-2.195c1.944,-0 3.523,0.574 4.737,1.723c0.723,0.68 1.265,1.655 1.626,2.927l-3.176,0.759c-0.188,-0.824 -0.58,-1.474 -1.176,-1.951c-0.596,-0.477 -1.321,-0.716 -2.174,-0.716c-1.178,0 -2.133,0.423 -2.867,1.269c-0.733,0.845 -1.1,2.215 -1.1,4.108c-0,2.009 0.361,3.44 1.084,4.293c0.723,0.853 1.662,1.279 2.818,1.279c0.853,0 1.587,-0.271 2.201,-0.813c0.614,-0.542 1.055,-1.395 1.323,-2.558Z" style="fill:#fff;fill-rule:nonzero;"/><path d="M168.788,480.612c0,-1.619 0.242,-2.977 0.726,-4.076c0.362,-0.809 0.855,-1.535 1.48,-2.179c0.625,-0.643 1.31,-1.12 2.054,-1.431c0.99,-0.419 2.132,-0.628 3.426,-0.628c2.341,-0 4.215,0.726 5.621,2.179c1.405,1.452 2.108,3.472 2.108,6.059c0,2.566 -0.697,4.573 -2.092,6.022c-1.395,1.449 -3.259,2.174 -5.594,2.174c-2.363,-0 -4.242,-0.721 -5.637,-2.163c-1.395,-1.442 -2.092,-3.427 -2.092,-5.957Zm3.306,-0.108c0,1.799 0.416,3.164 1.247,4.092c0.831,0.929 1.886,1.393 3.165,1.393c1.28,0 2.329,-0.461 3.15,-1.382c0.82,-0.921 1.23,-2.304 1.23,-4.146c-0,-1.822 -0.399,-3.18 -1.198,-4.076c-0.799,-0.897 -1.859,-1.345 -3.182,-1.345c-1.322,0 -2.388,0.454 -3.198,1.361c-0.809,0.907 -1.214,2.275 -1.214,4.103Z" style="fill:#fff;fill-rule:nonzero;"/><path d="M192.268,488.461l0,-15.892l6.754,-0c1.698,-0 2.932,0.142 3.702,0.428c0.77,0.285 1.386,0.793 1.848,1.523c0.463,0.73 0.694,1.565 0.694,2.504c-0,1.193 -0.351,2.177 -1.052,2.954c-0.701,0.777 -1.748,1.267 -3.143,1.469c0.694,0.405 1.266,0.849 1.718,1.333c0.452,0.485 1.061,1.345 1.827,2.58l1.94,3.101l-3.838,-0l-2.319,-3.458c-0.824,-1.236 -1.388,-2.015 -1.691,-2.336c-0.304,-0.322 -0.626,-0.542 -0.965,-0.662c-0.34,-0.119 -0.878,-0.179 -1.615,-0.179l-0.651,0l0,6.635l-3.209,-0Zm3.209,-9.171l2.374,-0c1.539,-0 2.501,-0.065 2.884,-0.195c0.383,-0.13 0.683,-0.354 0.899,-0.672c0.217,-0.318 0.326,-0.716 0.326,-1.193c-0,-0.535 -0.143,-0.966 -0.429,-1.295c-0.285,-0.329 -0.688,-0.537 -1.208,-0.624c-0.26,-0.036 -1.041,-0.054 -2.342,-0.054l-2.504,0l0,4.033Z" style="fill:#fff;fill-rule:nonzero;"/><path d="M213.841,488.461l-0,-15.892l5.149,-0c1.951,-0 3.223,0.079 3.816,0.238c0.91,0.239 1.673,0.757 2.287,1.556c0.614,0.798 0.922,1.83 0.922,3.095c-0,0.975 -0.178,1.796 -0.532,2.461c-0.354,0.664 -0.804,1.187 -1.349,1.566c-0.546,0.379 -1.101,0.631 -1.664,0.753c-0.766,0.152 -1.876,0.228 -3.328,0.228l-2.092,0l-0,5.995l-3.209,-0Zm3.209,-13.204l-0,4.51l1.756,-0c1.264,-0 2.11,-0.083 2.536,-0.25c0.427,-0.166 0.761,-0.426 1.003,-0.78c0.242,-0.354 0.363,-0.766 0.363,-1.236c0,-0.578 -0.17,-1.055 -0.509,-1.431c-0.34,-0.376 -0.77,-0.61 -1.29,-0.704c-0.383,-0.073 -1.153,-0.109 -2.309,-0.109l-1.55,0Z" style="fill:#fff;fill-rule:nonzero;"/><path d="M233.549,480.612c-0,-1.619 0.242,-2.977 0.726,-4.076c0.361,-0.809 0.854,-1.535 1.48,-2.179c0.625,-0.643 1.31,-1.12 2.054,-1.431c0.99,-0.419 2.132,-0.628 3.425,-0.628c2.342,-0 4.216,0.726 5.621,2.179c1.406,1.452 2.109,3.472 2.109,6.059c-0,2.566 -0.698,4.573 -2.093,6.022c-1.394,1.449 -3.259,2.174 -5.593,2.174c-2.363,-0 -4.242,-0.721 -5.637,-2.163c-1.395,-1.442 -2.092,-3.427 -2.092,-5.957Zm3.306,-0.108c-0,1.799 0.415,3.164 1.247,4.092c0.831,0.929 1.886,1.393 3.165,1.393c1.279,0 2.329,-0.461 3.149,-1.382c0.82,-0.921 1.23,-2.304 1.23,-4.146c0,-1.822 -0.399,-3.18 -1.197,-4.076c-0.799,-0.897 -1.86,-1.345 -3.182,-1.345c-1.323,0 -2.389,0.454 -3.198,1.361c-0.809,0.907 -1.214,2.275 -1.214,4.103Z" style="fill:#fff;fill-rule:nonzero;"/><path d="M257.029,488.461l-0,-15.892l6.753,-0c1.699,-0 2.933,0.142 3.702,0.428c0.77,0.285 1.386,0.793 1.849,1.523c0.462,0.73 0.694,1.565 0.694,2.504c-0,1.193 -0.351,2.177 -1.052,2.954c-0.701,0.777 -1.749,1.267 -3.144,1.469c0.694,0.405 1.267,0.849 1.719,1.333c0.451,0.485 1.06,1.345 1.826,2.58l1.941,3.101l-3.838,-0l-2.32,-3.458c-0.824,-1.236 -1.387,-2.015 -1.691,-2.336c-0.303,-0.322 -0.625,-0.542 -0.965,-0.662c-0.339,-0.119 -0.878,-0.179 -1.615,-0.179l-0.65,0l-0,6.635l-3.209,-0Zm3.209,-9.171l2.374,-0c1.539,-0 2.5,-0.065 2.883,-0.195c0.383,-0.13 0.683,-0.354 0.9,-0.672c0.217,-0.318 0.325,-0.716 0.325,-1.193c0,-0.535 -0.142,-0.966 -0.428,-1.295c-0.285,-0.329 -0.688,-0.537 -1.209,-0.624c-0.26,-0.036 -1.04,-0.054 -2.341,-0.054l-2.504,0l-0,4.033Z" style="fill:#fff;fill-rule:nonzero;"/><path d="M292.932,488.461l-3.49,-0l-1.388,-3.61l-6.352,-0l-1.312,3.61l-3.404,-0l6.19,-15.892l3.393,-0l6.363,15.892Zm-5.908,-6.288l-2.189,-5.897l-2.147,5.897l4.336,0Z" style="fill:#fff;fill-rule:nonzero;"/><path d="M302.114,488.461l0,-13.204l-4.715,0l-0,-2.688l12.629,-0l-0,2.688l-4.705,0l-0,13.204l-3.209,-0Z" style="fill:#fff;fill-rule:nonzero;"/><rect x="317.551" y="472.569" width="3.209" height="15.892" style="fill:#fff;fill-rule:nonzero;"/><path d="M328.716,480.612c0,-1.619 0.243,-2.977 0.727,-4.076c0.361,-0.809 0.854,-1.535 1.48,-2.179c0.625,-0.643 1.309,-1.12 2.054,-1.431c0.99,-0.419 2.132,-0.628 3.425,-0.628c2.342,-0 4.215,0.726 5.621,2.179c1.406,1.452 2.109,3.472 2.109,6.059c-0,2.566 -0.698,4.573 -2.093,6.022c-1.394,1.449 -3.259,2.174 -5.593,2.174c-2.364,-0 -4.243,-0.721 -5.637,-2.163c-1.395,-1.442 -2.093,-3.427 -2.093,-5.957Zm3.307,-0.108c-0,1.799 0.415,3.164 1.246,4.092c0.832,0.929 1.887,1.393 3.166,1.393c1.279,0 2.329,-0.461 3.149,-1.382c0.82,-0.921 1.23,-2.304 1.23,-4.146c0,-1.822 -0.399,-3.18 -1.197,-4.076c-0.799,-0.897 -1.86,-1.345 -3.182,-1.345c-1.323,0 -2.389,0.454 -3.198,1.361c-0.809,0.907 -1.214,2.275 -1.214,4.103Z" style="fill:#fff;fill-rule:nonzero;"/><path d="M352.218,488.461l0,-15.892l3.123,-0l6.504,10.612l-0,-10.612l2.981,-0l-0,15.892l-3.22,-0l-6.406,-10.364l-0,10.364l-2.982,-0Z" style="fill:#fff;fill-rule:nonzero;"/><rect x="400.015" y="478.517" width="15.985" height="3.996" style="fill:#fff;"/><rect x="96" y="478.517" width="15.985" height="3.996" style="fill:#fff;"/></g></g></g><defs><radialGradient id="_Radial1" cx="0" cy="0" r="1" gradientUnits="userSpaceOnUse" gradientTransform="matrix(49.5957,-71.8516,51.1936,70.7707,214.036,231.69)"><stop offset="0" style="stop-color:#38ffff;stop-opacity:1"/><stop offset="0.52" style="stop-color:#2bc7f2;stop-opacity:1"/><stop offset="1" style="stop-color:#0015ca;stop-opacity:1"/></radialGradient><radialGradient id="_Radial2" cx="0" cy="0" r="1" gradientUnits="userSpaceOnUse" gradientTransform="matrix(35.9308,60.0836,-27.4241,33.1304,226.153,214.495)"><stop offset="0" style="stop-color:#0015ca;stop-opacity:1"/><stop offset="1" style="stop-color:#000;stop-opacity:1"/></radialGradient><radialGradient id="_Radial3" cx="0" cy="0" r="1" gradientUnits="userSpaceOnUse" gradientTransform="matrix(-41.07,59.8627,-30.2957,-41.6318,285.797,214.482)"><stop offset="0" style="stop-color:#4300c0;stop-opacity:1"/><stop offset="0.5" style="stop-color:#32008f;stop-opacity:1"/><stop offset="1" style="stop-color:#000;stop-opacity:1"/></radialGradient><radialGradient id="_Radial4" cx="0" cy="0" r="1" gradientUnits="userSpaceOnUse" gradientTransform="matrix(-37.0663,-50.689,35.4053,-51.8628,289.183,216.229)"><stop offset="0" style="stop-color:#ff50e5;stop-opacity:1"/><stop offset="1" style="stop-color:#4300c0;stop-opacity:1"/></radialGradient><radialGradient id="_Radial5" cx="0" cy="0" r="1" gradientUnits="userSpaceOnUse" gradientTransform="matrix(35.8013,-0.492045,0.558192,40.614,228.673,203.03)"><stop offset="0" style="stop-color:#38ffff;stop-opacity:1"/><stop offset="0.65" style="stop-color:#38ffff;stop-opacity:0.86"/><stop offset="1" style="stop-color:#38ffff;stop-opacity:0"/></radialGradient><radialGradient id="_Radial6" cx="0" cy="0" r="1" gradientUnits="userSpaceOnUse" gradientTransform="matrix(-16.1809,11.9157,-17.9363,-24.3564,226.421,226.198)"><stop offset="0" style="stop-color:#38ffff;stop-opacity:0.3"/><stop offset="0.65" style="stop-color:#38ffff;stop-opacity:0.25"/><stop offset="1" style="stop-color:#38ffff;stop-opacity:0"/></radialGradient><radialGradient id="_Radial7" cx="0" cy="0" r="1" gradientUnits="userSpaceOnUse" gradientTransform="matrix(-16.1809,11.9157,-17.9363,-24.3564,273.249,236.637)"><stop offset="0" style="stop-color:#38ffff;stop-opacity:0.1"/><stop offset="0.65" style="stop-color:#38ffff;stop-opacity:0.08"/><stop offset="1" style="stop-color:#38ffff;stop-opacity:0"/></radialGradient><radialGradient id="_Radial8" cx="0" cy="0" r="1" gradientUnits="userSpaceOnUse" gradientTransform="matrix(-19.4068,32.1174,-16.6985,-10.09,288.827,231.571)"><stop offset="0" style="stop-color:#ff50e5;stop-opacity:0.6"/><stop offset="0.65" style="stop-color:#ff50e5;stop-opacity:0.51"/><stop offset="1" style="stop-color:#ff50e5;stop-opacity:0"/></radialGradient><radialGradient id="_Radial9" cx="0" cy="0" r="1" gradientUnits="userSpaceOnUse" gradientTransform="matrix(-19.4068,32.1174,-16.6985,-10.09,238.527,243.215)"><stop offset="0" style="stop-color:#ff50e5;stop-opacity:0.21"/><stop offset="0.65" style="stop-color:#ff50e5;stop-opacity:0.18"/><stop offset="1" style="stop-color:#ff50e5;stop-opacity:0"/></radialGradient><radialGradient id="_Radial10" cx="0" cy="0" r="1" gradientUnits="userSpaceOnUse" gradientTransform="matrix(-29.0081,-33.7069,27.9057,-24.0155,289.745,206.366)"><stop offset="0" style="stop-color:#ff50e5;stop-opacity:1"/><stop offset="0.65" style="stop-color:#ff50e5;stop-opacity:0.86"/><stop offset="1" style="stop-color:#ff50e5;stop-opacity:0"/></radialGradient><radialGradient id="_Radial11" cx="0" cy="0" r="1" gradientUnits="userSpaceOnUse" gradientTransform="matrix(-95.147,-69.1041,22.8714,-31.4907,211.584,111.344)"><stop offset="0" style="stop-color:#38ffff;stop-opacity:1"/><stop offset="1" style="stop-color:#38ffff;stop-opacity:0"/></radialGradient><radialGradient id="_Radial12" cx="0" cy="0" r="1" gradientUnits="userSpaceOnUse" gradientTransform="matrix(-80.0503,-60.5776,18.5666,-24.5347,138.924,136.803)"><stop offset="0" style="stop-color:#38ffff;stop-opacity:1"/><stop offset="1" style="stop-color:#38ffff;stop-opacity:0"/></radialGradient><radialGradient id="_Radial13" cx="0" cy="0" r="1" gradientUnits="userSpaceOnUse" gradientTransform="matrix(-74.5174,-73.2476,36.5881,-37.2223,127.847,92.1037)"><stop offset="0" style="stop-color:#38ffff;stop-opacity:1"/><stop offset="0.44" style="stop-color:#38ffff;stop-opacity:0.7"/><stop offset="1" style="stop-color:#38ffff;stop-opacity:0"/></radialGradient><radialGradient id="_Radial14" cx="0" cy="0" r="1" gradientUnits="userSpaceOnUse" gradientTransform="matrix(-24.1759,36.889,79.8418,52.3258,229.003,118.714)"><stop offset="0" style="stop-color:#38ffff;stop-opacity:1"/><stop offset="0.65" style="stop-color:#38ffff;stop-opacity:0.85"/><stop offset="1" style="stop-color:#38ffff;stop-opacity:0"/></radialGradient><radialGradient id="_Radial15" cx="0" cy="0" r="1" gradientUnits="userSpaceOnUse" gradientTransform="matrix(-5.4521,11.9191,55.5432,25.4068,106.367,85.8105)"><stop offset="0" style="stop-color:#38ffff;stop-opacity:1"/><stop offset="0.65" style="stop-color:#38ffff;stop-opacity:0.86"/><stop offset="1" style="stop-color:#38ffff;stop-opacity:0"/></radialGradient><radialGradient id="_Radial16" cx="0" cy="0" r="1" gradientUnits="userSpaceOnUse" gradientTransform="matrix(-19.1884,35.1897,59.7548,32.5832,135.93,154.31)"><stop offset="0" style="stop-color:#38ffff;stop-opacity:1"/><stop offset="0.64" style="stop-color:#38ffff;stop-opacity:0.85"/><stop offset="0.83" style="stop-color:#38ffff;stop-opacity:0.45"/><stop offset="1" style="stop-color:#38ffff;stop-opacity:0"/></radialGradient><radialGradient id="_Radial17" cx="0" cy="0" r="1" gradientUnits="userSpaceOnUse" gradientTransform="matrix(-11.1679,7.945,37.9154,53.2954,125.235,103.895)"><stop offset="0" style="stop-color:#38ffff;stop-opacity:1"/><stop offset="0.64" style="stop-color:#38ffff;stop-opacity:0.85"/><stop offset="0.83" style="stop-color:#38ffff;stop-opacity:0.45"/><stop offset="1" style="stop-color:#38ffff;stop-opacity:0"/></radialGradient><radialGradient id="_Radial18" cx="0" cy="0" r="1" gradientUnits="userSpaceOnUse" gradientTransform="matrix(-79.0043,14.3922,6.78914,37.268,138.938,251.887)"><stop offset="0" style="stop-color:#38ffff;stop-opacity:1"/><stop offset="1" style="stop-color:#38ffff;stop-opacity:0"/></radialGradient><radialGradient id="_Radial19" cx="0" cy="0" r="1" gradientUnits="userSpaceOnUse" gradientTransform="matrix(-83.2711,-0.541314,-0.246248,37.8805,75.4197,223.328)"><stop offset="0" style="stop-color:#38ffff;stop-opacity:1"/><stop offset="1" style="stop-color:#38ffff;stop-opacity:0"/></radialGradient><radialGradient id="_Radial20" cx="0" cy="0" r="1" gradientUnits="userSpaceOnUse" gradientTransform="matrix(11.9464,73.028,143.347,-26.647,75.684,202.496)"><stop offset="0" style="stop-color:#38ffff;stop-opacity:1"/><stop offset="1" style="stop-color:#38ffff;stop-opacity:0"/></radialGradient><radialGradient id="_Radial22" cx="0" cy="0" r="1" gradientUnits="userSpaceOnUse" gradientTransform="matrix(-9.32859,-60.086,-239.643,37.2054,70.5757,177.429)"><stop offset="0" style="stop-color:#0015ca;stop-opacity:0.6"/><stop offset="0.45" style="stop-color:#0015ca;stop-opacity:0.42"/><stop offset="1" style="stop-color:#0015ca;stop-opacity:0"/></radialGradient><radialGradient id="_Radial23" cx="0" cy="0" r="1" gradientUnits="userSpaceOnUse" gradientTransform="matrix(-31.5167,0.171031,0.0874729,16.119,94.1215,215.391)"><stop offset="0" style="stop-color:#38ffff;stop-opacity:0.61"/><stop offset="0.61" style="stop-color:#38ffff;stop-opacity:0.51"/><stop offset="0.82" style="stop-color:#38ffff;stop-opacity:0.26"/><stop offset="1" style="stop-color:#38ffff;stop-opacity:0"/></radialGradient><radialGradient id="_Radial24" cx="0" cy="0" r="1" gradientUnits="userSpaceOnUse" gradientTransform="matrix(-81.8196,4.42398,1.30233,24.0859,138.593,246.397)"><stop offset="0" style="stop-color:#38ffff;stop-opacity:1"/><stop offset="0.58" style="stop-color:#38ffff;stop-opacity:0.81"/><stop offset="0.8" style="stop-color:#38ffff;stop-opacity:0.4"/><stop offset="1" style="stop-color:#38ffff;stop-opacity:0"/></radialGradient><radialGradient id="_Radial25" cx="0" cy="0" r="1" gradientUnits="userSpaceOnUse" gradientTransform="matrix(-103.866,3.92856,1.32743,35.0955,158.054,179.109)"><stop offset="0" style="stop-color:#38ffff;stop-opacity:1"/><stop offset="1" style="stop-color:#38ffff;stop-opacity:0"/></radialGradient><radialGradient id="_Radial26" cx="0" cy="0" r="1" gradientUnits="userSpaceOnUse" gradientTransform="matrix(45.2319,40.9287,32.225,-35.613,99.4551,193.597)"><stop offset="0" style="stop-color:#38ffff;stop-opacity:1"/><stop offset="0.55" style="stop-color:#38ffff;stop-opacity:0.79"/><stop offset="1" style="stop-color:#38ffff;stop-opacity:0"/></radialGradient><radialGradient id="_Radial27" cx="0" cy="0" r="1" gradientUnits="userSpaceOnUse" gradientTransform="matrix(3.78655,14.1409,46.3941,-12.423,148.482,208.659)"><stop offset="0" style="stop-color:#38ffff;stop-opacity:1"/><stop offset="0.47" style="stop-color:#38ffff;stop-opacity:0.73"/><stop offset="1" style="stop-color:#38ffff;stop-opacity:0"/></radialGradient><radialGradient id="_Radial28" cx="0" cy="0" r="1" gradientUnits="userSpaceOnUse" gradientTransform="matrix(-82.0399,79.7839,27.1343,27.9014,188.473,324.992)"><stop offset="0" style="stop-color:#38ffff;stop-opacity:1"/><stop offset="1" style="stop-color:#38ffff;stop-opacity:0"/></radialGradient><radialGradient id="_Radial29" cx="0" cy="0" r="1" gradientUnits="userSpaceOnUse" gradientTransform="matrix(-82.0399,79.7839,27.1343,27.9014,148.98,336.107)"><stop offset="0" style="stop-color:#38ffff;stop-opacity:1"/><stop offset="1" style="stop-color:#38ffff;stop-opacity:0"/></radialGradient><radialGradient id="_Radial30" cx="0" cy="0" r="1" gradientUnits="userSpaceOnUse" gradientTransform="matrix(-79.481,87.4039,19.45,17.6869,130.525,331.233)"><stop offset="0" style="stop-color:#38ffff;stop-opacity:1"/><stop offset="1" style="stop-color:#38ffff;stop-opacity:0"/></radialGradient><radialGradient id="_Radial31" cx="0" cy="0" r="1" gradientUnits="userSpaceOnUse" gradientTransform="matrix(-49.5535,34.1455,26.311,38.1836,138.17,268.922)"><stop offset="0" style="stop-color:#38ffff;stop-opacity:1"/><stop offset="1" style="stop-color:#38ffff;stop-opacity:0"/></radialGradient><radialGradient id="_Radial32" cx="0" cy="0" r="1" gradientUnits="userSpaceOnUse" gradientTransform="matrix(-19.1884,-35.1897,59.7548,-32.5832,216.42,317.535)"><stop offset="0" style="stop-color:#38ffff;stop-opacity:1"/><stop offset="0.65" style="stop-color:#38ffff;stop-opacity:0.85"/><stop offset="1" style="stop-color:#38ffff;stop-opacity:0"/></radialGradient><radialGradient id="_Radial33" cx="0" cy="0" r="1" gradientUnits="userSpaceOnUse" gradientTransform="matrix(-5.4521,-11.9191,55.5432,-25.4068,110.445,312.456)"><stop offset="0" style="stop-color:#38ffff;stop-opacity:1"/><stop offset="0.65" style="stop-color:#38ffff;stop-opacity:0.86"/><stop offset="1" style="stop-color:#38ffff;stop-opacity:0"/></radialGradient><radialGradient id="_Radial34" cx="0" cy="0" r="1" gradientUnits="userSpaceOnUse" gradientTransform="matrix(-19.1884,-35.1897,59.7548,-32.5832,135.93,274.366)"><stop offset="0" style="stop-color:#38ffff;stop-opacity:1"/><stop offset="0.64" style="stop-color:#38ffff;stop-opacity:0.85"/><stop offset="0.83" style="stop-color:#38ffff;stop-opacity:0.45"/><stop offset="1" style="stop-color:#38ffff;stop-opacity:0"/></radialGradient><linearGradient id="_Linear35" x1="0" y1="0" x2="1" y2="0" gradientUnits="userSpaceOnUse" gradientTransform="matrix(72.5792,-0.20217,0.20217,72.5791,219.919,323.466)"><stop offset="0" style="stop-color:#0015ca;stop-opacity:1"/><stop offset="1" style="stop-color:#4300c0;stop-opacity:1"/></linearGradient><radialGradient id="_Radial36" cx="0" cy="0" r="1" gradientUnits="userSpaceOnUse" gradientTransform="matrix(27.8886,89.0941,-46.0943,14.4286,219.705,326.639)"><stop offset="0" style="stop-color:#38ffff;stop-opacity:1"/><stop offset="1" style="stop-color:#38ffff;stop-opacity:0"/></radialGradient><radialGradient id="_Radial37" cx="0" cy="0" r="1" gradientUnits="userSpaceOnUse" gradientTransform="matrix(11.5379,-107.111,55.4158,5.9693,292.511,356.176)"><stop offset="0" style="stop-color:#ff50e5;stop-opacity:1"/><stop offset="1" style="stop-color:#ff50e5;stop-opacity:0"/></radialGradient><radialGradient id="_Radial38" cx="0" cy="0" r="1" gradientUnits="userSpaceOnUse" gradientTransform="matrix(50.6911,-2.24931,2.95259,66.5401,241.582,385.704)"><stop offset="0" style="stop-color:#ff50e5;stop-opacity:1"/><stop offset="0.19" style="stop-color:#ff50e5;stop-opacity:0.58"/><stop offset="0.4" style="stop-color:#ff50e5;stop-opacity:0.18"/><stop offset="1" style="stop-color:#ff50e5;stop-opacity:0"/></radialGradient><radialGradient id="_Radial39" cx="0" cy="0" r="1" gradientUnits="userSpaceOnUse" gradientTransform="matrix(26.2463,-1.80486,4.56945,66.4487,268.399,408.187)"><stop offset="0" style="stop-color:#ff50e5;stop-opacity:0.54"/><stop offset="0.46" style="stop-color:#ff50e5;stop-opacity:0.39"/><stop offset="1" style="stop-color:#ff50e5;stop-opacity:0"/></radialGradient><radialGradient id="_Radial40" cx="0" cy="0" r="1" gradientUnits="userSpaceOnUse" gradientTransform="matrix(76.4671,13.7162,-34.9032,194.582,288.937,386.488)"><stop offset="0" style="stop-color:#ff50e5;stop-opacity:1"/><stop offset="0.19" style="stop-color:#b22fd6;stop-opacity:0.59"/><stop offset="0.41" style="stop-color:#650fc7;stop-opacity:0.18"/><stop offset="1" style="stop-color:#4300c0;stop-opacity:0"/></radialGradient><radialGradient id="_Radial41" cx="0" cy="0" r="1" gradientUnits="userSpaceOnUse" gradientTransform="matrix(-0.170904,31.0384,-16.119,-0.0862103,254.709,376.086)"><stop offset="0" style="stop-color:#ff50e5;stop-opacity:0.65"/><stop offset="0.55" style="stop-color:#ff50e5;stop-opacity:0.52"/><stop offset="1" style="stop-color:#ff50e5;stop-opacity:0"/></radialGradient><radialGradient id="_Radial42" cx="0" cy="0" r="1" gradientUnits="userSpaceOnUse" gradientTransform="matrix(-1.1143e-14,69.2917,-35.8492,-5.76498e-15,217.962,334.002)"><stop offset="0" style="stop-color:#38ffff;stop-opacity:1"/><stop offset="0.44" style="stop-color:#38ffff;stop-opacity:0.7"/><stop offset="1" style="stop-color:#38ffff;stop-opacity:0"/></radialGradient><radialGradient id="_Radial43" cx="0" cy="0" r="1" gradientUnits="userSpaceOnUse" gradientTransform="matrix(1.97698e-15,32.2865,-16.7039,1.02282e-15,238.535,333.873)"><stop offset="0" style="stop-color:#38ffff;stop-opacity:1"/><stop offset="0.44" style="stop-color:#38ffff;stop-opacity:0.7"/><stop offset="1" style="stop-color:#38ffff;stop-opacity:0"/></radialGradient><radialGradient id="_Radial44" cx="0" cy="0" r="1" gradientUnits="userSpaceOnUse" gradientTransform="matrix(-1.1143e-14,69.2917,-35.8492,-5.76498e-15,285.276,373.563)"><stop offset="0" style="stop-color:#ff50e5;stop-opacity:1"/><stop offset="0.61" style="stop-color:#ff50e5;stop-opacity:0.83"/><stop offset="0.82" style="stop-color:#ff50e5;stop-opacity:0.43"/><stop offset="1" style="stop-color:#ff50e5;stop-opacity:0"/></radialGradient><radialGradient id="_Radial45" cx="0" cy="0" r="1" gradientUnits="userSpaceOnUse" gradientTransform="matrix(-1.1143e-14,69.2917,-35.8492,-5.76498e-15,293.861,336.306)"><stop offset="0" style="stop-color:#ff50e5;stop-opacity:1"/><stop offset="0.61" style="stop-color:#ff50e5;stop-opacity:0.83"/><stop offset="0.82" style="stop-color:#ff50e5;stop-opacity:0.43"/><stop offset="1" style="stop-color:#ff50e5;stop-opacity:0"/></radialGradient><radialGradient id="_Radial46" cx="0" cy="0" r="1" gradientUnits="userSpaceOnUse" gradientTransform="matrix(0.806522,66.834,-40.164,0.484679,316.14,325.527)"><stop offset="0" style="stop-color:#ff50e5;stop-opacity:1"/><stop offset="1" style="stop-color:#ff50e5;stop-opacity:0"/></radialGradient><radialGradient id="_Radial47" cx="0" cy="0" r="1" gradientUnits="userSpaceOnUse" gradientTransform="matrix(80.0503,60.5776,-18.5666,24.5347,402.124,311.602)"><stop offset="0" style="stop-color:#ff50e5;stop-opacity:1"/><stop offset="0.52" style="stop-color:#ff50e5;stop-opacity:0.76"/><stop offset="1" style="stop-color:#ff50e5;stop-opacity:0"/></radialGradient><radialGradient id="_Radial48" cx="0" cy="0" r="1" gradientUnits="userSpaceOnUse" gradientTransform="matrix(80.0503,60.5776,-18.5666,24.5347,401.413,302.713)"><stop offset="0" style="stop-color:#ff50e5;stop-opacity:1"/><stop offset="0.51" style="stop-color:#ff50e5;stop-opacity:0.26"/><stop offset="1" style="stop-color:#ff50e5;stop-opacity:0"/></radialGradient><radialGradient id="_Radial49" cx="0" cy="0" r="1" gradientUnits="userSpaceOnUse" gradientTransform="matrix(78.6866,79.7228,-38.2445,37.7472,391.138,347.14)"><stop offset="0" style="stop-color:#ff50e5;stop-opacity:1"/><stop offset="0.52" style="stop-color:#ff50e5;stop-opacity:0.76"/><stop offset="1" style="stop-color:#ff50e5;stop-opacity:0"/></radialGradient><radialGradient id="_Radial50" cx="0" cy="0" r="1" gradientUnits="userSpaceOnUse" gradientTransform="matrix(19.1884,-35.1897,-59.7548,-32.5832,303.968,317.535)"><stop offset="0" style="stop-color:#ff50e5;stop-opacity:1"/><stop offset="0.65" style="stop-color:#ff50e5;stop-opacity:0.85"/><stop offset="1" style="stop-color:#ff50e5;stop-opacity:0"/></radialGradient><radialGradient id="_Radial51" cx="0" cy="0" r="1" gradientUnits="userSpaceOnUse" gradientTransform="matrix(19.1884,-35.1897,-59.7548,-32.5832,392.334,315.152)"><stop offset="0" style="stop-color:#ff50e5;stop-opacity:1"/><stop offset="0.65" style="stop-color:#ff50e5;stop-opacity:0.86"/><stop offset="1" style="stop-color:#ff50e5;stop-opacity:0"/></radialGradient><radialGradient id="_Radial52" cx="0" cy="0" r="1" gradientUnits="userSpaceOnUse" gradientTransform="matrix(4.21556,-39.859,-76.1106,-8.04956,372.5,285.699)"><stop offset="0" style="stop-color:#ff50e5;stop-opacity:1"/><stop offset="0.64" style="stop-color:#ff50e5;stop-opacity:0.85"/><stop offset="0.83" style="stop-color:#ff50e5;stop-opacity:0.45"/><stop offset="1" style="stop-color:#ff50e5;stop-opacity:0"/></radialGradient><radialGradient id="_Radial53" cx="0" cy="0" r="1" gradientUnits="userSpaceOnUse" gradientTransform="matrix(73.8464,0.739006,-0.379073,37.8794,377.338,253.925)"><stop offset="0" style="stop-color:#ff50e5;stop-opacity:1"/><stop offset="1" style="stop-color:#ff50e5;stop-opacity:0"/></radialGradient><radialGradient id="_Radial54" cx="0" cy="0" r="1" gradientUnits="userSpaceOnUse" gradientTransform="matrix(-11.9464,73.028,-143.347,-26.647,385.853,181.663)"><stop offset="0" style="stop-color:#ff50e5;stop-opacity:1"/><stop offset="1" style="stop-color:#ff50e5;stop-opacity:0"/></radialGradient><radialGradient id="_Radial55" cx="0" cy="0" r="1" gradientUnits="userSpaceOnUse" gradientTransform="matrix(73.6417,-7.26147,1.72174,22.4203,453.41,215.086)"><stop offset="0" style="stop-color:#ff50e5;stop-opacity:1"/><stop offset="1" style="stop-color:#ff50e5;stop-opacity:0"/></radialGradient><radialGradient id="_Radial57" cx="0" cy="0" r="1" gradientUnits="userSpaceOnUse" gradientTransform="matrix(-3.46695,-52.8354,100.205,-6.57521,444.553,199.049)"><stop offset="0" style="stop-color:#4300c0;stop-opacity:0.6"/><stop offset="0.49" style="stop-color:#4300c0;stop-opacity:0.15"/><stop offset="1" style="stop-color:#4300c0;stop-opacity:0"/></radialGradient><radialGradient id="_Radial58" cx="0" cy="0" r="1" gradientUnits="userSpaceOnUse" gradientTransform="matrix(31.5167,0.171031,-0.0874729,16.119,417.878,215.391)"><stop offset="0" style="stop-color:#ff50e5;stop-opacity:0.61"/><stop offset="0.61" style="stop-color:#ff50e5;stop-opacity:0.51"/><stop offset="0.82" style="stop-color:#ff50e5;stop-opacity:0.26"/><stop offset="1" style="stop-color:#ff50e5;stop-opacity:0"/></radialGradient><radialGradient id="_Radial59" cx="0" cy="0" r="1" gradientUnits="userSpaceOnUse" gradientTransform="matrix(49.6586,1.38993,-0.67488,24.1116,374.282,254.351)"><stop offset="0" style="stop-color:#ff50e5;stop-opacity:1"/><stop offset="0.58" style="stop-color:#ff50e5;stop-opacity:0.81"/><stop offset="0.8" style="stop-color:#ff50e5;stop-opacity:0.4"/><stop offset="1" style="stop-color:#ff50e5;stop-opacity:0"/></radialGradient><radialGradient id="_Radial60" cx="0" cy="0" r="1" gradientUnits="userSpaceOnUse" gradientTransform="matrix(103.866,3.92856,-1.32743,35.0955,353.946,179.109)"><stop offset="0" style="stop-color:#ff50e5;stop-opacity:1"/><stop offset="1" style="stop-color:#ff50e5;stop-opacity:0"/></radialGradient><radialGradient id="_Radial61" cx="0" cy="0" r="1" gradientUnits="userSpaceOnUse" gradientTransform="matrix(-45.2319,40.9287,-32.225,-35.613,412.545,193.597)"><stop offset="0" style="stop-color:#ff50e5;stop-opacity:1"/><stop offset="0.55" style="stop-color:#ff50e5;stop-opacity:0.79"/><stop offset="1" style="stop-color:#ff50e5;stop-opacity:0"/></radialGradient><radialGradient id="_Radial62" cx="0" cy="0" r="1" gradientUnits="userSpaceOnUse" gradientTransform="matrix(-3.78655,14.1409,-46.3941,-12.423,363.518,208.659)"><stop offset="0" style="stop-color:#ff50e5;stop-opacity:1"/><stop offset="0.47" style="stop-color:#ff50e5;stop-opacity:0.73"/><stop offset="1" style="stop-color:#ff50e5;stop-opacity:0"/></radialGradient><radialGradient id="_Radial63" cx="0" cy="0" r="1" gradientUnits="userSpaceOnUse" gradientTransform="matrix(49.4555,47.0282,-47.0283,49.4555,376.517,145.074)"><stop offset="0" style="stop-color:#ff50e5;stop-opacity:1"/><stop offset="0.47" style="stop-color:#ff50e5;stop-opacity:0.72"/><stop offset="1" style="stop-color:#ff50e5;stop-opacity:0"/></radialGradient><radialGradient id="_Radial64" cx="0" cy="0" r="1" gradientUnits="userSpaceOnUse" gradientTransform="matrix(49.4555,47.0282,-47.0283,49.4555,391.095,91.3848)"><stop offset="0" style="stop-color:#ff50e5;stop-opacity:1"/><stop offset="0.47" style="stop-color:#ff50e5;stop-opacity:0.72"/><stop offset="1" style="stop-color:#ff50e5;stop-opacity:0"/></radialGradient><radialGradient id="_Radial65" cx="0" cy="0" r="1" gradientUnits="userSpaceOnUse" gradientTransform="matrix(13.0199,31.1721,-92.2035,38.5113,300.159,109.712)"><stop offset="0" style="stop-color:#ff50e5;stop-opacity:1"/><stop offset="0.47" style="stop-color:#ff50e5;stop-opacity:0.72"/><stop offset="1" style="stop-color:#ff50e5;stop-opacity:0"/></radialGradient><radialGradient id="_Radial66" cx="0" cy="0" r="1" gradientUnits="userSpaceOnUse" gradientTransform="matrix(62.8602,-46.31,46.8421,63.5823,364.03,148.824)"><stop offset="0" style="stop-color:#ff50e5;stop-opacity:1"/><stop offset="1" style="stop-color:#ff50e5;stop-opacity:0"/></radialGradient><radialGradient id="_Radial67" cx="0" cy="0" r="1" gradientUnits="userSpaceOnUse" gradientTransform="matrix(31.6371,-71.38,9.03772,4.00569,378.911,109.481)"><stop offset="0" style="stop-color:#ff50e5;stop-opacity:1"/><stop offset="1" style="stop-color:#ff50e5;stop-opacity:0"/></radialGradient><radialGradient id="_Radial68" cx="0" cy="0" r="1" gradientUnits="userSpaceOnUse" gradientTransform="matrix(19.1884,35.1897,-59.7548,32.5832,313.116,107.738)"><stop offset="0" style="stop-color:#ff50e5;stop-opacity:1"/><stop offset="0.51" style="stop-color:#ff50e5;stop-opacity:0.76"/><stop offset="1" style="stop-color:#ff50e5;stop-opacity:0"/></radialGradient><linearGradient id="_Linear69" x1="0" y1="0" x2="1" y2="0" gradientUnits="userSpaceOnUse" gradientTransform="matrix(72.0094,-0.20217,0.20217,72.0093,219.819,105.092)"><stop offset="0" style="stop-color:#0015ca;stop-opacity:1"/><stop offset="1" style="stop-color:#4300c0;stop-opacity:1"/></linearGradient><radialGradient id="_Radial70" cx="0" cy="0" r="1" gradientUnits="userSpaceOnUse" gradientTransform="matrix(42.9721,11.1712,-21.5902,83.0502,221.763,79.3848)"><stop offset="0" style="stop-color:#38ffff;stop-opacity:1"/><stop offset="0.46" style="stop-color:#38ffff;stop-opacity:0.72"/><stop offset="1" style="stop-color:#38ffff;stop-opacity:0"/></radialGradient><radialGradient id="_Radial71" cx="0" cy="0" r="1" gradientUnits="userSpaceOnUse" gradientTransform="matrix(60.8767,-5.82551,11.2587,117.654,298.454,85.0871)"><stop offset="0" style="stop-color:#ff50e5;stop-opacity:0.8"/><stop offset="1" style="stop-color:#ff50e5;stop-opacity:0"/></radialGradient><linearGradient id="_Linear72" x1="0" y1="0" x2="1" y2="0" gradientUnits="userSpaceOnUse" gradientTransform="matrix(8.34004,0.90835,-0.908351,8.34002,254.402,52.5226)"><stop offset="0" style="stop-color:#0015ca;stop-opacity:0.36"/><stop offset="1" style="stop-color:#0015ca;stop-opacity:0"/></linearGradient><radialGradient id="_Radial73" cx="0" cy="0" r="1" gradientUnits="userSpaceOnUse" gradientTransform="matrix(12.0653,-0.233019,0.900761,46.6396,256.938,56.5681)"><stop offset="0" style="stop-color:#38ffff;stop-opacity:0.2"/><stop offset="1" style="stop-color:#38ffff;stop-opacity:0"/></radialGradient><radialGradient id="_Radial74" cx="0" cy="0" r="1" gradientUnits="userSpaceOnUse" gradientTransform="matrix(0.298265,26.0982,-100.885,1.15297,260.453,50.5173)"><stop offset="0" style="stop-color:#38ffff;stop-opacity:0.09"/><stop offset="0.67" style="stop-color:#38ffff;stop-opacity:0.08"/><stop offset="0.85" style="stop-color:#38ffff;stop-opacity:0.04"/><stop offset="1" style="stop-color:#38ffff;stop-opacity:0"/></radialGradient><radialGradient id="_Radial75" cx="0" cy="0" r="1" gradientUnits="userSpaceOnUse" gradientTransform="matrix(40.2326,-4.00506,7.74042,77.7557,298.05,97.5477)"><stop offset="0" style="stop-color:#ff50e5;stop-opacity:1"/><stop offset="0.65" style="stop-color:#ff50e5;stop-opacity:0.86"/><stop offset="1" style="stop-color:#ff50e5;stop-opacity:0"/></radialGradient><radialGradient id="_Radial76" cx="0" cy="0" r="1" gradientUnits="userSpaceOnUse" gradientTransform="matrix(40.3048,14.3145,-27.665,77.8951,215.107,88.7842)"><stop offset="0" style="stop-color:#38ffff;stop-opacity:1"/><stop offset="0.65" style="stop-color:#38ffff;stop-opacity:0.86"/><stop offset="1" style="stop-color:#38ffff;stop-opacity:0"/></radialGradient></defs></svg>