<?xml version="1.0" encoding="UTF-8" standalone="no"?><!DOCTYPE svg PUBLIC "-//W3C//DTD SVG 1.1//EN" "http://www.w3.org/Graphics/SVG/1.1/DTD/svg11.dtd"><svg width="100%" height="100%" viewBox="0 0 512 512" version="1.1" xmlns="http://www.w3.org/2000/svg" xmlns:xlink="http://www.w3.org/1999/xlink" xml:space="preserve" xmlns:serif="http://www.serif.com/" style="fill-rule:evenodd;clip-rule:evenodd;stroke-linecap:round;stroke-linejoin:round;stroke-miterlimit:1.5;"><rect id="color_fill" x="0" y="-0" width="512" height="512" style="fill:none;"/><g id="_--Colored" serif:id="- Colored"><g><g id="CENTER"><g id="Base"><path d="M224.021,255.971l31.981,-45.255l31.981,45.255l-31.981,45.255l-31.981,-45.255Z" style="fill:#0015ca;"/><path id="NW" d="M256.002,255.971l-31.981,0l31.981,-45.255l0,45.255Z" style="fill:url(#_Radial1);"/><path id="SW" d="M256.002,255.971l0,45.255l-31.981,-45.255l31.981,0Z" style="fill:url(#_Radial2);"/><path id="SE" d="M256.002,255.971l31.981,0l-31.981,45.255l0,-45.255Z" style="fill:url(#_Radial3);"/><path id="NE" d="M256.002,255.971l0,-45.255l31.981,45.255l-31.981,0Z" style="fill:url(#_Radial4);"/></g><g id="Highlight"><path id="NW1" serif:id="NW" d="M256.002,255.971l-31.981,0l31.981,-45.255l0,45.255Zm-0.474,-0.474l0,-43.288l-30.591,43.288l30.591,0Z" style="fill:url(#_Radial5);"/><path id="SW1" serif:id="SW" d="M256.002,255.971l0,45.255l-31.981,-45.255l31.981,0Zm-0.474,0.474l-30.591,0l30.591,43.289l0,-43.289Z" style="fill:url(#_Radial6);"/><path id="SW2" serif:id="SW" d="M256.002,255.971l0,45.255l-31.981,-45.255l31.981,0Zm-0.474,0.474l-30.591,0l30.591,43.289l0,-43.289Z" style="fill:url(#_Radial7);"/><path id="SE1" serif:id="SE" d="M256.002,255.971l31.981,0l-31.981,45.255l0,-45.255Zm0.474,0.474l0,43.289l30.591,-43.289l-30.591,0Z" style="fill:url(#_Radial8);"/><path id="SE2" serif:id="SE" d="M256.002,255.971l31.981,0l-31.981,45.255l0,-45.255Zm0.474,0.474l0,43.289l30.591,-43.289l-30.591,0Z" style="fill:url(#_Radial9);"/><path id="NE1" serif:id="NE" d="M256.002,255.971l0,-45.255l31.981,45.255l-31.981,0Zm0.474,-0.474l30.591,0l-30.591,-43.288l0,43.288Z" style="fill:url(#_Radial10);"/></g></g><g id="NW2" serif:id="NW"><g id="Base1" serif:id="Base"><path id="Base2" serif:id="Base" d="M116.95,116.907c7.291,7.271 75.193,21.78 89.902,38.537c14.445,16.454 15.944,39.106 20.752,57.08c-26.948,-50.755 -58.31,-43.344 -74.021,-58.965c15.676,15.576 11.769,48.254 62.478,75.299c-17.881,-4.798 -43.979,-7.741 -60.61,-22.074c-16.842,-14.516 -31.254,-82.634 -38.501,-89.877Z" style="fill:#0015ca;"/><path id="Base3" serif:id="Base" d="M116.95,116.907c7.291,7.271 75.193,21.78 89.902,38.537c14.445,16.454 15.944,39.106 20.752,57.08c-26.948,-50.755 -58.31,-43.344 -74.021,-58.965c15.676,15.576 11.769,48.254 62.478,75.299c-17.881,-4.798 -43.979,-7.741 -60.61,-22.074c-16.842,-14.516 -31.254,-82.634 -38.501,-89.877Z" style="fill:url(#_Radial11);"/><path id="Base4" serif:id="Base" d="M116.95,116.907c7.291,7.271 75.193,21.78 89.902,38.537c14.445,16.454 15.944,39.106 20.752,57.08c-26.948,-50.755 -58.31,-43.344 -74.021,-58.965c15.676,15.576 11.769,48.254 62.478,75.299c-17.881,-4.798 -43.979,-7.741 -60.61,-22.074c-16.842,-14.516 -31.254,-82.634 -38.501,-89.877Z" style="fill:url(#_Radial12);"/><path id="Base5" serif:id="Base" d="M116.95,116.907c7.291,7.271 75.193,21.78 89.902,38.537c14.445,16.454 15.944,39.106 20.752,57.08c-26.948,-50.755 -58.31,-43.344 -74.021,-58.965c15.676,15.576 11.769,48.254 62.478,75.299c-17.881,-4.798 -43.979,-7.741 -60.61,-22.074c-16.842,-14.516 -31.254,-82.634 -38.501,-89.877Z" style="fill:url(#_Radial13);"/></g><g id="Highlights"><path id="Top-Border" serif:id="Top Border" d="M163.261,160.172c16.91,8.251 42.103,10.654 64.343,52.352c-4.799,-17.881 -6.722,-40.796 -21.055,-57.426c-14.516,-16.842 -82.354,-30.927 -89.597,-38.175c7.271,7.291 21.5,74.866 38.257,89.576c16.454,14.445 42.878,17.552 60.851,22.359c-41.933,-22.263 -46.576,-48.425 -55.723,-65.703c-1.923,-3.632 -4.046,-6.872 -6.758,-9.601c2.766,2.782 6.031,4.836 9.682,6.618Zm-3.234,3.299c2.474,4.694 4.364,9.738 7.023,15.482c6.908,14.927 17.52,32.832 45.815,48.65c-17.705,-4.323 -41.953,-7.886 -57.375,-21.425c-3.988,-3.501 -7.837,-10.047 -11.5,-18.066c-5.535,-12.113 -10.622,-27.578 -15.032,-41.089c-3.439,-10.536 -6.468,-19.888 -8.974,-25.553c-0.532,-1.202 -0.763,-1.914 -1.251,-2.768c1.285,0.73 2.711,1.188 4.761,2.019c8.031,3.254 21.419,7.3 35.254,11.933c11.829,3.962 23.986,8.353 33.384,13.05c6.215,3.105 11.218,6.337 14.093,9.672c13.426,15.578 15.939,36.733 20.131,53.98c-15.854,-28.217 -33.307,-37.644 -47.878,-43.585c-5.501,-2.243 -10.375,-3.718 -14.906,-5.916c-0.877,-0.336 -2.033,-0.966 -3.288,-1.744c-1.44,-0.841 -2.803,-1.755 -4.082,-2.779c-1.026,-0.753 -1.994,-1.503 -2.808,-2.173c-0.737,-0.607 -1.348,-1.147 -1.761,-1.564c0.407,0.441 0.94,1.06 1.543,1.795c0.71,0.866 1.517,1.893 2.328,2.976c0.786,0.99 1.521,2.031 2.219,3.12c0.996,1.487 1.841,2.901 2.304,3.985Z" style="fill:url(#_Radial14);"/><path id="Top-Border1" serif:id="Top Border" d="M163.261,160.172c16.91,8.251 42.103,10.654 64.343,52.352c-4.799,-17.881 -6.722,-40.796 -21.055,-57.426c-14.516,-16.842 -82.354,-30.927 -89.597,-38.175c7.271,7.291 21.5,74.866 38.257,89.576c16.454,14.445 42.878,17.552 60.851,22.359c-41.933,-22.263 -46.576,-48.425 -55.723,-65.703c-1.923,-3.632 -4.046,-6.872 -6.758,-9.601c2.766,2.782 6.031,4.836 9.682,6.618Zm-3.234,3.299c2.474,4.694 4.364,9.738 7.023,15.482c6.908,14.927 17.52,32.832 45.815,48.65c-17.705,-4.323 -41.953,-7.886 -57.375,-21.425c-3.988,-3.501 -7.837,-10.047 -11.5,-18.066c-5.535,-12.113 -10.622,-27.578 -15.032,-41.089c-3.439,-10.536 -6.468,-19.888 -8.974,-25.553c-0.532,-1.202 -0.763,-1.914 -1.251,-2.768c1.285,0.73 2.711,1.188 4.761,2.019c8.031,3.254 21.419,7.3 35.254,11.933c11.829,3.962 23.986,8.353 33.384,13.05c6.215,3.105 11.218,6.337 14.093,9.672c13.426,15.578 15.939,36.733 20.131,53.98c-15.854,-28.217 -33.307,-37.644 -47.878,-43.585c-5.501,-2.243 -10.375,-3.718 -14.906,-5.916c-0.877,-0.336 -2.033,-0.966 -3.288,-1.744c-1.44,-0.841 -2.803,-1.755 -4.082,-2.779c-1.026,-0.753 -1.994,-1.503 -2.808,-2.173c-0.737,-0.607 -1.348,-1.147 -1.761,-1.564c0.407,0.441 0.94,1.06 1.543,1.795c0.71,0.866 1.517,1.893 2.328,2.976c0.786,0.99 1.521,2.031 2.219,3.12c0.996,1.487 1.841,2.901 2.304,3.985Z" style="fill:url(#_Radial15);"/><path id="Top-Border2" serif:id="Top Border" d="M163.261,160.172c16.91,8.251 42.103,10.654 64.343,52.352c-4.799,-17.881 -6.722,-40.796 -21.055,-57.426c-14.516,-16.842 -82.354,-30.927 -89.597,-38.175c7.271,7.291 21.5,74.866 38.257,89.576c16.454,14.445 42.878,17.552 60.851,22.359c-41.933,-22.263 -46.576,-48.425 -55.723,-65.703c-1.923,-3.632 -4.046,-6.872 -6.758,-9.601c2.766,2.782 6.031,4.836 9.682,6.618Zm-3.234,3.299c2.474,4.694 4.364,9.738 7.023,15.482c6.908,14.927 17.52,32.832 45.815,48.65c-17.705,-4.323 -41.953,-7.886 -57.375,-21.425c-3.988,-3.501 -7.837,-10.047 -11.5,-18.066c-5.535,-12.113 -10.622,-27.578 -15.032,-41.089c-3.439,-10.536 -6.468,-19.888 -8.974,-25.553c-0.532,-1.202 -0.763,-1.914 -1.251,-2.768c1.285,0.73 2.711,1.188 4.761,2.019c8.031,3.254 21.419,7.3 35.254,11.933c11.829,3.962 23.986,8.353 33.384,13.05c6.215,3.105 11.218,6.337 14.093,9.672c13.426,15.578 15.939,36.733 20.131,53.98c-15.854,-28.217 -33.307,-37.644 -47.878,-43.585c-5.501,-2.243 -10.375,-3.718 -14.906,-5.916c-0.877,-0.336 -2.033,-0.966 -3.288,-1.744c-1.44,-0.841 -2.803,-1.755 -4.082,-2.779c-1.026,-0.753 -1.994,-1.503 -2.808,-2.173c-0.737,-0.607 -1.348,-1.147 -1.761,-1.564c0.407,0.441 0.94,1.06 1.543,1.795c0.71,0.866 1.517,1.893 2.328,2.976c0.786,0.99 1.521,2.031 2.219,3.12c0.996,1.487 1.841,2.901 2.304,3.985Z" style="fill:url(#_Radial16);"/><path id="Top-Border3" serif:id="Top Border" d="M163.261,160.172c16.91,8.251 42.103,10.654 64.343,52.352c-4.799,-17.881 -6.722,-40.796 -21.055,-57.426c-14.516,-16.842 -82.354,-30.927 -89.597,-38.175c7.271,7.291 21.5,74.866 38.257,89.576c16.454,14.445 42.878,17.552 60.851,22.359c-41.933,-22.263 -46.576,-48.425 -55.723,-65.703c-1.923,-3.632 -4.046,-6.872 -6.758,-9.601c2.766,2.782 6.031,4.836 9.682,6.618Zm-3.234,3.299c2.474,4.694 4.364,9.738 7.023,15.482c6.908,14.927 17.52,32.832 45.815,48.65c-17.705,-4.323 -41.953,-7.886 -57.375,-21.425c-3.988,-3.501 -7.837,-10.047 -11.5,-18.066c-5.535,-12.113 -10.622,-27.578 -15.032,-41.089c-3.439,-10.536 -6.468,-19.888 -8.974,-25.553c-0.532,-1.202 -0.763,-1.914 -1.251,-2.768c1.285,0.73 2.711,1.188 4.761,2.019c8.031,3.254 21.419,7.3 35.254,11.933c11.829,3.962 23.986,8.353 33.384,13.05c6.215,3.105 11.218,6.337 14.093,9.672c13.426,15.578 15.939,36.733 20.131,53.98c-15.854,-28.217 -33.307,-37.644 -47.878,-43.585c-5.501,-2.243 -10.375,-3.718 -14.906,-5.916c-0.877,-0.336 -2.033,-0.966 -3.288,-1.744c-1.44,-0.841 -2.803,-1.755 -4.082,-2.779c-1.026,-0.753 -1.994,-1.503 -2.808,-2.173c-0.737,-0.607 -1.348,-1.147 -1.761,-1.564c0.407,0.441 0.94,1.06 1.543,1.795c0.71,0.866 1.517,1.893 2.328,2.976c0.786,0.99 1.521,2.031 2.219,3.12c0.996,1.487 1.841,2.901 2.304,3.985Z" style="fill:url(#_Radial17);"/></g></g><g id="W"><g id="Base6" serif:id="Base"><path id="Base7" serif:id="Base" d="M49.07,255.971c0,0 54.052,27.543 90.328,38.284l67.217,-24.494c-25.676,0.092 -81.71,-5.151 -95.444,-13.791c13.284,-9.198 69.922,-13.801 95.429,-13.781l-67.162,-24.429c-36.322,10.71 -90.368,38.211 -90.368,38.211Z" style="fill:#0015ca;"/><path id="Full" d="M49.07,255.971c0,0 54.052,27.543 90.328,38.284l67.217,-24.494c-25.676,0.092 -81.71,-5.151 -95.444,-13.791c13.284,-9.198 69.922,-13.801 95.429,-13.781l-67.162,-24.429c-36.322,10.71 -90.368,38.211 -90.368,38.211Z" style="fill:url(#_Radial18);"/><path id="Full1" serif:id="Full" d="M49.07,255.971c0,0 54.052,27.543 90.328,38.284l67.217,-24.494c-25.676,0.092 -81.71,-5.151 -95.444,-13.791c13.284,-9.198 69.922,-13.801 95.429,-13.781l-67.162,-24.429c-36.322,10.71 -90.368,38.211 -90.368,38.211Z" style="fill:url(#_Radial19);"/><path id="Full2" serif:id="Full" d="M49.07,255.971c0,0 54.052,27.543 90.328,38.284l67.217,-24.494c-25.676,0.092 -81.71,-5.151 -95.444,-13.791c13.284,-9.198 69.922,-13.801 95.429,-13.781l-67.162,-24.429c-36.322,10.71 -90.368,38.211 -90.368,38.211Z" style="fill:url(#_Radial20);"/></g><g id="Blend"><clipPath id="_clip21"><path id="Botom" d="M50.019,255.971c4.835,2.444 54.876,27.831 89.372,38.06l66.014,-24.056c-18.217,-0.05 -50.143,-2.587 -72.455,-6.989c-9.806,-1.935 -17.758,-4.234 -21.893,-6.835c-0.06,-0.038 -0.098,-0.104 -0.099,-0.176c-0.002,-0.072 0.033,-0.139 0.092,-0.18c4,-2.77 11.915,-5.132 21.73,-7.071c22.324,-4.41 54.498,-6.662 72.615,-6.746l-65.964,-23.994c-34.54,10.199 -84.577,35.542 -89.412,37.987Z"/></clipPath><g clip-path="url(#_clip21)"><path d="M49.128,255.971c-0.038,0.02 -0.058,0.03 -0.058,0.03c0,-0 54.052,27.513 90.328,38.254l67.217,-24.494c-25.675,0.092 -81.705,-5.15 -95.442,-13.79l-62.045,0Z" style="fill:url(#_Radial22);"/></g><path id="Bend" d="M110.958,255.975l-61.416,0.027" style="fill:none;stroke:url(#_Radial23);stroke-width:0.47px;"/></g><g id="Highlights1" serif:id="Highlights"><path id="Border" d="M49.07,255.971c0,0 54.046,-27.501 90.368,-38.211l67.162,24.429c-25.507,-0.02 -82.145,4.583 -95.429,13.781c13.734,8.64 69.768,13.883 95.444,13.791l-67.217,24.494c-36.276,-10.741 -90.328,-38.284 -90.328,-38.284Zm0.946,0.001c6.626,3.342 55.633,27.818 89.369,37.834l64.828,-23.625c-18.402,-0.152 -49.458,-2.675 -71.305,-6.986c-9.838,-1.941 -17.816,-4.254 -21.964,-6.864c-0.122,-0.076 -0.196,-0.208 -0.2,-0.351c-0.003,-0.144 0.066,-0.279 0.184,-0.36c4.016,-2.781 11.958,-5.159 21.81,-7.105c21.857,-4.318 53.15,-6.568 71.47,-6.742l-64.784,-23.564c-33.778,9.987 -82.781,34.425 -89.408,37.763Z" style="fill:url(#_Radial24);"/><path id="Border1" serif:id="Border" d="M49.07,255.971c0,0 54.046,-27.501 90.368,-38.211l67.162,24.429c-25.507,-0.02 -82.145,4.583 -95.429,13.781c13.734,8.64 69.768,13.883 95.444,13.791l-67.217,24.494c-36.276,-10.741 -90.328,-38.284 -90.328,-38.284Zm0.946,0.001c6.626,3.342 55.633,27.818 89.369,37.834l64.828,-23.625c-18.402,-0.152 -49.458,-2.675 -71.305,-6.986c-9.838,-1.941 -17.816,-4.254 -21.964,-6.864c-0.122,-0.076 -0.196,-0.208 -0.2,-0.351c-0.003,-0.144 0.066,-0.279 0.184,-0.36c4.016,-2.781 11.958,-5.159 21.81,-7.105c21.857,-4.318 53.15,-6.568 71.47,-6.742l-64.784,-23.564c-33.778,9.987 -82.781,34.425 -89.408,37.763Z" style="fill:url(#_Radial25);"/><path id="Border2" serif:id="Border" d="M49.07,255.971c0,0 54.046,-27.501 90.368,-38.211l67.162,24.429c-25.507,-0.02 -82.145,4.583 -95.429,13.781c13.734,8.64 69.768,13.883 95.444,13.791l-67.217,24.494c-36.276,-10.741 -90.328,-38.284 -90.328,-38.284Zm0.946,0.001c6.626,3.342 55.633,27.818 89.369,37.834l64.828,-23.625c-18.402,-0.152 -49.458,-2.675 -71.305,-6.986c-9.838,-1.941 -17.816,-4.254 -21.964,-6.864c-0.122,-0.076 -0.196,-0.208 -0.2,-0.351c-0.003,-0.144 0.066,-0.279 0.184,-0.36c4.016,-2.781 11.958,-5.159 21.81,-7.105c21.857,-4.318 53.15,-6.568 71.47,-6.742l-64.784,-23.564c-33.778,9.987 -82.781,34.425 -89.408,37.763Z" style="fill:url(#_Radial26);"/><path id="Border3" serif:id="Border" d="M49.07,255.971c0,0 54.046,-27.501 90.368,-38.211l67.162,24.429c-25.507,-0.02 -82.145,4.583 -95.429,13.781c13.734,8.64 69.768,13.883 95.444,13.791l-67.217,24.494c-36.276,-10.741 -90.328,-38.284 -90.328,-38.284Zm0.946,0.001c6.626,3.342 55.633,27.818 89.369,37.834l64.828,-23.625c-18.402,-0.152 -49.458,-2.675 -71.305,-6.986c-9.838,-1.941 -17.816,-4.254 -21.964,-6.864c-0.122,-0.076 -0.196,-0.208 -0.2,-0.351c-0.003,-0.144 0.066,-0.279 0.184,-0.36c4.016,-2.781 11.958,-5.159 21.81,-7.105c21.857,-4.318 53.15,-6.568 71.47,-6.742l-64.784,-23.564c-33.778,9.987 -82.781,34.425 -89.408,37.763Z" style="fill:url(#_Radial27);"/></g></g><g id="SW3" serif:id="SW"><g id="Base8" serif:id="Base"><path id="Base9" serif:id="Base" d="M116.95,395.037c7.291,-7.271 75.193,-21.781 89.902,-38.537c14.445,-16.454 15.944,-39.107 20.752,-57.08c-26.948,50.755 -58.31,43.344 -74.021,58.965c15.676,-15.576 11.769,-48.254 62.478,-75.299c-17.881,4.798 -43.979,7.741 -60.61,22.074c-16.842,14.516 -31.254,82.634 -38.501,89.877Z" style="fill:#0015ca;"/><path id="Base10" serif:id="Base" d="M116.95,395.037c7.291,-7.271 75.193,-21.781 89.902,-38.537c14.445,-16.454 15.944,-39.107 20.752,-57.08c-26.948,50.755 -58.31,43.344 -74.021,58.965c15.676,-15.576 11.769,-48.254 62.478,-75.299c-17.881,4.798 -43.979,7.741 -60.61,22.074c-16.842,14.516 -31.254,82.634 -38.501,89.877Z" style="fill:url(#_Radial28);"/><path id="Base11" serif:id="Base" d="M116.95,395.037c7.291,-7.271 75.193,-21.781 89.902,-38.537c14.445,-16.454 15.944,-39.107 20.752,-57.08c-26.948,50.755 -58.31,43.344 -74.021,58.965c15.676,-15.576 11.769,-48.254 62.478,-75.299c-17.881,4.798 -43.979,7.741 -60.61,22.074c-16.842,14.516 -31.254,82.634 -38.501,89.877Z" style="fill:url(#_Radial29);"/><path id="Base12" serif:id="Base" d="M116.95,395.037c7.291,-7.271 75.193,-21.781 89.902,-38.537c14.445,-16.454 15.944,-39.107 20.752,-57.08c-26.948,50.755 -58.31,43.344 -74.021,58.965c15.676,-15.576 11.769,-48.254 62.478,-75.299c-17.881,4.798 -43.979,7.741 -60.61,22.074c-16.842,14.516 -31.254,82.634 -38.501,89.877Z" style="fill:url(#_Radial30);"/><path id="Base13" serif:id="Base" d="M116.95,395.037c7.291,-7.271 75.193,-21.781 89.902,-38.537c14.445,-16.454 15.944,-39.107 20.752,-57.08c-26.948,50.755 -58.31,43.344 -74.021,58.965c15.676,-15.576 11.769,-48.254 62.478,-75.299c-17.881,4.798 -43.979,7.741 -60.61,22.074c-16.842,14.516 -31.254,82.634 -38.501,89.877Z" style="fill:url(#_Radial31);"/></g><g id="Highlights2" serif:id="Highlights"><path id="Top-Border4" serif:id="Top Border" d="M163.261,351.772c16.91,-8.251 42.103,-10.654 64.343,-52.352c-4.799,17.881 -6.722,40.795 -21.055,57.426c-14.516,16.842 -82.354,30.927 -89.597,38.175c7.271,-7.291 21.5,-74.866 38.257,-89.576c16.454,-14.445 42.878,-17.552 60.851,-22.359c-41.933,22.263 -46.576,48.425 -55.723,65.703c-1.923,3.632 -4.046,6.872 -6.758,9.601c2.766,-2.782 6.031,-4.836 9.682,-6.618Zm-3.234,-3.299c2.474,-4.694 4.364,-9.738 7.023,-15.482c6.908,-14.927 17.52,-32.833 45.815,-48.65c-17.705,4.322 -41.953,7.886 -57.375,21.425c-3.988,3.501 -7.837,10.047 -11.5,18.065c-5.535,12.114 -10.622,27.579 -15.032,41.09c-3.439,10.536 -6.468,19.888 -8.974,25.553c-0.532,1.202 -0.763,1.914 -1.251,2.768c1.285,-0.73 2.711,-1.188 4.761,-2.019c8.031,-3.254 21.419,-7.3 35.254,-11.933c11.829,-3.962 23.986,-8.353 33.384,-13.05c6.215,-3.105 11.218,-6.337 14.093,-9.672c13.426,-15.578 15.939,-36.733 20.131,-53.98c-15.854,28.217 -33.307,37.644 -47.878,43.585c-5.501,2.243 -10.375,3.718 -14.906,5.916c-0.877,0.336 -2.033,0.966 -3.288,1.744c-1.44,0.841 -2.803,1.755 -4.082,2.779c-1.026,0.753 -1.994,1.503 -2.808,2.173c-0.737,0.607 -1.348,1.147 -1.761,1.564c0.407,-0.441 0.94,-1.06 1.543,-1.795c0.71,-0.866 1.517,-1.893 2.328,-2.976c0.786,-0.99 1.521,-2.031 2.219,-3.12c0.996,-1.487 1.841,-2.901 2.304,-3.985Z" style="fill:url(#_Radial32);"/><path id="Top-Border5" serif:id="Top Border" d="M163.261,351.772c16.91,-8.251 42.103,-10.654 64.343,-52.352c-4.799,17.881 -6.722,40.795 -21.055,57.426c-14.516,16.842 -82.354,30.927 -89.597,38.175c7.271,-7.291 21.5,-74.866 38.257,-89.576c16.454,-14.445 42.878,-17.552 60.851,-22.359c-41.933,22.263 -46.576,48.425 -55.723,65.703c-1.923,3.632 -4.046,6.872 -6.758,9.601c2.766,-2.782 6.031,-4.836 9.682,-6.618Zm-3.234,-3.299c2.474,-4.694 4.364,-9.738 7.023,-15.482c6.908,-14.927 17.52,-32.833 45.815,-48.65c-17.705,4.322 -41.953,7.886 -57.375,21.425c-3.988,3.501 -7.837,10.047 -11.5,18.065c-5.535,12.114 -10.622,27.579 -15.032,41.09c-3.439,10.536 -6.468,19.888 -8.974,25.553c-0.532,1.202 -0.763,1.914 -1.251,2.768c1.285,-0.73 2.711,-1.188 4.761,-2.019c8.031,-3.254 21.419,-7.3 35.254,-11.933c11.829,-3.962 23.986,-8.353 33.384,-13.05c6.215,-3.105 11.218,-6.337 14.093,-9.672c13.426,-15.578 15.939,-36.733 20.131,-53.98c-15.854,28.217 -33.307,37.644 -47.878,43.585c-5.501,2.243 -10.375,3.718 -14.906,5.916c-0.877,0.336 -2.033,0.966 -3.288,1.744c-1.44,0.841 -2.803,1.755 -4.082,2.779c-1.026,0.753 -1.994,1.503 -2.808,2.173c-0.737,0.607 -1.348,1.147 -1.761,1.564c0.407,-0.441 0.94,-1.06 1.543,-1.795c0.71,-0.866 1.517,-1.893 2.328,-2.976c0.786,-0.99 1.521,-2.031 2.219,-3.12c0.996,-1.487 1.841,-2.901 2.304,-3.985Z" style="fill:url(#_Radial33);"/><path id="Top-Border6" serif:id="Top Border" d="M163.261,351.772c16.91,-8.251 42.103,-10.654 64.343,-52.352c-4.799,17.881 -6.722,40.795 -21.055,57.426c-14.516,16.842 -82.354,30.927 -89.597,38.175c7.271,-7.291 21.5,-74.866 38.257,-89.576c16.454,-14.445 42.878,-17.552 60.851,-22.359c-41.933,22.263 -46.576,48.425 -55.723,65.703c-1.923,3.632 -4.046,6.872 -6.758,9.601c2.766,-2.782 6.031,-4.836 9.682,-6.618Zm-3.234,-3.299c2.474,-4.694 4.364,-9.738 7.023,-15.482c6.908,-14.927 17.52,-32.833 45.815,-48.65c-17.705,4.322 -41.953,7.886 -57.375,21.425c-3.988,3.501 -7.837,10.047 -11.5,18.065c-5.535,12.114 -10.622,27.579 -15.032,41.09c-3.439,10.536 -6.468,19.888 -8.974,25.553c-0.532,1.202 -0.763,1.914 -1.251,2.768c1.285,-0.73 2.711,-1.188 4.761,-2.019c8.031,-3.254 21.419,-7.3 35.254,-11.933c11.829,-3.962 23.986,-8.353 33.384,-13.05c6.215,-3.105 11.218,-6.337 14.093,-9.672c13.426,-15.578 15.939,-36.733 20.131,-53.98c-15.854,28.217 -33.307,37.644 -47.878,43.585c-5.501,2.243 -10.375,3.718 -14.906,5.916c-0.877,0.336 -2.033,0.966 -3.288,1.744c-1.44,0.841 -2.803,1.755 -4.082,2.779c-1.026,0.753 -1.994,1.503 -2.808,2.173c-0.737,0.607 -1.348,1.147 -1.761,1.564c0.407,-0.441 0.94,-1.06 1.543,-1.795c0.71,-0.866 1.517,-1.893 2.328,-2.976c0.786,-0.99 1.521,-2.031 2.219,-3.12c0.996,-1.487 1.841,-2.901 2.304,-3.985Z" style="fill:url(#_Radial34);"/></g></g><g id="S"><g id="Base14" serif:id="Base"><path id="Base15" serif:id="Base" d="M256.002,462.905c0,-0 -27.497,-54.078 -38.238,-90.354l20.916,-57.466c-0.092,25.675 8.683,72.017 17.323,85.751c9.198,-13.284 17.342,-60.244 17.322,-85.751l20.916,57.466c-10.711,36.322 -38.239,90.354 -38.239,90.354Z" style="fill:url(#_Linear35);"/><path id="Base16" serif:id="Base" d="M256.002,462.905c0,-0 -27.497,-54.078 -38.238,-90.354l20.916,-57.466c-0.092,25.675 8.683,72.017 17.323,85.751c9.198,-13.284 17.342,-60.244 17.322,-85.751l20.916,57.466c-10.711,36.322 -38.239,90.354 -38.239,90.354Z" style="fill:url(#_Radial36);"/><path id="Base17" serif:id="Base" d="M256.002,462.905c0,-0 -27.497,-54.078 -38.238,-90.354l20.916,-57.466c-0.092,25.675 8.683,72.017 17.323,85.751c9.198,-13.284 17.342,-60.244 17.322,-85.751l20.916,57.466c-10.711,36.322 -38.239,90.354 -38.239,90.354Z" style="fill:url(#_Radial37);"/></g><g id="Blend1" serif:id="Blend"><path id="Right-Inner" serif:id="Right Inner" d="M256.002,461.958l0,-60.695c0.14,-0 0.272,-0.069 0.352,-0.184c2.778,-4.012 5.468,-11.072 7.862,-19.689c5.318,-19.143 9.203,-45.991 9.515,-63.941l20.061,55.116c-9.987,33.777 -34.448,82.767 -37.789,89.394c-0.001,-0 -0.001,-0.001 -0.001,-0.001Z" style="fill:url(#_Radial38);"/><path id="Right-Inner1" serif:id="Right Inner" d="M256.002,461.958l0,-60.695c0.14,-0 0.272,-0.069 0.352,-0.184c2.778,-4.012 5.468,-11.072 7.862,-19.689c5.318,-19.143 9.203,-45.991 9.515,-63.941l20.061,55.116c-9.987,33.777 -34.448,82.767 -37.789,89.394c-0.001,-0 -0.001,-0.001 -0.001,-0.001Z" style="fill:url(#_Radial39);"/><path id="Left-Inner" serif:id="Left Inner" d="M256.002,461.958c-3.339,-6.634 -27.774,-55.66 -37.789,-89.393l20.056,-55.103c0.422,26.133 8.97,70.244 17.373,83.601c0.076,0.121 0.208,0.196 0.352,0.199c0.002,0 0.005,0.001 0.008,0.001l0,60.695Z" style="fill:url(#_Radial40);"/><path id="Bend1" serif:id="Bend" d="M256.016,400.863l-0.016,61.096" style="fill:none;stroke:url(#_Radial41);stroke-width:0.47px;"/></g><g id="Highlights3" serif:id="Highlights"><path id="Base18" serif:id="Base" d="M256.002,462.905c0,-0 -27.497,-54.078 -38.238,-90.354l20.916,-57.466c-0.092,25.675 8.683,72.017 17.323,85.751c9.198,-13.284 17.342,-60.244 17.322,-85.751l20.916,57.466c-10.711,36.322 -38.239,90.354 -38.239,90.354Zm0.001,-0.946c3.341,-6.627 27.802,-55.617 37.789,-89.394l-20.061,-55.113c-0.312,17.949 -4.197,44.795 -9.515,63.938c-2.394,8.617 -5.084,15.677 -7.862,19.689c-0.082,0.118 -0.217,0.187 -0.36,0.183c-0.144,-0.003 -0.276,-0.078 -0.352,-0.199c-8.403,-13.357 -16.95,-57.466 -17.373,-83.602l-20.056,55.104c10.016,33.735 34.452,82.763 37.79,89.394Z" style="fill:url(#_Radial42);"/><path id="Base19" serif:id="Base" d="M256.002,462.905c0,-0 -27.497,-54.078 -38.238,-90.354l20.916,-57.466c-0.092,25.675 8.683,72.017 17.323,85.751c9.198,-13.284 17.342,-60.244 17.322,-85.751l20.916,57.466c-10.711,36.322 -38.239,90.354 -38.239,90.354Zm0.001,-0.946c3.341,-6.627 27.802,-55.617 37.789,-89.394l-20.061,-55.113c-0.312,17.949 -4.197,44.795 -9.515,63.938c-2.394,8.617 -5.084,15.677 -7.862,19.689c-0.082,0.118 -0.217,0.187 -0.36,0.183c-0.144,-0.003 -0.276,-0.078 -0.352,-0.199c-8.403,-13.357 -16.95,-57.466 -17.373,-83.602l-20.056,55.104c10.016,33.735 34.452,82.763 37.79,89.394Z" style="fill:url(#_Radial43);"/><path id="Base20" serif:id="Base" d="M256.002,462.905c0,-0 -27.497,-54.078 -38.238,-90.354l20.916,-57.466c-0.092,25.675 8.683,72.017 17.323,85.751c9.198,-13.284 17.342,-60.244 17.322,-85.751l20.916,57.466c-10.711,36.322 -38.239,90.354 -38.239,90.354Zm0.001,-0.946c3.341,-6.627 27.802,-55.617 37.789,-89.394l-20.061,-55.113c-0.312,17.949 -4.197,44.795 -9.515,63.938c-2.394,8.617 -5.084,15.677 -7.862,19.689c-0.082,0.118 -0.217,0.187 -0.36,0.183c-0.144,-0.003 -0.276,-0.078 -0.352,-0.199c-8.403,-13.357 -16.95,-57.466 -17.373,-83.602l-20.056,55.104c10.016,33.735 34.452,82.763 37.79,89.394Z" style="fill:url(#_Radial44);"/><path id="Base21" serif:id="Base" d="M256.002,462.905c0,-0 -27.497,-54.078 -38.238,-90.354l20.916,-57.466c-0.092,25.675 8.683,72.017 17.323,85.751c9.198,-13.284 17.342,-60.244 17.322,-85.751l20.916,57.466c-10.711,36.322 -38.239,90.354 -38.239,90.354Zm0.001,-0.946c3.341,-6.627 27.802,-55.617 37.789,-89.394l-20.061,-55.113c-0.312,17.949 -4.197,44.795 -9.515,63.938c-2.394,8.617 -5.084,15.677 -7.862,19.689c-0.082,0.118 -0.217,0.187 -0.36,0.183c-0.144,-0.003 -0.276,-0.078 -0.352,-0.199c-8.403,-13.357 -16.95,-57.466 -17.373,-83.602l-20.056,55.104c10.016,33.735 34.452,82.763 37.79,89.394Z" style="fill:url(#_Radial45);"/></g></g><g id="SE3" serif:id="SE"><g id="Base22" serif:id="Base"><path id="Base23" serif:id="Base" d="M395.049,395.037c-7.291,-7.271 -75.193,-21.781 -89.903,-38.537c-14.444,-16.454 -15.943,-39.107 -20.751,-57.08c26.948,50.755 58.31,43.344 74.021,58.965c-15.676,-15.576 -11.77,-48.254 -62.478,-75.299c17.881,4.798 43.979,7.741 60.61,22.074c16.842,14.516 31.253,82.634 38.501,89.877Z" style="fill:#4300c0;"/><path id="Base24" serif:id="Base" d="M395.049,395.037c-7.291,-7.271 -75.193,-21.781 -89.903,-38.537c-14.444,-16.454 -15.943,-39.107 -20.751,-57.08c26.948,50.755 58.31,43.344 74.021,58.965c-15.676,-15.576 -11.77,-48.254 -62.478,-75.299c17.881,4.798 43.979,7.741 60.61,22.074c16.842,14.516 31.253,82.634 38.501,89.877Z" style="fill:url(#_Radial46);"/><path id="Base25" serif:id="Base" d="M395.049,395.037c-7.291,-7.271 -75.193,-21.781 -89.903,-38.537c-14.444,-16.454 -15.943,-39.107 -20.751,-57.08c26.948,50.755 58.31,43.344 74.021,58.965c-15.676,-15.576 -11.77,-48.254 -62.478,-75.299c17.881,4.798 43.979,7.741 60.61,22.074c16.842,14.516 31.253,82.634 38.501,89.877Z" style="fill:url(#_Radial47);"/><path id="Base26" serif:id="Base" d="M395.049,395.037c-7.291,-7.271 -75.193,-21.781 -89.903,-38.537c-14.444,-16.454 -15.943,-39.107 -20.751,-57.08c26.948,50.755 58.31,43.344 74.021,58.965c-15.676,-15.576 -11.77,-48.254 -62.478,-75.299c17.881,4.798 43.979,7.741 60.61,22.074c16.842,14.516 31.253,82.634 38.501,89.877Z" style="fill:url(#_Radial48);"/><path id="Base27" serif:id="Base" d="M395.049,395.037c-7.291,-7.271 -75.193,-21.781 -89.903,-38.537c-14.444,-16.454 -15.943,-39.107 -20.751,-57.08c26.948,50.755 58.31,43.344 74.021,58.965c-15.676,-15.576 -11.77,-48.254 -62.478,-75.299c17.881,4.798 43.979,7.741 60.61,22.074c16.842,14.516 31.253,82.634 38.501,89.877Z" style="fill:url(#_Radial49);"/></g><g id="Highlights4" serif:id="Highlights"><path id="Top-Border7" serif:id="Top Border" d="M348.737,351.772c-16.909,-8.251 -42.102,-10.654 -64.342,-52.352c4.798,17.881 6.722,40.795 21.055,57.426c14.516,16.842 82.354,30.927 89.597,38.175c-7.272,-7.291 -21.501,-74.866 -38.257,-89.576c-16.454,-14.445 -42.878,-17.552 -60.852,-22.359c41.933,22.263 46.577,48.425 55.724,65.703c1.923,3.632 4.046,6.872 6.758,9.601c-2.766,-2.782 -6.032,-4.836 -9.683,-6.618Zm3.235,-3.299c-2.474,-4.694 -4.365,-9.738 -7.023,-15.482c-6.909,-14.927 -17.521,-32.833 -45.815,-48.65c17.705,4.322 41.952,7.886 57.375,21.425c3.988,3.501 7.837,10.047 11.5,18.065c5.534,12.114 10.622,27.579 15.032,41.09c3.439,10.536 6.467,19.888 8.974,25.553c0.532,1.202 0.763,1.914 1.251,2.768c-1.286,-0.73 -2.711,-1.188 -4.761,-2.019c-8.031,-3.254 -21.42,-7.3 -35.254,-11.933c-11.83,-3.962 -23.987,-8.353 -33.384,-13.05c-6.215,-3.105 -11.219,-6.337 -14.094,-9.672c-13.425,-15.578 -15.939,-36.733 -20.13,-53.98c15.854,28.217 33.306,37.644 47.878,43.585c5.5,2.243 10.374,3.718 14.905,5.916c0.878,0.336 2.034,0.966 3.289,1.744c1.439,0.841 2.803,1.755 4.082,2.779c1.026,0.753 1.994,1.503 2.807,2.173c0.738,0.607 1.348,1.147 1.761,1.564c-0.406,-0.441 -0.939,-1.06 -1.542,-1.795c-0.71,-0.866 -1.517,-1.893 -2.328,-2.976c-0.786,-0.99 -1.522,-2.031 -2.219,-3.12c-0.997,-1.487 -1.841,-2.901 -2.304,-3.985Z" style="fill:url(#_Radial50);"/><path id="Top-Border8" serif:id="Top Border" d="M348.737,351.772c-16.909,-8.251 -42.102,-10.654 -64.342,-52.352c4.798,17.881 6.722,40.795 21.055,57.426c14.516,16.842 82.354,30.927 89.597,38.175c-7.272,-7.291 -21.501,-74.866 -38.257,-89.576c-16.454,-14.445 -42.878,-17.552 -60.852,-22.359c41.933,22.263 46.577,48.425 55.724,65.703c1.923,3.632 4.046,6.872 6.758,9.601c-2.766,-2.782 -6.032,-4.836 -9.683,-6.618Zm3.235,-3.299c-2.474,-4.694 -4.365,-9.738 -7.023,-15.482c-6.909,-14.927 -17.521,-32.833 -45.815,-48.65c17.705,4.322 41.952,7.886 57.375,21.425c3.988,3.501 7.837,10.047 11.5,18.065c5.534,12.114 10.622,27.579 15.032,41.09c3.439,10.536 6.467,19.888 8.974,25.553c0.532,1.202 0.763,1.914 1.251,2.768c-1.286,-0.73 -2.711,-1.188 -4.761,-2.019c-8.031,-3.254 -21.42,-7.3 -35.254,-11.933c-11.83,-3.962 -23.987,-8.353 -33.384,-13.05c-6.215,-3.105 -11.219,-6.337 -14.094,-9.672c-13.425,-15.578 -15.939,-36.733 -20.13,-53.98c15.854,28.217 33.306,37.644 47.878,43.585c5.5,2.243 10.374,3.718 14.905,5.916c0.878,0.336 2.034,0.966 3.289,1.744c1.439,0.841 2.803,1.755 4.082,2.779c1.026,0.753 1.994,1.503 2.807,2.173c0.738,0.607 1.348,1.147 1.761,1.564c-0.406,-0.441 -0.939,-1.06 -1.542,-1.795c-0.71,-0.866 -1.517,-1.893 -2.328,-2.976c-0.786,-0.99 -1.522,-2.031 -2.219,-3.12c-0.997,-1.487 -1.841,-2.901 -2.304,-3.985Z" style="fill:url(#_Radial51);"/><path id="Top-Border9" serif:id="Top Border" d="M348.737,351.772c-16.909,-8.251 -42.102,-10.654 -64.342,-52.352c4.798,17.881 6.722,40.795 21.055,57.426c14.516,16.842 82.354,30.927 89.597,38.175c-7.272,-7.291 -21.501,-74.866 -38.257,-89.576c-16.454,-14.445 -42.878,-17.552 -60.852,-22.359c41.933,22.263 46.577,48.425 55.724,65.703c1.923,3.632 4.046,6.872 6.758,9.601c-2.766,-2.782 -6.032,-4.836 -9.683,-6.618Zm3.235,-3.299c-2.474,-4.694 -4.365,-9.738 -7.023,-15.482c-6.909,-14.927 -17.521,-32.833 -45.815,-48.65c17.705,4.322 41.952,7.886 57.375,21.425c3.988,3.501 7.837,10.047 11.5,18.065c5.534,12.114 10.622,27.579 15.032,41.09c3.439,10.536 6.467,19.888 8.974,25.553c0.532,1.202 0.763,1.914 1.251,2.768c-1.286,-0.73 -2.711,-1.188 -4.761,-2.019c-8.031,-3.254 -21.42,-7.3 -35.254,-11.933c-11.83,-3.962 -23.987,-8.353 -33.384,-13.05c-6.215,-3.105 -11.219,-6.337 -14.094,-9.672c-13.425,-15.578 -15.939,-36.733 -20.13,-53.98c15.854,28.217 33.306,37.644 47.878,43.585c5.5,2.243 10.374,3.718 14.905,5.916c0.878,0.336 2.034,0.966 3.289,1.744c1.439,0.841 2.803,1.755 4.082,2.779c1.026,0.753 1.994,1.503 2.807,2.173c0.738,0.607 1.348,1.147 1.761,1.564c-0.406,-0.441 -0.939,-1.06 -1.542,-1.795c-0.71,-0.866 -1.517,-1.893 -2.328,-2.976c-0.786,-0.99 -1.522,-2.031 -2.219,-3.12c-0.997,-1.487 -1.841,-2.901 -2.304,-3.985Z" style="fill:url(#_Radial52);"/></g></g><g id="E"><g id="Base28" serif:id="Base"><path id="Base29" serif:id="Base" d="M462.93,255.975c-0,-0 -54.052,27.539 -90.328,38.28l-67.217,-24.494c25.676,0.092 81.71,-5.151 95.444,-13.791c-13.284,-9.198 -69.922,-13.801 -95.429,-13.781l67.162,-24.429c36.322,10.71 90.368,38.215 90.368,38.215Z" style="fill:#4300c0;"/><path id="Full3" serif:id="Full" d="M462.93,255.975c-0,-0 -54.052,27.539 -90.328,38.28l-67.217,-24.494c25.676,0.092 81.71,-5.151 95.444,-13.791c-13.284,-9.198 -69.922,-13.801 -95.429,-13.781l67.162,-24.429c36.322,10.71 90.368,38.215 90.368,38.215Z" style="fill:url(#_Radial53);"/><path id="Full4" serif:id="Full" d="M462.93,255.975c-0,-0 -54.052,27.539 -90.328,38.28l-67.217,-24.494c25.676,0.092 81.71,-5.151 95.444,-13.791c-13.284,-9.198 -69.922,-13.801 -95.429,-13.781l67.162,-24.429c36.322,10.71 90.368,38.215 90.368,38.215Z" style="fill:url(#_Radial54);"/><path id="Full5" serif:id="Full" d="M462.93,255.975c-0,-0 -54.052,27.539 -90.328,38.28l-67.217,-24.494c25.676,0.092 81.71,-5.151 95.444,-13.791c-13.284,-9.198 -69.922,-13.801 -95.429,-13.781l67.162,-24.429c36.322,10.71 90.368,38.215 90.368,38.215Z" style="fill:url(#_Radial55);"/></g><g id="Blend2"><clipPath id="_clip56"><path id="Botom1" serif:id="Botom" d="M461.982,255.971c-4.835,2.444 -54.877,27.831 -89.373,38.06l-66.014,-24.056c18.217,-0.05 50.143,-2.587 72.455,-6.989c9.806,-1.935 17.758,-4.234 21.893,-6.835c0.06,-0.038 0.098,-0.104 0.099,-0.176c0.002,-0.072 -0.033,-0.139 -0.092,-0.18c-4,-2.77 -11.915,-5.132 -21.73,-7.071c-22.324,-4.41 -54.498,-6.662 -72.615,-6.746l65.964,-23.994c34.54,10.199 84.578,35.542 89.413,37.987Z"/></clipPath><g clip-path="url(#_clip56)"><path d="M400.827,255.971l62.103,0c-0,0 -54.052,27.543 -90.328,38.284l-67.217,-24.494c25.675,0.092 81.705,-5.15 95.442,-13.79Z" style="fill:url(#_Radial57);"/></g><path id="Bend2" serif:id="Bend" d="M401.042,255.975l61.416,-0" style="fill:none;stroke:url(#_Radial58);stroke-width:0.47px;"/></g><g id="Highlights5" serif:id="Highlights"><path id="Border4" serif:id="Border" d="M462.93,255.975c-0,-0 -54.052,27.539 -90.328,38.28l-67.217,-24.494c25.676,0.092 81.71,-5.151 95.444,-13.791c-13.284,-9.198 -69.922,-13.801 -95.429,-13.781l67.162,-24.429c36.322,10.71 90.368,38.215 90.368,38.215Zm-0.946,-0c-6.626,-3.338 -55.63,-27.779 -89.408,-37.766l-64.783,23.564c18.319,0.174 49.612,2.424 71.469,6.742c9.852,1.946 17.794,4.324 21.81,7.105c0.118,0.081 0.187,0.216 0.184,0.36c-0.004,0.143 -0.078,0.275 -0.2,0.351c-4.148,2.61 -12.126,4.923 -21.964,6.864c-21.846,4.311 -52.903,6.834 -71.306,6.986l64.83,23.625c33.735,-10.016 82.742,-34.489 89.368,-37.831Z" style="fill:url(#_Radial59);"/><path id="Border5" serif:id="Border" d="M462.93,255.975c-0,-0 -54.052,27.539 -90.328,38.28l-67.217,-24.494c25.676,0.092 81.71,-5.151 95.444,-13.791c-13.284,-9.198 -69.922,-13.801 -95.429,-13.781l67.162,-24.429c36.322,10.71 90.368,38.215 90.368,38.215Zm-0.946,-0c-6.626,-3.338 -55.63,-27.779 -89.408,-37.766l-64.783,23.564c18.319,0.174 49.612,2.424 71.469,6.742c9.852,1.946 17.794,4.324 21.81,7.105c0.118,0.081 0.187,0.216 0.184,0.36c-0.004,0.143 -0.078,0.275 -0.2,0.351c-4.148,2.61 -12.126,4.923 -21.964,6.864c-21.846,4.311 -52.903,6.834 -71.306,6.986l64.83,23.625c33.735,-10.016 82.742,-34.489 89.368,-37.831Z" style="fill:url(#_Radial60);"/><path id="Border6" serif:id="Border" d="M462.93,255.975c-0,-0 -54.052,27.539 -90.328,38.28l-67.217,-24.494c25.676,0.092 81.71,-5.151 95.444,-13.791c-13.284,-9.198 -69.922,-13.801 -95.429,-13.781l67.162,-24.429c36.322,10.71 90.368,38.215 90.368,38.215Zm-0.946,-0c-6.626,-3.338 -55.63,-27.779 -89.408,-37.766l-64.783,23.564c18.319,0.174 49.612,2.424 71.469,6.742c9.852,1.946 17.794,4.324 21.81,7.105c0.118,0.081 0.187,0.216 0.184,0.36c-0.004,0.143 -0.078,0.275 -0.2,0.351c-4.148,2.61 -12.126,4.923 -21.964,6.864c-21.846,4.311 -52.903,6.834 -71.306,6.986l64.83,23.625c33.735,-10.016 82.742,-34.489 89.368,-37.831Z" style="fill:url(#_Radial61);"/><path id="Border7" serif:id="Border" d="M462.93,255.975c-0,-0 -54.052,27.539 -90.328,38.28l-67.217,-24.494c25.676,0.092 81.71,-5.151 95.444,-13.791c-13.284,-9.198 -69.922,-13.801 -95.429,-13.781l67.162,-24.429c36.322,10.71 90.368,38.215 90.368,38.215Zm-0.946,-0c-6.626,-3.338 -55.63,-27.779 -89.408,-37.766l-64.783,23.564c18.319,0.174 49.612,2.424 71.469,6.742c9.852,1.946 17.794,4.324 21.81,7.105c0.118,0.081 0.187,0.216 0.184,0.36c-0.004,0.143 -0.078,0.275 -0.2,0.351c-4.148,2.61 -12.126,4.923 -21.964,6.864c-21.846,4.311 -52.903,6.834 -71.306,6.986l64.83,23.625c33.735,-10.016 82.742,-34.489 89.368,-37.831Z" style="fill:url(#_Radial62);"/></g></g><g id="NE2" serif:id="NE"><g id="Color"><path id="Base30" serif:id="Base" d="M395.068,116.924c-7.272,7.292 -21.781,75.194 -38.537,89.903c-16.454,14.445 -42.599,17.236 -60.573,22.044c50.756,-26.948 46.841,-59.591 62.462,-75.301c-15.576,15.675 -46.981,8.259 -74.027,58.967c4.798,-17.881 6.465,-40.48 20.798,-57.111c14.516,-16.842 82.634,-31.254 89.877,-38.502Z" style="fill:#4300c0;"/><path id="Purple" d="M395.068,116.924c-7.272,7.292 -21.781,75.194 -38.537,89.903c-16.454,14.445 -42.599,17.236 -60.573,22.044c50.755,-26.947 46.841,-59.591 62.462,-75.301c-15.576,15.675 -46.981,8.259 -74.027,58.967c4.798,-17.881 6.465,-40.48 20.798,-57.111c14.516,-16.842 82.634,-31.254 89.877,-38.502Z" style="fill:url(#_Radial63);"/><path id="Purple1" serif:id="Purple" d="M395.068,116.924c-7.272,7.292 -21.781,75.194 -38.537,89.903c-16.454,14.445 -42.599,17.236 -60.573,22.044c50.755,-26.947 46.841,-59.591 62.462,-75.301c-15.576,15.675 -46.981,8.259 -74.027,58.967c4.798,-17.881 6.465,-40.48 20.798,-57.111c14.516,-16.842 82.634,-31.254 89.877,-38.502Z" style="fill:url(#_Radial64);"/><path id="Purple2" serif:id="Purple" d="M395.068,116.924c-7.272,7.292 -21.781,75.194 -38.537,89.903c-16.454,14.445 -42.599,17.236 -60.573,22.044c50.755,-26.947 46.841,-59.591 62.462,-75.301c-15.576,15.675 -46.981,8.259 -74.027,58.967c4.798,-17.881 6.465,-40.48 20.798,-57.111c14.516,-16.842 82.634,-31.254 89.877,-38.502Z" style="fill:url(#_Radial65);"/></g><g id="Highlights6" serif:id="Highlights"><path id="Bottom-Border" serif:id="Bottom Border" d="M348.731,160.194c-16.91,8.251 -42.098,10.645 -64.338,52.343c4.798,-17.881 6.465,-40.48 20.798,-57.111c14.516,-16.842 82.634,-31.254 89.877,-38.502c-7.272,7.292 -21.781,75.194 -38.537,89.903c-16.454,14.445 -42.598,17.236 -60.572,22.044c41.933,-22.264 46.549,-48.415 55.696,-65.693c1.923,-3.633 4.046,-6.873 6.758,-9.602c-2.766,2.782 -6.031,4.837 -9.682,6.618Zm3.234,3.3c-2.474,4.694 -4.616,10.043 -7.275,15.787c-6.908,14.927 -17.241,32.517 -45.536,48.335c17.705,-4.323 41.673,-7.571 57.096,-21.11c3.988,-3.501 7.837,-10.047 11.5,-18.065c5.535,-12.114 10.622,-27.579 15.032,-41.09c3.439,-10.536 6.468,-19.888 8.974,-25.553c0.532,-1.202 1.043,-2.241 1.531,-3.095c-1.286,0.73 -2.991,1.515 -5.041,2.346c-8.031,3.254 -21.419,7.3 -35.254,11.933c-11.83,3.962 -23.987,8.353 -33.384,13.05c-6.215,3.105 -11.219,6.337 -14.094,9.672c-13.425,15.578 -15.682,36.418 -19.873,53.665c15.854,-28.217 33.049,-37.329 47.621,-43.27c5.501,-2.243 10.627,-4.023 15.158,-6.222c0.877,-0.336 2.033,-0.966 3.288,-1.744c1.44,-0.84 2.803,-1.755 4.082,-2.779c1.026,-0.753 1.994,-1.503 2.807,-2.172c0.738,-0.607 1.349,-1.148 1.762,-1.564c-0.407,0.44 -0.94,1.059 -1.543,1.794c-0.71,0.866 -1.517,1.893 -2.328,2.977c-0.786,0.989 -1.521,2.031 -2.219,3.119c-0.996,1.488 -1.841,2.902 -2.304,3.986Z" style="fill:url(#_Radial66);"/><path id="Bottom-Border1" serif:id="Bottom Border" d="M348.731,160.194c-16.91,8.251 -42.098,10.645 -64.338,52.343c4.798,-17.881 6.465,-40.48 20.798,-57.111c14.516,-16.842 82.634,-31.254 89.877,-38.502c-7.272,7.292 -21.781,75.194 -38.537,89.903c-16.454,14.445 -42.598,17.236 -60.572,22.044c41.933,-22.264 46.549,-48.415 55.696,-65.693c1.923,-3.633 4.046,-6.873 6.758,-9.602c-2.766,2.782 -6.031,4.837 -9.682,6.618Zm3.234,3.3c-2.474,4.694 -4.616,10.043 -7.275,15.787c-6.908,14.927 -17.241,32.517 -45.536,48.335c17.705,-4.323 41.673,-7.571 57.096,-21.11c3.988,-3.501 7.837,-10.047 11.5,-18.065c5.535,-12.114 10.622,-27.579 15.032,-41.09c3.439,-10.536 6.468,-19.888 8.974,-25.553c0.532,-1.202 1.043,-2.241 1.531,-3.095c-1.286,0.73 -2.991,1.515 -5.041,2.346c-8.031,3.254 -21.419,7.3 -35.254,11.933c-11.83,3.962 -23.987,8.353 -33.384,13.05c-6.215,3.105 -11.219,6.337 -14.094,9.672c-13.425,15.578 -15.682,36.418 -19.873,53.665c15.854,-28.217 33.049,-37.329 47.621,-43.27c5.501,-2.243 10.627,-4.023 15.158,-6.222c0.877,-0.336 2.033,-0.966 3.288,-1.744c1.44,-0.84 2.803,-1.755 4.082,-2.779c1.026,-0.753 1.994,-1.503 2.807,-2.172c0.738,-0.607 1.349,-1.148 1.762,-1.564c-0.407,0.44 -0.94,1.059 -1.543,1.794c-0.71,0.866 -1.517,1.893 -2.328,2.977c-0.786,0.989 -1.521,2.031 -2.219,3.119c-0.996,1.488 -1.841,2.902 -2.304,3.986Z" style="fill:url(#_Radial67);"/><path id="Top-Border10" serif:id="Top Border" d="M348.731,160.194c-16.91,8.251 -42.098,10.645 -64.338,52.343c4.798,-17.881 6.465,-40.48 20.798,-57.111c14.516,-16.842 82.634,-31.254 89.877,-38.502c-7.272,7.292 -21.781,75.194 -38.537,89.903c-16.454,14.445 -42.598,17.236 -60.572,22.044c41.933,-22.264 46.549,-48.415 55.696,-65.693c1.923,-3.633 4.046,-6.873 6.758,-9.602c-2.766,2.782 -6.031,4.837 -9.682,6.618Zm3.234,3.3c-2.474,4.694 -4.616,10.043 -7.275,15.787c-6.908,14.927 -17.241,32.517 -45.536,48.335c17.705,-4.323 41.673,-7.571 57.096,-21.11c3.988,-3.501 7.837,-10.047 11.5,-18.065c5.535,-12.114 10.622,-27.579 15.032,-41.09c3.439,-10.536 6.468,-19.888 8.974,-25.553c0.532,-1.202 1.043,-2.241 1.531,-3.095c-1.286,0.73 -2.991,1.515 -5.041,2.346c-8.031,3.254 -21.419,7.3 -35.254,11.933c-11.83,3.962 -23.987,8.353 -33.384,13.05c-6.215,3.105 -11.219,6.337 -14.094,9.672c-13.425,15.578 -15.682,36.418 -19.873,53.665c15.854,-28.217 33.049,-37.329 47.621,-43.27c5.501,-2.243 10.627,-4.023 15.158,-6.222c0.877,-0.336 2.033,-0.966 3.288,-1.744c1.44,-0.84 2.803,-1.755 4.082,-2.779c1.026,-0.753 1.994,-1.503 2.807,-2.172c0.738,-0.607 1.349,-1.148 1.762,-1.564c-0.407,0.44 -0.94,1.059 -1.543,1.794c-0.71,0.866 -1.517,1.893 -2.328,2.977c-0.786,0.989 -1.521,2.031 -2.219,3.119c-0.996,1.488 -1.841,2.902 -2.304,3.986Z" style="fill:url(#_Radial68);"/></g></g><g id="N"><g id="Colors"><path id="Base31" serif:id="Base" d="M256,49.045c0,-0 27.541,54.052 38.282,90.327l-20.957,57.511c0.092,-25.675 -8.687,-72.004 -17.327,-85.738c-9.199,13.284 -17.35,60.167 -17.33,85.674l-20.881,-57.407c10.711,-36.322 38.213,-90.367 38.213,-90.367Z" style="fill:url(#_Linear69);"/><path id="Blue" d="M256,49.045c0,-0 27.541,54.052 38.282,90.327l-20.957,57.511c0.092,-25.675 -8.687,-72.004 -17.327,-85.738c-9.199,13.284 -17.35,60.167 -17.33,85.674l-20.881,-57.407c10.711,-36.322 38.213,-90.367 38.213,-90.367Z" style="fill:url(#_Radial70);"/><path id="Purple3" serif:id="Purple" d="M256,49.045c0,-0 27.541,54.052 38.282,90.327l-20.957,57.511c0.092,-25.675 -8.687,-72.004 -17.327,-85.738c-9.199,13.284 -17.35,60.167 -17.33,85.674l-20.881,-57.407c10.711,-36.322 38.213,-90.367 38.213,-90.367Z" style="fill:url(#_Radial71);"/></g><g id="Blend3" serif:id="Blend"><path id="Left-Spill" serif:id="Left Spill" d="M256.002,111.152l-0.002,-62.107c0,-0 27.541,54.052 38.282,90.327l-20.957,57.511c0.092,-25.67 -8.684,-71.987 -17.323,-85.731Z" style="fill:url(#_Linear72);"/><path id="Left-Highlight" serif:id="Left Highlight" d="M256.002,111.152c-0.001,-0.002 -0.003,-0.004 -0.004,-0.007c-9.199,13.284 -17.35,60.167 -17.33,85.674l-20.881,-57.407c10.52,-35.676 37.265,-88.451 38.213,-90.317l0.002,62.057Z" style="fill:url(#_Radial73);"/><path id="Left-border-highlight" serif:id="Left border highlight" d="M256.002,111.152l-0.004,-0.007c-9.199,13.284 -17.35,60.167 -17.33,85.674l-20.881,-57.407c10.52,-35.676 37.265,-88.451 38.213,-90.317l0.002,62.057Zm-0.426,-0.146l-0.003,-60.117c-4.667,9.31 -27.717,55.973 -37.337,88.509l20.025,55.053c0.313,-17.947 4.202,-44.757 9.522,-63.877c2.374,-8.533 5.04,-15.539 7.793,-19.568Z" style="fill:url(#_Radial74);"/></g><g id="Highlights7" serif:id="Highlights"><path id="Right-border" serif:id="Right border" d="M256,49.045c0,-0 27.541,54.052 38.282,90.327l-20.957,57.511c0.092,-25.675 -8.687,-72.004 -17.327,-85.738c-9.199,13.284 -17.35,60.167 -17.33,85.674l-20.881,-57.407c10.711,-36.322 38.213,-90.367 38.213,-90.367Zm0,0.945c-3.341,6.626 -27.777,55.63 -37.764,89.408l20.025,55.055c0.313,-17.947 4.202,-44.758 9.522,-63.879c2.395,-8.607 5.086,-15.66 7.864,-19.672c0.081,-0.118 0.217,-0.187 0.36,-0.183c0.143,0.003 0.275,0.078 0.352,0.199c8.403,13.358 16.955,57.459 17.377,83.591l20.097,-55.15c-10.015,-33.736 -34.494,-82.742 -37.833,-89.369Z" style="fill:url(#_Radial75);"/><path id="Left-border" serif:id="Left border" d="M256,49.045c0,-0 27.541,54.052 38.282,90.327l-20.957,57.511c0.092,-25.675 -8.687,-72.004 -17.327,-85.738c-9.199,13.284 -17.35,60.167 -17.33,85.674l-20.881,-57.407c10.711,-36.322 38.213,-90.367 38.213,-90.367Zm0,0.945c-3.341,6.626 -27.777,55.63 -37.764,89.408l20.025,55.055c0.313,-17.947 4.202,-44.758 9.522,-63.879c2.395,-8.607 5.086,-15.66 7.864,-19.672c0.081,-0.118 0.217,-0.187 0.36,-0.183c0.143,0.003 0.275,0.078 0.352,0.199c8.403,13.358 16.955,57.459 17.377,83.591l20.097,-55.15c-10.015,-33.736 -34.494,-82.742 -37.833,-89.369Z" style="fill:url(#_Radial76);"/></g></g></g></g><defs><radialGradient id="_Radial1" cx="0" cy="0" r="1" gradientUnits="userSpaceOnUse" gradientTransform="matrix(52.9012,-76.6405,54.6056,75.4876,211.239,274.481)"><stop offset="0" style="stop-color:#38ffff;stop-opacity:1"/><stop offset="0.52" style="stop-color:#2bc7f2;stop-opacity:1"/><stop offset="1" style="stop-color:#0015ca;stop-opacity:1"/></radialGradient><radialGradient id="_Radial2" cx="0" cy="0" r="1" gradientUnits="userSpaceOnUse" gradientTransform="matrix(38.3255,64.0881,-29.2518,35.3385,224.164,256.14)"><stop offset="0" style="stop-color:#0015ca;stop-opacity:1"/><stop offset="1" style="stop-color:#000;stop-opacity:1"/></radialGradient><radialGradient id="_Radial3" cx="0" cy="0" r="1" gradientUnits="userSpaceOnUse" gradientTransform="matrix(-43.8072,63.8525,-32.3149,-44.4066,287.783,256.125)"><stop offset="0" style="stop-color:#4300c0;stop-opacity:1"/><stop offset="0.5" style="stop-color:#32008f;stop-opacity:1"/><stop offset="1" style="stop-color:#000;stop-opacity:1"/></radialGradient><radialGradient id="_Radial4" cx="0" cy="0" r="1" gradientUnits="userSpaceOnUse" gradientTransform="matrix(-39.5367,-54.0674,37.765,-55.3195,291.395,257.989)"><stop offset="0" style="stop-color:#ff50e5;stop-opacity:1"/><stop offset="1" style="stop-color:#4300c0;stop-opacity:1"/></radialGradient><radialGradient id="_Radial5" cx="0" cy="0" r="1" gradientUnits="userSpaceOnUse" gradientTransform="matrix(38.1874,-0.52484,0.595394,43.3209,226.852,243.911)"><stop offset="0" style="stop-color:#38ffff;stop-opacity:1"/><stop offset="0.65" style="stop-color:#38ffff;stop-opacity:0.86"/><stop offset="1" style="stop-color:#38ffff;stop-opacity:0"/></radialGradient><radialGradient id="_Radial6" cx="0" cy="0" r="1" gradientUnits="userSpaceOnUse" gradientTransform="matrix(-17.2594,12.7099,-19.1317,-25.9798,224.449,268.622)"><stop offset="0" style="stop-color:#38ffff;stop-opacity:0.3"/><stop offset="0.65" style="stop-color:#38ffff;stop-opacity:0.25"/><stop offset="1" style="stop-color:#38ffff;stop-opacity:0"/></radialGradient><radialGradient id="_Radial7" cx="0" cy="0" r="1" gradientUnits="userSpaceOnUse" gradientTransform="matrix(-17.2594,12.7099,-19.1317,-25.9798,274.398,279.757)"><stop offset="0" style="stop-color:#38ffff;stop-opacity:0.1"/><stop offset="0.65" style="stop-color:#38ffff;stop-opacity:0.08"/><stop offset="1" style="stop-color:#38ffff;stop-opacity:0"/></radialGradient><radialGradient id="_Radial8" cx="0" cy="0" r="1" gradientUnits="userSpaceOnUse" gradientTransform="matrix(-20.7003,34.258,-17.8114,-10.7625,291.015,274.354)"><stop offset="0" style="stop-color:#ff50e5;stop-opacity:0.6"/><stop offset="0.65" style="stop-color:#ff50e5;stop-opacity:0.51"/><stop offset="1" style="stop-color:#ff50e5;stop-opacity:0"/></radialGradient><radialGradient id="_Radial9" cx="0" cy="0" r="1" gradientUnits="userSpaceOnUse" gradientTransform="matrix(-20.7003,34.258,-17.8114,-10.7625,237.363,286.774)"><stop offset="0" style="stop-color:#ff50e5;stop-opacity:0.21"/><stop offset="0.65" style="stop-color:#ff50e5;stop-opacity:0.18"/><stop offset="1" style="stop-color:#ff50e5;stop-opacity:0"/></radialGradient><radialGradient id="_Radial10" cx="0" cy="0" r="1" gradientUnits="userSpaceOnUse" gradientTransform="matrix(-30.9415,-35.9534,29.7655,-25.6162,291.994,247.469)"><stop offset="0" style="stop-color:#ff50e5;stop-opacity:1"/><stop offset="0.65" style="stop-color:#ff50e5;stop-opacity:0.86"/><stop offset="1" style="stop-color:#ff50e5;stop-opacity:0"/></radialGradient><radialGradient id="_Radial11" cx="0" cy="0" r="1" gradientUnits="userSpaceOnUse" gradientTransform="matrix(-101.488,-73.7098,24.3957,-33.5895,208.624,146.113)"><stop offset="0" style="stop-color:#38ffff;stop-opacity:1"/><stop offset="1" style="stop-color:#38ffff;stop-opacity:0"/></radialGradient><radialGradient id="_Radial12" cx="0" cy="0" r="1" gradientUnits="userSpaceOnUse" gradientTransform="matrix(-85.3855,-64.6151,19.804,-26.17,131.121,173.269)"><stop offset="0" style="stop-color:#38ffff;stop-opacity:1"/><stop offset="1" style="stop-color:#38ffff;stop-opacity:0"/></radialGradient><radialGradient id="_Radial13" cx="0" cy="0" r="1" gradientUnits="userSpaceOnUse" gradientTransform="matrix(-79.4839,-78.1295,39.0267,-39.7032,119.306,125.591)"><stop offset="0" style="stop-color:#38ffff;stop-opacity:1"/><stop offset="0.44" style="stop-color:#38ffff;stop-opacity:0.7"/><stop offset="1" style="stop-color:#38ffff;stop-opacity:0"/></radialGradient><radialGradient id="_Radial14" cx="0" cy="0" r="1" gradientUnits="userSpaceOnUse" gradientTransform="matrix(-25.7872,39.3476,85.1631,55.8133,227.203,153.974)"><stop offset="0" style="stop-color:#38ffff;stop-opacity:1"/><stop offset="0.65" style="stop-color:#38ffff;stop-opacity:0.85"/><stop offset="1" style="stop-color:#38ffff;stop-opacity:0"/></radialGradient><radialGradient id="_Radial15" cx="0" cy="0" r="1" gradientUnits="userSpaceOnUse" gradientTransform="matrix(-5.81548,12.7135,59.2451,27.1001,96.3947,118.878)"><stop offset="0" style="stop-color:#38ffff;stop-opacity:1"/><stop offset="0.65" style="stop-color:#38ffff;stop-opacity:0.86"/><stop offset="1" style="stop-color:#38ffff;stop-opacity:0"/></radialGradient><radialGradient id="_Radial16" cx="0" cy="0" r="1" gradientUnits="userSpaceOnUse" gradientTransform="matrix(-20.4673,37.5351,63.7373,34.7549,127.927,191.943)"><stop offset="0" style="stop-color:#38ffff;stop-opacity:1"/><stop offset="0.64" style="stop-color:#38ffff;stop-opacity:0.85"/><stop offset="0.83" style="stop-color:#38ffff;stop-opacity:0.45"/><stop offset="1" style="stop-color:#38ffff;stop-opacity:0"/></radialGradient><radialGradient id="_Radial17" cx="0" cy="0" r="1" gradientUnits="userSpaceOnUse" gradientTransform="matrix(-11.9122,8.47453,40.4424,56.8475,116.52,138.168)"><stop offset="0" style="stop-color:#38ffff;stop-opacity:1"/><stop offset="0.64" style="stop-color:#38ffff;stop-opacity:0.85"/><stop offset="0.83" style="stop-color:#38ffff;stop-opacity:0.45"/><stop offset="1" style="stop-color:#38ffff;stop-opacity:0"/></radialGradient><radialGradient id="_Radial18" cx="0" cy="0" r="1" gradientUnits="userSpaceOnUse" gradientTransform="matrix(-84.2698,15.3515,7.24162,39.7519,131.136,296.024)"><stop offset="0" style="stop-color:#38ffff;stop-opacity:1"/><stop offset="1" style="stop-color:#38ffff;stop-opacity:0"/></radialGradient><radialGradient id="_Radial19" cx="0" cy="0" r="1" gradientUnits="userSpaceOnUse" gradientTransform="matrix(-88.8209,-0.577393,-0.26266,40.4052,63.3845,265.561)"><stop offset="0" style="stop-color:#38ffff;stop-opacity:1"/><stop offset="1" style="stop-color:#38ffff;stop-opacity:0"/></radialGradient><radialGradient id="_Radial20" cx="0" cy="0" r="1" gradientUnits="userSpaceOnUse" gradientTransform="matrix(12.7426,77.8954,152.901,-28.4231,63.6664,243.341)"><stop offset="0" style="stop-color:#38ffff;stop-opacity:1"/><stop offset="1" style="stop-color:#38ffff;stop-opacity:0"/></radialGradient><radialGradient id="_Radial22" cx="0" cy="0" r="1" gradientUnits="userSpaceOnUse" gradientTransform="matrix(-9.95032,-64.0907,-255.615,39.6852,58.2176,216.603)"><stop offset="0" style="stop-color:#0015ca;stop-opacity:0.6"/><stop offset="0.45" style="stop-color:#0015ca;stop-opacity:0.42"/><stop offset="1" style="stop-color:#0015ca;stop-opacity:0"/></radialGradient><radialGradient id="_Radial23" cx="0" cy="0" r="1" gradientUnits="userSpaceOnUse" gradientTransform="matrix(-33.6172,0.18243,0.0933028,17.1933,83.3327,257.096)"><stop offset="0" style="stop-color:#38ffff;stop-opacity:0.61"/><stop offset="0.61" style="stop-color:#38ffff;stop-opacity:0.51"/><stop offset="0.82" style="stop-color:#38ffff;stop-opacity:0.26"/><stop offset="1" style="stop-color:#38ffff;stop-opacity:0"/></radialGradient><radialGradient id="_Radial24" cx="0" cy="0" r="1" gradientUnits="userSpaceOnUse" gradientTransform="matrix(-87.2727,4.71884,1.38912,25.6912,130.768,290.168)"><stop offset="0" style="stop-color:#38ffff;stop-opacity:1"/><stop offset="0.58" style="stop-color:#38ffff;stop-opacity:0.81"/><stop offset="0.8" style="stop-color:#38ffff;stop-opacity:0.4"/><stop offset="1" style="stop-color:#38ffff;stop-opacity:0"/></radialGradient><radialGradient id="_Radial25" cx="0" cy="0" r="1" gradientUnits="userSpaceOnUse" gradientTransform="matrix(-110.789,4.19039,1.4159,37.4346,151.526,218.395)"><stop offset="0" style="stop-color:#38ffff;stop-opacity:1"/><stop offset="1" style="stop-color:#38ffff;stop-opacity:0"/></radialGradient><radialGradient id="_Radial26" cx="0" cy="0" r="1" gradientUnits="userSpaceOnUse" gradientTransform="matrix(48.2465,43.6566,34.3728,-37.9866,89.0217,233.849)"><stop offset="0" style="stop-color:#38ffff;stop-opacity:1"/><stop offset="0.55" style="stop-color:#38ffff;stop-opacity:0.79"/><stop offset="1" style="stop-color:#38ffff;stop-opacity:0"/></radialGradient><radialGradient id="_Radial27" cx="0" cy="0" r="1" gradientUnits="userSpaceOnUse" gradientTransform="matrix(4.03891,15.0834,49.4862,-13.251,141.316,249.915)"><stop offset="0" style="stop-color:#38ffff;stop-opacity:1"/><stop offset="0.47" style="stop-color:#38ffff;stop-opacity:0.73"/><stop offset="1" style="stop-color:#38ffff;stop-opacity:0"/></radialGradient><radialGradient id="_Radial28" cx="0" cy="0" r="1" gradientUnits="userSpaceOnUse" gradientTransform="matrix(-87.5076,85.1015,28.9428,29.7611,183.973,374.002)"><stop offset="0" style="stop-color:#38ffff;stop-opacity:1"/><stop offset="1" style="stop-color:#38ffff;stop-opacity:0"/></radialGradient><radialGradient id="_Radial29" cx="0" cy="0" r="1" gradientUnits="userSpaceOnUse" gradientTransform="matrix(-87.5076,85.1015,28.9428,29.7611,141.847,385.857)"><stop offset="0" style="stop-color:#38ffff;stop-opacity:1"/><stop offset="1" style="stop-color:#38ffff;stop-opacity:0"/></radialGradient><radialGradient id="_Radial30" cx="0" cy="0" r="1" gradientUnits="userSpaceOnUse" gradientTransform="matrix(-84.7782,93.2293,20.7463,18.8657,122.162,380.658)"><stop offset="0" style="stop-color:#38ffff;stop-opacity:1"/><stop offset="1" style="stop-color:#38ffff;stop-opacity:0"/></radialGradient><radialGradient id="_Radial31" cx="0" cy="0" r="1" gradientUnits="userSpaceOnUse" gradientTransform="matrix(-52.8561,36.4213,28.0646,40.7285,130.317,314.194)"><stop offset="0" style="stop-color:#38ffff;stop-opacity:1"/><stop offset="1" style="stop-color:#38ffff;stop-opacity:0"/></radialGradient><radialGradient id="_Radial32" cx="0" cy="0" r="1" gradientUnits="userSpaceOnUse" gradientTransform="matrix(-20.4673,-37.5351,63.7373,-34.7549,213.782,366.047)"><stop offset="0" style="stop-color:#38ffff;stop-opacity:1"/><stop offset="0.65" style="stop-color:#38ffff;stop-opacity:0.85"/><stop offset="1" style="stop-color:#38ffff;stop-opacity:0"/></radialGradient><radialGradient id="_Radial33" cx="0" cy="0" r="1" gradientUnits="userSpaceOnUse" gradientTransform="matrix(-5.81548,-12.7135,59.2451,-27.1001,100.744,360.63)"><stop offset="0" style="stop-color:#38ffff;stop-opacity:1"/><stop offset="0.65" style="stop-color:#38ffff;stop-opacity:0.86"/><stop offset="1" style="stop-color:#38ffff;stop-opacity:0"/></radialGradient><radialGradient id="_Radial34" cx="0" cy="0" r="1" gradientUnits="userSpaceOnUse" gradientTransform="matrix(-20.4673,-37.5351,63.7373,-34.7549,127.927,320.001)"><stop offset="0" style="stop-color:#38ffff;stop-opacity:1"/><stop offset="0.64" style="stop-color:#38ffff;stop-opacity:0.85"/><stop offset="0.83" style="stop-color:#38ffff;stop-opacity:0.45"/><stop offset="1" style="stop-color:#38ffff;stop-opacity:0"/></radialGradient><linearGradient id="_Linear35" x1="0" y1="0" x2="1" y2="0" gradientUnits="userSpaceOnUse" gradientTransform="matrix(77.4164,-0.215645,0.215645,77.4164,217.514,372.374)"><stop offset="0" style="stop-color:#0015ca;stop-opacity:1"/><stop offset="1" style="stop-color:#4300c0;stop-opacity:1"/></linearGradient><radialGradient id="_Radial36" cx="0" cy="0" r="1" gradientUnits="userSpaceOnUse" gradientTransform="matrix(29.7473,95.0322,-49.1663,15.3902,217.286,375.758)"><stop offset="0" style="stop-color:#38ffff;stop-opacity:1"/><stop offset="1" style="stop-color:#38ffff;stop-opacity:0"/></radialGradient><radialGradient id="_Radial37" cx="0" cy="0" r="1" gradientUnits="userSpaceOnUse" gradientTransform="matrix(12.3069,-114.25,59.1092,6.36716,294.944,407.263)"><stop offset="0" style="stop-color:#ff50e5;stop-opacity:1"/><stop offset="1" style="stop-color:#ff50e5;stop-opacity:0"/></radialGradient><radialGradient id="_Radial38" cx="0" cy="0" r="1" gradientUnits="userSpaceOnUse" gradientTransform="matrix(54.0695,-2.39923,3.14937,70.975,240.621,438.759)"><stop offset="0" style="stop-color:#ff50e5;stop-opacity:1"/><stop offset="0.19" style="stop-color:#ff50e5;stop-opacity:0.58"/><stop offset="0.4" style="stop-color:#ff50e5;stop-opacity:0.18"/><stop offset="1" style="stop-color:#ff50e5;stop-opacity:0"/></radialGradient><radialGradient id="_Radial39" cx="0" cy="0" r="1" gradientUnits="userSpaceOnUse" gradientTransform="matrix(27.9955,-1.92515,4.87399,70.8775,269.225,462.741)"><stop offset="0" style="stop-color:#ff50e5;stop-opacity:0.54"/><stop offset="0.46" style="stop-color:#ff50e5;stop-opacity:0.39"/><stop offset="1" style="stop-color:#ff50e5;stop-opacity:0"/></radialGradient><radialGradient id="_Radial40" cx="0" cy="0" r="1" gradientUnits="userSpaceOnUse" gradientTransform="matrix(81.5634,14.6304,-37.2294,207.551,291.132,439.596)"><stop offset="0" style="stop-color:#ff50e5;stop-opacity:1"/><stop offset="0.19" style="stop-color:#b22fd6;stop-opacity:0.59"/><stop offset="0.41" style="stop-color:#650fc7;stop-opacity:0.18"/><stop offset="1" style="stop-color:#4300c0;stop-opacity:0"/></radialGradient><radialGradient id="_Radial41" cx="0" cy="0" r="1" gradientUnits="userSpaceOnUse" gradientTransform="matrix(-0.182295,33.1071,-17.1933,-0.0919562,254.623,428.5)"><stop offset="0" style="stop-color:#ff50e5;stop-opacity:0.65"/><stop offset="0.55" style="stop-color:#ff50e5;stop-opacity:0.52"/><stop offset="1" style="stop-color:#ff50e5;stop-opacity:0"/></radialGradient><radialGradient id="_Radial42" cx="0" cy="0" r="1" gradientUnits="userSpaceOnUse" gradientTransform="matrix(-1.18856e-14,73.9099,-38.2384,-6.14921e-15,215.427,383.612)"><stop offset="0" style="stop-color:#38ffff;stop-opacity:1"/><stop offset="0.44" style="stop-color:#38ffff;stop-opacity:0.7"/><stop offset="1" style="stop-color:#38ffff;stop-opacity:0"/></radialGradient><radialGradient id="_Radial43" cx="0" cy="0" r="1" gradientUnits="userSpaceOnUse" gradientTransform="matrix(2.10874e-15,34.4384,-17.8172,1.09099e-15,237.371,383.474)"><stop offset="0" style="stop-color:#38ffff;stop-opacity:1"/><stop offset="0.44" style="stop-color:#38ffff;stop-opacity:0.7"/><stop offset="1" style="stop-color:#38ffff;stop-opacity:0"/></radialGradient><radialGradient id="_Radial44" cx="0" cy="0" r="1" gradientUnits="userSpaceOnUse" gradientTransform="matrix(-1.18856e-14,73.9099,-38.2384,-6.14921e-15,287.228,425.81)"><stop offset="0" style="stop-color:#ff50e5;stop-opacity:1"/><stop offset="0.61" style="stop-color:#ff50e5;stop-opacity:0.83"/><stop offset="0.82" style="stop-color:#ff50e5;stop-opacity:0.43"/><stop offset="1" style="stop-color:#ff50e5;stop-opacity:0"/></radialGradient><radialGradient id="_Radial45" cx="0" cy="0" r="1" gradientUnits="userSpaceOnUse" gradientTransform="matrix(-1.18856e-14,73.9099,-38.2384,-6.14921e-15,296.385,386.069)"><stop offset="0" style="stop-color:#ff50e5;stop-opacity:1"/><stop offset="0.61" style="stop-color:#ff50e5;stop-opacity:0.83"/><stop offset="0.82" style="stop-color:#ff50e5;stop-opacity:0.43"/><stop offset="1" style="stop-color:#ff50e5;stop-opacity:0"/></radialGradient><radialGradient id="_Radial46" cx="0" cy="0" r="1" gradientUnits="userSpaceOnUse" gradientTransform="matrix(0.860275,71.2884,-42.8408,0.516982,320.148,374.572)"><stop offset="0" style="stop-color:#ff50e5;stop-opacity:1"/><stop offset="1" style="stop-color:#ff50e5;stop-opacity:0"/></radialGradient><radialGradient id="_Radial47" cx="0" cy="0" r="1" gradientUnits="userSpaceOnUse" gradientTransform="matrix(85.3855,64.6151,-19.804,26.17,411.863,359.718)"><stop offset="0" style="stop-color:#ff50e5;stop-opacity:1"/><stop offset="0.52" style="stop-color:#ff50e5;stop-opacity:0.76"/><stop offset="1" style="stop-color:#ff50e5;stop-opacity:0"/></radialGradient><radialGradient id="_Radial48" cx="0" cy="0" r="1" gradientUnits="userSpaceOnUse" gradientTransform="matrix(85.3855,64.6151,-19.804,26.17,411.105,350.237)"><stop offset="0" style="stop-color:#ff50e5;stop-opacity:1"/><stop offset="0.51" style="stop-color:#ff50e5;stop-opacity:0.26"/><stop offset="1" style="stop-color:#ff50e5;stop-opacity:0"/></radialGradient><radialGradient id="_Radial49" cx="0" cy="0" r="1" gradientUnits="userSpaceOnUse" gradientTransform="matrix(83.9309,85.0363,-40.7934,40.2631,400.144,397.625)"><stop offset="0" style="stop-color:#ff50e5;stop-opacity:1"/><stop offset="0.52" style="stop-color:#ff50e5;stop-opacity:0.76"/><stop offset="1" style="stop-color:#ff50e5;stop-opacity:0"/></radialGradient><radialGradient id="_Radial50" cx="0" cy="0" r="1" gradientUnits="userSpaceOnUse" gradientTransform="matrix(20.4673,-37.5351,-63.7373,-34.7549,307.164,366.047)"><stop offset="0" style="stop-color:#ff50e5;stop-opacity:1"/><stop offset="0.65" style="stop-color:#ff50e5;stop-opacity:0.85"/><stop offset="1" style="stop-color:#ff50e5;stop-opacity:0"/></radialGradient><radialGradient id="_Radial51" cx="0" cy="0" r="1" gradientUnits="userSpaceOnUse" gradientTransform="matrix(20.4673,-37.5351,-63.7373,-34.7549,401.42,363.505)"><stop offset="0" style="stop-color:#ff50e5;stop-opacity:1"/><stop offset="0.65" style="stop-color:#ff50e5;stop-opacity:0.86"/><stop offset="1" style="stop-color:#ff50e5;stop-opacity:0"/></radialGradient><radialGradient id="_Radial52" cx="0" cy="0" r="1" gradientUnits="userSpaceOnUse" gradientTransform="matrix(4.49652,-42.5156,-81.1832,-8.58606,380.264,332.089)"><stop offset="0" style="stop-color:#ff50e5;stop-opacity:1"/><stop offset="0.64" style="stop-color:#ff50e5;stop-opacity:0.85"/><stop offset="0.83" style="stop-color:#ff50e5;stop-opacity:0.45"/><stop offset="1" style="stop-color:#ff50e5;stop-opacity:0"/></radialGradient><radialGradient id="_Radial53" cx="0" cy="0" r="1" gradientUnits="userSpaceOnUse" gradientTransform="matrix(78.7682,0.788261,-0.404338,40.4041,385.425,298.198)"><stop offset="0" style="stop-color:#ff50e5;stop-opacity:1"/><stop offset="1" style="stop-color:#ff50e5;stop-opacity:0"/></radialGradient><radialGradient id="_Radial54" cx="0" cy="0" r="1" gradientUnits="userSpaceOnUse" gradientTransform="matrix(-12.7426,77.8954,-152.901,-28.4231,394.507,221.119)"><stop offset="0" style="stop-color:#ff50e5;stop-opacity:1"/><stop offset="1" style="stop-color:#ff50e5;stop-opacity:0"/></radialGradient><radialGradient id="_Radial55" cx="0" cy="0" r="1" gradientUnits="userSpaceOnUse" gradientTransform="matrix(78.5498,-7.74545,1.83649,23.9146,466.567,256.77)"><stop offset="0" style="stop-color:#ff50e5;stop-opacity:1"/><stop offset="1" style="stop-color:#ff50e5;stop-opacity:0"/></radialGradient><radialGradient id="_Radial57" cx="0" cy="0" r="1" gradientUnits="userSpaceOnUse" gradientTransform="matrix(-3.69802,-56.3568,106.883,-7.01344,457.119,239.664)"><stop offset="0" style="stop-color:#4300c0;stop-opacity:0.6"/><stop offset="0.49" style="stop-color:#4300c0;stop-opacity:0.15"/><stop offset="1" style="stop-color:#4300c0;stop-opacity:0"/></radialGradient><radialGradient id="_Radial58" cx="0" cy="0" r="1" gradientUnits="userSpaceOnUse" gradientTransform="matrix(33.6172,0.18243,-0.0933028,17.1933,428.667,257.096)"><stop offset="0" style="stop-color:#ff50e5;stop-opacity:0.61"/><stop offset="0.61" style="stop-color:#ff50e5;stop-opacity:0.51"/><stop offset="0.82" style="stop-color:#ff50e5;stop-opacity:0.26"/><stop offset="1" style="stop-color:#ff50e5;stop-opacity:0"/></radialGradient><radialGradient id="_Radial59" cx="0" cy="0" r="1" gradientUnits="userSpaceOnUse" gradientTransform="matrix(52.9683,1.48257,-0.71986,25.7186,382.165,298.652)"><stop offset="0" style="stop-color:#ff50e5;stop-opacity:1"/><stop offset="0.58" style="stop-color:#ff50e5;stop-opacity:0.81"/><stop offset="0.8" style="stop-color:#ff50e5;stop-opacity:0.4"/><stop offset="1" style="stop-color:#ff50e5;stop-opacity:0"/></radialGradient><radialGradient id="_Radial60" cx="0" cy="0" r="1" gradientUnits="userSpaceOnUse" gradientTransform="matrix(110.789,4.19039,-1.4159,37.4346,360.474,218.395)"><stop offset="0" style="stop-color:#ff50e5;stop-opacity:1"/><stop offset="1" style="stop-color:#ff50e5;stop-opacity:0"/></radialGradient><radialGradient id="_Radial61" cx="0" cy="0" r="1" gradientUnits="userSpaceOnUse" gradientTransform="matrix(-48.2465,43.6566,-34.3728,-37.9866,422.978,233.849)"><stop offset="0" style="stop-color:#ff50e5;stop-opacity:1"/><stop offset="0.55" style="stop-color:#ff50e5;stop-opacity:0.79"/><stop offset="1" style="stop-color:#ff50e5;stop-opacity:0"/></radialGradient><radialGradient id="_Radial62" cx="0" cy="0" r="1" gradientUnits="userSpaceOnUse" gradientTransform="matrix(-4.03891,15.0834,-49.4862,-13.251,370.684,249.915)"><stop offset="0" style="stop-color:#ff50e5;stop-opacity:1"/><stop offset="0.47" style="stop-color:#ff50e5;stop-opacity:0.73"/><stop offset="1" style="stop-color:#ff50e5;stop-opacity:0"/></radialGradient><radialGradient id="_Radial63" cx="0" cy="0" r="1" gradientUnits="userSpaceOnUse" gradientTransform="matrix(52.7516,50.1626,-50.1626,52.7516,384.549,182.092)"><stop offset="0" style="stop-color:#ff50e5;stop-opacity:1"/><stop offset="0.47" style="stop-color:#ff50e5;stop-opacity:0.72"/><stop offset="1" style="stop-color:#ff50e5;stop-opacity:0"/></radialGradient><radialGradient id="_Radial64" cx="0" cy="0" r="1" gradientUnits="userSpaceOnUse" gradientTransform="matrix(52.7516,50.1626,-50.1626,52.7516,400.098,124.824)"><stop offset="0" style="stop-color:#ff50e5;stop-opacity:1"/><stop offset="0.47" style="stop-color:#ff50e5;stop-opacity:0.72"/><stop offset="1" style="stop-color:#ff50e5;stop-opacity:0"/></radialGradient><radialGradient id="_Radial65" cx="0" cy="0" r="1" gradientUnits="userSpaceOnUse" gradientTransform="matrix(13.8877,33.2497,-98.3487,41.0781,303.102,144.372)"><stop offset="0" style="stop-color:#ff50e5;stop-opacity:1"/><stop offset="0.47" style="stop-color:#ff50e5;stop-opacity:0.72"/><stop offset="1" style="stop-color:#ff50e5;stop-opacity:0"/></radialGradient><radialGradient id="_Radial66" cx="0" cy="0" r="1" gradientUnits="userSpaceOnUse" gradientTransform="matrix(67.0497,-49.3965,49.9641,67.8201,371.23,186.091)"><stop offset="0" style="stop-color:#ff50e5;stop-opacity:1"/><stop offset="1" style="stop-color:#ff50e5;stop-opacity:0"/></radialGradient><radialGradient id="_Radial67" cx="0" cy="0" r="1" gradientUnits="userSpaceOnUse" gradientTransform="matrix(33.7457,-76.1375,9.64007,4.27267,387.103,144.126)"><stop offset="0" style="stop-color:#ff50e5;stop-opacity:1"/><stop offset="1" style="stop-color:#ff50e5;stop-opacity:0"/></radialGradient><radialGradient id="_Radial68" cx="0" cy="0" r="1" gradientUnits="userSpaceOnUse" gradientTransform="matrix(20.4673,37.5351,-63.7373,34.7549,316.923,142.267)"><stop offset="0" style="stop-color:#ff50e5;stop-opacity:1"/><stop offset="0.51" style="stop-color:#ff50e5;stop-opacity:0.76"/><stop offset="1" style="stop-color:#ff50e5;stop-opacity:0"/></radialGradient><linearGradient id="_Linear69" x1="0" y1="0" x2="1" y2="0" gradientUnits="userSpaceOnUse" gradientTransform="matrix(76.8087,-0.215645,0.215645,76.8087,217.407,139.445)"><stop offset="0" style="stop-color:#0015ca;stop-opacity:1"/><stop offset="1" style="stop-color:#4300c0;stop-opacity:1"/></linearGradient><radialGradient id="_Radial70" cx="0" cy="0" r="1" gradientUnits="userSpaceOnUse" gradientTransform="matrix(45.8361,11.9158,-23.0291,88.5855,219.481,112.024)"><stop offset="0" style="stop-color:#38ffff;stop-opacity:1"/><stop offset="0.46" style="stop-color:#38ffff;stop-opacity:0.72"/><stop offset="1" style="stop-color:#38ffff;stop-opacity:0"/></radialGradient><radialGradient id="_Radial71" cx="0" cy="0" r="1" gradientUnits="userSpaceOnUse" gradientTransform="matrix(64.934,-6.21378,12.0091,125.495,301.284,118.107)"><stop offset="0" style="stop-color:#ff50e5;stop-opacity:0.8"/><stop offset="1" style="stop-color:#ff50e5;stop-opacity:0"/></radialGradient><linearGradient id="_Linear72" x1="0" y1="0" x2="1" y2="0" gradientUnits="userSpaceOnUse" gradientTransform="matrix(8.89588,0.968891,-0.968891,8.89588,254.295,83.3718)"><stop offset="0" style="stop-color:#0015ca;stop-opacity:0.36"/><stop offset="1" style="stop-color:#0015ca;stop-opacity:0"/></linearGradient><radialGradient id="_Radial73" cx="0" cy="0" r="1" gradientUnits="userSpaceOnUse" gradientTransform="matrix(12.8695,-0.24855,0.960794,49.7482,257.001,87.687)"><stop offset="0" style="stop-color:#38ffff;stop-opacity:0.2"/><stop offset="1" style="stop-color:#38ffff;stop-opacity:0"/></radialGradient><radialGradient id="_Radial74" cx="0" cy="0" r="1" gradientUnits="userSpaceOnUse" gradientTransform="matrix(0.318144,27.8376,-107.609,1.22982,260.749,81.2328)"><stop offset="0" style="stop-color:#38ffff;stop-opacity:0.09"/><stop offset="0.67" style="stop-color:#38ffff;stop-opacity:0.08"/><stop offset="0.85" style="stop-color:#38ffff;stop-opacity:0.04"/><stop offset="1" style="stop-color:#38ffff;stop-opacity:0"/></radialGradient><radialGradient id="_Radial75" cx="0" cy="0" r="1" gradientUnits="userSpaceOnUse" gradientTransform="matrix(42.914,-4.27199,8.2563,82.9381,300.852,131.398)"><stop offset="0" style="stop-color:#ff50e5;stop-opacity:1"/><stop offset="0.65" style="stop-color:#ff50e5;stop-opacity:0.86"/><stop offset="1" style="stop-color:#ff50e5;stop-opacity:0"/></radialGradient><radialGradient id="_Radial76" cx="0" cy="0" r="1" gradientUnits="userSpaceOnUse" gradientTransform="matrix(42.991,15.2685,-29.5089,83.0868,212.381,122.05)"><stop offset="0" style="stop-color:#38ffff;stop-opacity:1"/><stop offset="0.65" style="stop-color:#38ffff;stop-opacity:0.86"/><stop offset="1" style="stop-color:#38ffff;stop-opacity:0"/></radialGradient></defs></svg>