<?xml version="1.0" encoding="UTF-8" standalone="no"?><!DOCTYPE svg PUBLIC "-//W3C//DTD SVG 1.1//EN" "http://www.w3.org/Graphics/SVG/1.1/DTD/svg11.dtd"><svg width="100%" height="100%" viewBox="0 0 512 512" version="1.1" xmlns="http://www.w3.org/2000/svg" xmlns:xlink="http://www.w3.org/1999/xlink" xml:space="preserve" xmlns:serif="http://www.serif.com/" style="fill-rule:evenodd;clip-rule:evenodd;stroke-linejoin:round;stroke-miterlimit:2;"><rect id="outline_white" x="0" y="0" width="512" height="512" style="fill:none;"/><g id="_--White-Outline" serif:id="- White Outline"><path id="Center" d="M224.021,255.997l31.981,-45.255l31.981,45.255l-31.981,45.255l-31.981,-45.255Zm0.581,-0l31.4,44.433l31.4,-44.433l-31.4,-44.434l-31.4,44.434Z" style="fill:#fefffe;"/><path id="NW" d="M163.261,160.197c16.91,8.251 42.103,10.655 64.343,52.353c-4.799,-17.881 -6.722,-40.796 -21.055,-57.427c-14.516,-16.842 -82.354,-30.927 -89.597,-38.175c7.271,7.292 21.5,74.867 38.257,89.577c16.454,14.444 42.878,17.551 60.851,22.359c-41.933,-22.264 -46.576,-48.425 -55.723,-65.703c-1.923,-3.633 -4.046,-6.873 -6.758,-9.602c2.766,2.782 6.031,4.837 9.682,6.618Zm-3.234,3.3c2.474,4.694 4.364,9.737 7.023,15.481c6.908,14.927 17.52,32.833 45.815,48.651c-17.705,-4.323 -41.953,-7.886 -57.375,-21.425c-3.988,-3.501 -7.837,-10.048 -11.5,-18.066c-5.535,-12.114 -10.622,-27.579 -15.032,-41.089c-3.439,-10.537 -6.468,-19.888 -8.974,-25.553c-0.532,-1.203 -0.763,-1.915 -1.251,-2.769c1.285,0.73 2.711,1.189 4.761,2.019c8.031,3.254 21.419,7.3 35.254,11.933c11.829,3.962 23.986,8.354 33.384,13.05c6.215,3.106 11.218,6.337 14.093,9.673c13.426,15.578 15.939,36.732 20.131,53.98c-15.854,-28.217 -33.307,-37.645 -47.878,-43.586c-5.501,-2.242 -10.375,-3.717 -14.906,-5.916c-0.877,-0.336 -2.033,-0.966 -3.288,-1.744c-1.44,-0.84 -2.803,-1.755 -4.082,-2.779c-1.026,-0.753 -1.994,-1.503 -2.808,-2.172c-0.737,-0.607 -1.348,-1.148 -1.761,-1.564c0.407,0.44 0.94,1.059 1.543,1.794c0.71,0.866 1.517,1.893 2.328,2.977c0.786,0.989 1.521,2.031 2.219,3.119c0.996,1.488 1.841,2.902 2.304,3.986Z" style="fill:#fefffe;"/><path id="W" d="M49.07,256c0,0 54.046,-27.504 90.368,-38.215l67.162,24.429c-25.507,-0.02 -82.145,4.583 -95.429,13.782c13.734,8.64 69.768,13.882 95.444,13.79l-67.217,24.495c-36.276,-10.742 -90.328,-38.281 -90.328,-38.281Zm0.946,0c6.627,3.339 55.633,27.816 89.369,37.831l64.829,-23.624c-18.401,-0.153 -49.459,-2.676 -71.306,-6.986c-9.838,-1.941 -17.816,-4.254 -21.964,-6.864c-0.122,-0.076 -0.196,-0.209 -0.2,-0.352c-0.003,-0.143 0.066,-0.278 0.184,-0.36c4.016,-2.781 11.958,-5.159 21.81,-7.105c21.857,-4.318 53.151,-6.568 71.47,-6.742l-64.784,-23.564c-33.778,9.987 -82.782,34.425 -89.408,37.766Z" style="fill:#fefffe;"/><path id="SW" d="M163.261,351.798c16.91,-8.251 42.103,-10.655 64.343,-52.353c-4.799,17.881 -6.722,40.796 -21.055,57.427c-14.516,16.842 -82.354,30.927 -89.597,38.175c7.271,-7.292 21.5,-74.867 38.257,-89.577c16.454,-14.445 42.878,-17.551 60.851,-22.359c-41.933,22.264 -46.576,48.425 -55.723,65.703c-1.923,3.632 -4.046,6.872 -6.758,9.602c2.766,-2.782 6.031,-4.837 9.682,-6.618Zm-3.234,-3.3c2.474,-4.694 4.364,-9.737 7.023,-15.482c6.908,-14.926 17.52,-32.832 45.815,-48.65c-17.705,4.323 -41.953,7.886 -57.375,21.425c-3.988,3.501 -7.837,10.048 -11.5,18.066c-5.535,12.114 -10.622,27.578 -15.032,41.089c-3.439,10.537 -6.468,19.888 -8.974,25.553c-0.532,1.202 -0.763,1.915 -1.251,2.769c1.285,-0.73 2.711,-1.189 4.761,-2.02c8.031,-3.253 21.419,-7.299 35.254,-11.932c11.829,-3.962 23.986,-8.354 33.384,-13.05c6.215,-3.106 11.218,-6.337 14.093,-9.673c13.426,-15.578 15.939,-36.732 20.131,-53.98c-15.854,28.217 -33.307,37.644 -47.878,43.585c-5.501,2.243 -10.375,3.718 -14.906,5.917c-0.877,0.336 -2.033,0.966 -3.288,1.744c-1.44,0.84 -2.803,1.755 -4.082,2.778c-1.026,0.754 -1.994,1.504 -2.808,2.173c-0.737,0.607 -1.348,1.148 -1.761,1.564c0.407,-0.44 0.94,-1.06 1.543,-1.794c0.71,-0.867 1.517,-1.893 2.328,-2.977c0.786,-0.99 1.521,-2.031 2.219,-3.119c0.996,-1.488 1.841,-2.902 2.304,-3.986Z" style="fill:#fefffe;"/><path id="S" d="M256,462.93c0,0 -27.495,-54.078 -38.236,-90.354l20.916,-57.466c-0.092,25.675 8.683,72.017 17.323,85.751c9.198,-13.284 17.342,-60.244 17.322,-85.751l20.916,57.466c-10.711,36.323 -38.241,90.354 -38.241,90.354Zm0,-1.051c3.5,-6.944 27.794,-55.652 37.742,-89.287l-19.968,-54.862c-0.344,17.952 -4.218,44.642 -9.512,63.699c-2.396,8.622 -5.089,15.687 -7.869,19.702c-0.091,0.131 -0.241,0.208 -0.4,0.204c-0.16,-0.003 -0.306,-0.086 -0.391,-0.221c-8.378,-13.318 -16.902,-57.198 -17.376,-83.37l-19.963,54.848c9.976,33.593 34.242,82.339 37.737,89.287Z" style="fill:#fefffe;"/><path id="SE" d="M348.737,351.798c-16.909,-8.251 -42.102,-10.655 -64.342,-52.353c4.798,17.881 6.722,40.796 21.055,57.427c14.516,16.842 82.354,30.927 89.597,38.175c-7.272,-7.292 -21.501,-74.867 -38.257,-89.577c-16.454,-14.445 -42.878,-17.551 -60.852,-22.359c41.933,22.264 46.577,48.425 55.724,65.703c1.923,3.632 4.046,6.872 6.758,9.602c-2.766,-2.782 -6.032,-4.837 -9.683,-6.618Zm3.235,-3.3c-2.474,-4.694 -4.365,-9.737 -7.023,-15.482c-6.909,-14.926 -17.521,-32.832 -45.815,-48.65c17.705,4.323 41.952,7.886 57.375,21.425c3.988,3.501 7.837,10.048 11.5,18.066c5.534,12.114 10.622,27.578 15.032,41.089c3.439,10.537 6.467,19.888 8.974,25.553c0.532,1.202 0.763,1.915 1.251,2.769c-1.286,-0.73 -2.711,-1.189 -4.761,-2.02c-8.031,-3.253 -21.42,-7.299 -35.254,-11.932c-11.83,-3.962 -23.987,-8.354 -33.384,-13.05c-6.215,-3.106 -11.219,-6.337 -14.094,-9.673c-13.425,-15.578 -15.939,-36.732 -20.13,-53.98c15.854,28.217 33.306,37.644 47.878,43.585c5.5,2.243 10.374,3.718 14.905,5.917c0.878,0.336 2.034,0.966 3.289,1.744c1.439,0.84 2.803,1.755 4.082,2.778c1.026,0.754 1.994,1.504 2.807,2.173c0.738,0.607 1.348,1.148 1.761,1.564c-0.406,-0.44 -0.939,-1.06 -1.542,-1.794c-0.71,-0.867 -1.517,-1.893 -2.328,-2.977c-0.786,-0.99 -1.522,-2.031 -2.219,-3.119c-0.997,-1.488 -1.841,-2.902 -2.304,-3.986Z" style="fill:#fefffe;"/><path id="E" d="M462.93,256c-0,0 -54.052,27.539 -90.328,38.281l-67.217,-24.495c25.676,0.092 81.71,-5.15 95.444,-13.79c-13.284,-9.199 -69.922,-13.802 -95.429,-13.782l67.162,-24.429c36.322,10.711 90.368,38.215 90.368,38.215Zm-1.051,0c-6.944,-3.499 -55.666,-27.768 -89.302,-37.716l-64.523,23.47c18.356,0.192 49.461,2.442 71.217,6.74c9.86,1.948 17.809,4.329 21.828,7.112c0.131,0.091 0.207,0.241 0.204,0.4c-0.004,0.159 -0.087,0.306 -0.222,0.391c-4.151,2.612 -12.134,4.928 -21.98,6.87c-21.746,4.291 -52.618,6.811 -71.053,6.985l64.569,23.53c33.593,-9.977 82.317,-34.285 89.262,-37.782Z" style="fill:#fefffe;"/><path id="NE" d="M348.731,160.22c-16.91,8.25 -42.098,10.645 -64.338,52.343c4.798,-17.881 6.465,-40.481 20.798,-57.112c14.516,-16.842 82.634,-31.253 89.877,-38.501c-7.272,7.291 -21.781,75.193 -38.537,89.903c-16.454,14.444 -42.598,17.235 -60.572,22.043c41.933,-22.263 46.549,-48.415 55.696,-65.693c1.923,-3.632 4.046,-6.872 6.758,-9.601c-2.766,2.782 -6.031,4.836 -9.682,6.618Zm3.234,3.299c-2.474,4.694 -4.616,10.043 -7.275,15.787c-6.908,14.927 -17.241,32.517 -45.536,48.335c17.705,-4.323 41.673,-7.57 57.096,-21.109c3.988,-3.501 7.837,-10.048 11.5,-18.066c5.535,-12.114 10.622,-27.579 15.032,-41.089c3.439,-10.537 6.468,-19.888 8.974,-25.553c0.532,-1.203 1.043,-2.241 1.531,-3.095c-1.286,0.73 -2.991,1.515 -5.041,2.345c-8.031,3.254 -21.419,7.3 -35.254,11.933c-11.83,3.962 -23.987,8.354 -33.384,13.05c-6.215,3.106 -11.219,6.337 -14.094,9.673c-13.425,15.578 -15.682,36.417 -19.873,53.665c15.854,-28.217 33.049,-37.33 47.621,-43.271c5.501,-2.242 10.627,-4.023 15.158,-6.221c0.877,-0.336 2.033,-0.966 3.288,-1.745c1.44,-0.84 2.803,-1.754 4.082,-2.778c1.026,-0.753 1.994,-1.504 2.807,-2.173c0.738,-0.607 1.349,-1.147 1.762,-1.564c-0.407,0.44 -0.94,1.06 -1.543,1.795c-0.71,0.866 -1.517,1.892 -2.328,2.976c-0.786,0.99 -1.521,2.031 -2.219,3.119c-0.996,1.488 -1.841,2.902 -2.304,3.986Z" style="fill:#fefffe;"/><path id="N" d="M256,49.07c0,-0 27.541,54.052 38.282,90.328l-20.957,57.511c0.092,-25.675 -8.687,-72.004 -17.327,-85.738c-9.199,13.283 -17.35,60.166 -17.33,85.673l-20.881,-57.406c10.711,-36.323 38.213,-90.368 38.213,-90.368Zm0,0.945c-3.341,6.627 -27.777,55.631 -37.764,89.409l20.025,55.055c0.313,-17.947 4.202,-44.758 9.522,-63.88c2.395,-8.606 5.086,-15.659 7.864,-19.671c0.081,-0.118 0.217,-0.187 0.36,-0.184c0.143,0.003 0.275,0.078 0.352,0.199c8.403,13.358 16.955,57.46 17.377,83.592l20.097,-55.151c-10.015,-33.735 -34.494,-82.741 -37.833,-89.369Z" style="fill:#fefffe;"/></g></svg>