<?xml version="1.0" encoding="UTF-8" standalone="no"?><!DOCTYPE svg PUBLIC "-//W3C//DTD SVG 1.1//EN" "http://www.w3.org/Graphics/SVG/1.1/DTD/svg11.dtd"><svg width="100%" height="100%" viewBox="0 0 512 512" version="1.1" xmlns="http://www.w3.org/2000/svg" xmlns:xlink="http://www.w3.org/1999/xlink" xml:space="preserve" xmlns:serif="http://www.serif.com/" style="fill-rule:evenodd;clip-rule:evenodd;stroke-linejoin:round;stroke-miterlimit:2;"><rect id="thick_outline_black_name" x="0" y="0" width="512" height="512" style="fill:none;"/><g id="name_black_symbol"><path d="M127.892,462.333l-6.981,0l-2.775,-7.221l-12.705,-0l-2.623,7.221l-6.808,0l12.38,-31.791l6.786,0l12.726,31.791Zm-11.816,-12.577l-4.379,-11.797l-4.293,11.797l8.672,-0Z" style="fill-rule:nonzero;"/><path d="M151.299,462.333l0,-31.791l13.507,0c3.397,0 5.865,0.286 7.404,0.857c1.54,0.571 2.772,1.586 3.697,3.047c0.925,1.46 1.387,3.13 1.387,5.009c0,2.385 -0.701,4.355 -2.103,5.909c-1.402,1.554 -3.498,2.534 -6.287,2.939c1.387,0.809 2.533,1.698 3.436,2.667c0.904,0.969 2.121,2.689 3.653,5.161l3.881,6.202l-7.675,0l-4.639,-6.917c-1.648,-2.473 -2.775,-4.03 -3.383,-4.674c-0.607,-0.643 -1.25,-1.084 -1.929,-1.322c-0.679,-0.239 -1.756,-0.358 -3.231,-0.358l-1.3,-0l-0,13.271l-6.418,0Zm6.418,-18.346l4.748,0c3.078,0 5.001,-0.13 5.767,-0.39c0.766,-0.26 1.366,-0.708 1.799,-1.345c0.434,-0.636 0.651,-1.431 0.651,-2.385c-0,-1.07 -0.286,-1.934 -0.857,-2.591c-0.571,-0.658 -1.376,-1.074 -2.417,-1.247c-0.52,-0.073 -2.081,-0.109 -4.683,-0.109l-5.008,0l-0,8.067Z" style="fill-rule:nonzero;"/><path d="M203.411,462.333l0,-31.791l6.418,0l-0,14.118l12.965,-14.118l8.629,0l-11.968,12.383l12.618,19.408l-8.304,0l-8.737,-14.919l-5.203,5.313l-0,9.606l-6.418,0Z" style="fill-rule:nonzero;"/><path d="M284.033,462.333l-6.981,0l-2.775,-7.221l-12.705,-0l-2.623,7.221l-6.808,0l12.38,-31.791l6.786,0l12.726,31.791Zm-11.816,-12.577l-4.379,-11.797l-4.293,11.797l8.672,-0Z" style="fill-rule:nonzero;"/><path d="M307.483,462.333l0,-31.791l6.244,0l13.009,21.23l-0,-21.23l5.962,0l0,31.791l-6.439,0l-12.814,-20.731l0,20.731l-5.962,0Z" style="fill-rule:nonzero;"/><rect x="359.27" y="430.542" width="6.418" height="31.791" style="fill-rule:nonzero;"/><path d="M390.156,451.989l6.245,-0.607c0.375,2.096 1.138,3.636 2.287,4.619c1.149,0.983 2.699,1.475 4.65,1.475c2.067,-0 3.625,-0.438 4.673,-1.312c1.048,-0.875 1.571,-1.898 1.571,-3.069c0,-0.752 -0.22,-1.391 -0.661,-1.919c-0.441,-0.528 -1.21,-0.987 -2.309,-1.377c-0.751,-0.26 -2.464,-0.723 -5.138,-1.388c-3.44,-0.853 -5.854,-1.901 -7.242,-3.144c-1.951,-1.75 -2.926,-3.882 -2.926,-6.398c-0,-1.619 0.458,-3.133 1.376,-4.543c0.918,-1.409 2.241,-2.483 3.968,-3.22c1.727,-0.737 3.812,-1.106 6.255,-1.106c3.989,-0 6.992,0.875 9.008,2.624c2.016,1.749 3.075,4.084 3.176,7.004l-6.417,0.282c-0.275,-1.633 -0.864,-2.808 -1.767,-3.524c-0.903,-0.715 -2.259,-1.073 -4.065,-1.073c-1.865,-0 -3.325,0.383 -4.38,1.149c-0.679,0.492 -1.019,1.15 -1.019,1.974c0,0.751 0.318,1.395 0.954,1.93c0.81,0.679 2.775,1.388 5.897,2.125c3.122,0.737 5.431,1.5 6.927,2.288c1.496,0.788 2.667,1.865 3.513,3.231c0.845,1.366 1.268,3.054 1.268,5.064c0,1.821 -0.506,3.527 -1.518,5.117c-1.011,1.591 -2.442,2.773 -4.292,3.546c-1.851,0.773 -4.156,1.16 -6.917,1.16c-4.018,0 -7.104,-0.929 -9.257,-2.786c-2.154,-1.858 -3.44,-4.565 -3.86,-8.122Z" style="fill-rule:nonzero;"/><rect x="400.015" y="478.528" width="15.985" height="3.997"/><path d="M158.024,482.63l3.111,0.986c-0.477,1.735 -1.27,3.024 -2.38,3.866c-1.109,0.842 -2.517,1.263 -4.222,1.263c-2.11,-0 -3.845,-0.721 -5.203,-2.163c-1.359,-1.442 -2.038,-3.414 -2.038,-5.915c-0,-2.646 0.682,-4.7 2.048,-6.164c1.366,-1.464 3.162,-2.196 5.388,-2.196c1.944,0 3.523,0.575 4.737,1.724c0.723,0.68 1.265,1.656 1.626,2.928l-3.176,0.759c-0.188,-0.824 -0.58,-1.475 -1.176,-1.952c-0.596,-0.477 -1.321,-0.716 -2.174,-0.716c-1.178,0 -2.133,0.423 -2.867,1.269c-0.733,0.846 -1.1,2.216 -1.1,4.109c-0,2.01 0.361,3.441 1.084,4.294c0.723,0.853 1.662,1.28 2.818,1.28c0.853,-0 1.587,-0.271 2.201,-0.814c0.614,-0.542 1.055,-1.395 1.323,-2.558Z" style="fill-rule:nonzero;"/><path d="M168.788,480.624c0,-1.62 0.242,-2.979 0.726,-4.077c0.362,-0.81 0.855,-1.536 1.48,-2.18c0.625,-0.643 1.31,-1.12 2.054,-1.431c0.99,-0.419 2.132,-0.629 3.426,-0.629c2.341,0 4.215,0.727 5.621,2.18c1.405,1.453 2.108,3.473 2.108,6.061c0,2.566 -0.697,4.574 -2.092,6.023c-1.395,1.449 -3.259,2.174 -5.594,2.174c-2.363,-0 -4.242,-0.721 -5.637,-2.163c-1.395,-1.442 -2.092,-3.428 -2.092,-5.958Zm3.306,-0.109c0,1.8 0.416,3.165 1.247,4.093c0.831,0.929 1.886,1.394 3.165,1.394c1.28,-0 2.329,-0.461 3.15,-1.383c0.82,-0.921 1.23,-2.304 1.23,-4.147c-0,-1.822 -0.399,-3.181 -1.198,-4.077c-0.799,-0.896 -1.859,-1.345 -3.182,-1.345c-1.322,0 -2.388,0.454 -3.198,1.361c-0.809,0.907 -1.214,2.275 -1.214,4.104Z" style="fill-rule:nonzero;"/><path d="M192.268,488.474l0,-15.896l6.754,0c1.698,0 2.932,0.143 3.702,0.429c0.77,0.285 1.386,0.793 1.848,1.523c0.463,0.73 0.694,1.565 0.694,2.505c-0,1.192 -0.351,2.177 -1.052,2.954c-0.701,0.777 -1.748,1.267 -3.143,1.47c0.694,0.404 1.266,0.849 1.718,1.333c0.452,0.485 1.061,1.345 1.827,2.581l1.94,3.101l-3.838,-0l-2.319,-3.459c-0.824,-1.236 -1.388,-2.015 -1.691,-2.337c-0.304,-0.321 -0.626,-0.542 -0.965,-0.661c-0.34,-0.119 -0.878,-0.179 -1.615,-0.179l-0.651,0l0,6.636l-3.209,-0Zm3.209,-9.173l2.374,-0c1.539,-0 2.501,-0.065 2.884,-0.195c0.383,-0.13 0.683,-0.355 0.899,-0.673c0.217,-0.318 0.326,-0.715 0.326,-1.192c-0,-0.535 -0.143,-0.967 -0.429,-1.296c-0.285,-0.329 -0.688,-0.537 -1.208,-0.623c-0.26,-0.037 -1.041,-0.055 -2.342,-0.055l-2.504,0l0,4.034Z" style="fill-rule:nonzero;"/><path d="M213.841,488.474l-0,-15.896l5.149,0c1.951,0 3.223,0.08 3.816,0.239c0.91,0.238 1.673,0.757 2.287,1.556c0.614,0.799 0.922,1.83 0.922,3.095c-0,0.976 -0.178,1.797 -0.532,2.462c-0.354,0.665 -0.804,1.187 -1.349,1.566c-0.546,0.38 -1.101,0.631 -1.664,0.754c-0.766,0.152 -1.876,0.228 -3.328,0.228l-2.092,-0l-0,5.996l-3.209,-0Zm3.209,-13.207l-0,4.511l1.756,-0c1.264,-0 2.11,-0.083 2.536,-0.249c0.427,-0.167 0.761,-0.427 1.003,-0.781c0.242,-0.354 0.363,-0.766 0.363,-1.236c0,-0.579 -0.17,-1.056 -0.509,-1.431c-0.34,-0.376 -0.77,-0.611 -1.29,-0.705c-0.383,-0.073 -1.153,-0.109 -2.309,-0.109l-1.55,0Z" style="fill-rule:nonzero;"/><path d="M233.549,480.624c-0,-1.62 0.242,-2.979 0.726,-4.077c0.361,-0.81 0.854,-1.536 1.48,-2.18c0.625,-0.643 1.31,-1.12 2.054,-1.431c0.99,-0.419 2.132,-0.629 3.425,-0.629c2.342,0 4.216,0.727 5.621,2.18c1.406,1.453 2.109,3.473 2.109,6.061c-0,2.566 -0.698,4.574 -2.093,6.023c-1.394,1.449 -3.259,2.174 -5.593,2.174c-2.363,-0 -4.242,-0.721 -5.637,-2.163c-1.395,-1.442 -2.092,-3.428 -2.092,-5.958Zm3.306,-0.109c-0,1.8 0.415,3.165 1.247,4.093c0.831,0.929 1.886,1.394 3.165,1.394c1.279,-0 2.329,-0.461 3.149,-1.383c0.82,-0.921 1.23,-2.304 1.23,-4.147c0,-1.822 -0.399,-3.181 -1.197,-4.077c-0.799,-0.896 -1.86,-1.345 -3.182,-1.345c-1.323,0 -2.389,0.454 -3.198,1.361c-0.809,0.907 -1.214,2.275 -1.214,4.104Z" style="fill-rule:nonzero;"/><path d="M257.029,488.474l-0,-15.896l6.753,0c1.699,0 2.933,0.143 3.702,0.429c0.77,0.285 1.386,0.793 1.849,1.523c0.462,0.73 0.694,1.565 0.694,2.505c-0,1.192 -0.351,2.177 -1.052,2.954c-0.701,0.777 -1.749,1.267 -3.144,1.47c0.694,0.404 1.267,0.849 1.719,1.333c0.451,0.485 1.06,1.345 1.826,2.581l1.941,3.101l-3.838,-0l-2.32,-3.459c-0.824,-1.236 -1.387,-2.015 -1.691,-2.337c-0.303,-0.321 -0.625,-0.542 -0.965,-0.661c-0.339,-0.119 -0.878,-0.179 -1.615,-0.179l-0.65,0l-0,6.636l-3.209,-0Zm3.209,-9.173l2.374,-0c1.539,-0 2.5,-0.065 2.883,-0.195c0.383,-0.13 0.683,-0.355 0.9,-0.673c0.217,-0.318 0.325,-0.715 0.325,-1.192c0,-0.535 -0.142,-0.967 -0.428,-1.296c-0.285,-0.329 -0.688,-0.537 -1.209,-0.623c-0.26,-0.037 -1.04,-0.055 -2.341,-0.055l-2.504,0l-0,4.034Z" style="fill-rule:nonzero;"/><path d="M292.932,488.474l-3.49,-0l-1.388,-3.611l-6.352,0l-1.312,3.611l-3.404,-0l6.19,-15.896l3.393,0l6.363,15.896Zm-5.908,-6.289l-2.189,-5.898l-2.147,5.898l4.336,0Z" style="fill-rule:nonzero;"/><path d="M302.114,488.474l0,-13.207l-4.715,0l-0,-2.689l12.629,0l-0,2.689l-4.705,0l-0,13.207l-3.209,-0Z" style="fill-rule:nonzero;"/><rect x="317.551" y="472.578" width="3.209" height="15.896" style="fill-rule:nonzero;"/><path d="M328.716,480.624c0,-1.62 0.243,-2.979 0.727,-4.077c0.361,-0.81 0.854,-1.536 1.48,-2.18c0.625,-0.643 1.309,-1.12 2.054,-1.431c0.99,-0.419 2.132,-0.629 3.425,-0.629c2.342,0 4.215,0.727 5.621,2.18c1.406,1.453 2.109,3.473 2.109,6.061c-0,2.566 -0.698,4.574 -2.093,6.023c-1.394,1.449 -3.259,2.174 -5.593,2.174c-2.364,-0 -4.243,-0.721 -5.637,-2.163c-1.395,-1.442 -2.093,-3.428 -2.093,-5.958Zm3.307,-0.109c-0,1.8 0.415,3.165 1.246,4.093c0.832,0.929 1.887,1.394 3.166,1.394c1.279,-0 2.329,-0.461 3.149,-1.383c0.82,-0.921 1.23,-2.304 1.23,-4.147c0,-1.822 -0.399,-3.181 -1.197,-4.077c-0.799,-0.896 -1.86,-1.345 -3.182,-1.345c-1.323,0 -2.389,0.454 -3.198,1.361c-0.809,0.907 -1.214,2.275 -1.214,4.104Z" style="fill-rule:nonzero;"/><path d="M352.218,488.474l0,-15.896l3.123,0l6.504,10.615l-0,-10.615l2.981,0l-0,15.896l-3.22,-0l-6.406,-10.366l-0,10.366l-2.982,-0Z" style="fill-rule:nonzero;"/><rect x="96" y="478.528" width="15.985" height="3.997"/></g><g id="_--Thick-Outline-White" serif:id="- Thick Outline White"><path d="M226.019,214.3l29.983,-42.426l29.983,42.426l-29.983,42.427l-29.983,-42.427Zm3.043,0l26.94,38.121l26.94,-38.121l-26.94,-38.12l-26.94,38.12Zm-108.841,0c12.878,8.1 65.409,13.014 89.479,12.928l-63.017,22.963c-33.554,-9.935 -83.331,-35.202 -84.658,-35.877l-0.027,-0.014c0,0 50.669,-25.782 84.722,-35.823l62.966,22.902c-23.913,-0.019 -77.013,4.297 -89.467,12.92l0.002,0.001Zm-52.667,0.002c12.902,6.39 51.298,24.921 79.051,33.273l49.899,-18.184c-17.141,-0.784 -39.584,-2.973 -56.307,-6.272c-9.548,-1.884 -17.273,-4.183 -21.299,-6.715l-3.187,-2.005l3.094,-2.143c3.913,-2.709 11.629,-5.095 21.23,-6.992c16.709,-3.3 39.265,-5.321 56.413,-6.056l-49.807,-18.115c-27.786,8.327 -66.186,26.829 -79.087,33.209Zm297.763,35.889l-63.017,-22.963c24.07,0.086 76.6,-4.828 89.479,-12.928l0.002,-0.001c-12.454,-8.623 -65.554,-12.939 -89.467,-12.92l62.965,-22.902c33.839,9.978 84.085,35.502 84.716,35.823l0.003,0.002c-0.447,0.228 -50.823,25.864 -84.681,35.889Zm79.126,-35.888c-12.905,-6.382 -51.301,-24.884 -79.085,-33.21l-49.804,18.115c17.146,0.735 39.702,2.756 56.411,6.056c9.6,1.897 17.317,4.283 21.23,6.992l3.094,2.143l-3.187,2.005c-4.026,2.532 -11.752,4.831 -21.3,6.715c-16.722,3.299 -39.165,5.488 -56.307,6.272l49.9,18.184c27.751,-8.351 66.145,-26.881 79.048,-33.272Zm-188.441,193.997c0,0 -25.779,-50.698 -35.849,-84.706l19.609,-53.875c-0.087,24.071 8.14,67.516 16.241,80.392c8.623,-12.454 16.258,-56.479 16.239,-80.392l19.609,53.875c-10.041,34.052 -35.849,84.706 -35.849,84.706Zm0.002,-5.557c6.387,-12.9 24.904,-51.286 33.232,-79.071l-15.041,-41.321c-1.214,15.9 -4.401,35.393 -8.484,50.088c-2.322,8.359 -4.97,15.194 -7.665,19.086l-2.143,3.094l-2.004,-3.185c-6.96,-11.064 -14.089,-44.307 -16.079,-69.115l-15.051,41.352c8.351,27.752 26.855,66.165 33.235,79.072Z"/><path d="M352.015,118.305c-2.594,2.608 -5.655,4.534 -9.078,6.204c-15.853,7.735 -39.468,9.98 -60.318,49.072c4.498,-16.764 6.061,-37.951 19.499,-53.542c13.609,-15.789 77.471,-29.3 84.261,-36.095c-6.817,6.836 -20.419,70.493 -36.129,84.284c-15.426,13.542 -39.937,16.159 -56.788,20.666c39.313,-20.872 43.641,-45.389 52.217,-61.588c1.803,-3.405 3.793,-6.442 6.336,-9.001Zm-10.168,3.971c3.383,-1.651 9.297,-4.879 14.18,-7.964c-3.165,5.05 -6.469,10.978 -8.152,14.157c-7.641,14.433 -12.039,35.293 -39.851,54.521c14.055,-3.107 29.658,-7.036 40.587,-16.63c3.577,-3.14 6.976,-9.045 10.261,-16.236c5.159,-11.292 9.896,-25.708 14.007,-38.302c2.838,-8.695 5.385,-16.535 7.562,-21.949c-5.417,2.167 -13.266,4.701 -21.968,7.528c-12.611,4.096 -27.044,8.822 -38.322,13.984c-7.176,3.284 -13.056,6.685 -16.151,10.276c-9.41,10.919 -12.81,24.663 -15.591,37.615c19.085,-27.398 39.27,-30.087 53.438,-37Z"/><path d="M352.015,310.349c-2.594,-2.608 -5.655,-4.534 -9.078,-6.204c-15.853,-7.735 -39.468,-9.98 -60.318,-49.071c4.498,16.763 6.061,37.95 19.499,53.541c13.609,15.79 77.471,29.301 84.261,36.095c-6.817,-6.835 -20.419,-70.493 -36.129,-84.283c-15.426,-13.542 -39.937,-16.159 -56.788,-20.666c39.313,20.872 43.641,45.389 52.217,61.587c1.803,3.405 3.793,6.443 6.336,9.001Zm-10.168,-3.971c3.383,1.651 9.297,4.879 14.18,7.964c-3.165,-5.049 -6.469,-10.978 -8.152,-14.157c-7.641,-14.432 -12.039,-35.293 -39.851,-54.52c14.055,3.107 29.658,7.035 40.587,16.629c3.577,3.14 6.976,9.045 10.261,16.237c5.159,11.291 9.896,25.708 14.007,38.301c2.838,8.695 5.385,16.535 7.562,21.949c-5.417,-2.167 -13.266,-4.701 -21.968,-7.527c-12.611,-4.097 -27.044,-8.823 -38.322,-13.985c-7.176,-3.284 -13.056,-6.685 -16.151,-10.276c-9.41,-10.919 -12.81,-24.662 -15.591,-37.614c19.085,27.397 39.27,30.087 53.438,36.999Z"/><path d="M159.984,118.305c2.593,2.608 5.654,4.534 9.077,6.204c15.854,7.735 39.468,9.98 60.318,49.072c-4.498,-16.764 -6.061,-37.951 -19.499,-53.542c-13.608,-15.789 -77.47,-29.3 -84.261,-36.095c6.817,6.836 20.42,70.493 36.129,84.284c15.427,13.542 39.938,16.159 56.788,20.666c-39.313,-20.872 -43.641,-45.389 -52.217,-61.588c-1.802,-3.405 -3.793,-6.442 -6.335,-9.001Zm10.167,3.971c-3.383,-1.651 -9.296,-4.879 -14.18,-7.964c3.165,5.05 6.469,10.978 8.152,14.157c7.641,14.433 12.039,35.293 39.851,54.521c-14.055,-3.107 -29.658,-7.036 -40.587,-16.63c-3.577,-3.14 -6.975,-9.045 -10.261,-16.236c-5.158,-11.292 -9.896,-25.708 -14.006,-38.302c-2.839,-8.695 -5.385,-16.535 -7.563,-21.949c5.418,2.167 13.266,4.701 21.969,7.528c12.61,4.096 27.043,8.822 38.322,13.984c7.175,3.284 13.055,6.685 16.15,10.276c9.411,10.919 12.81,24.663 15.591,37.615c-19.085,-27.398 -39.27,-30.087 -53.438,-37Z"/><path d="M159.984,310.349c2.593,-2.608 5.654,-4.534 9.077,-6.204c15.854,-7.735 39.468,-9.98 60.318,-49.071c-4.498,16.763 -6.061,37.95 -19.499,53.541c-13.608,15.79 -77.47,29.301 -84.261,36.095c6.817,-6.835 20.42,-70.493 36.129,-84.283c15.427,-13.542 39.938,-16.159 56.788,-20.666c-39.313,20.872 -43.641,45.389 -52.217,61.587c-1.802,3.405 -3.793,6.443 -6.335,9.001Zm10.167,-3.971c-3.383,1.651 -9.296,4.879 -14.18,7.964c3.165,-5.049 6.469,-10.978 8.152,-14.157c7.641,-14.432 12.039,-35.293 39.851,-54.52c-14.055,3.107 -29.658,7.035 -40.587,16.629c-3.577,3.14 -6.975,9.045 -10.261,16.237c-5.158,11.291 -9.896,25.708 -14.006,38.301c-2.839,8.695 -5.385,16.535 -7.563,21.949c5.418,-2.167 13.266,-4.701 21.969,-7.527c12.61,-4.097 27.043,-8.823 38.322,-13.985c7.175,-3.284 13.055,-6.685 16.15,-10.276c9.411,-10.919 12.81,-24.662 15.591,-37.614c-19.085,27.397 -39.27,30.087 -53.438,36.999Z"/><path d="M256.002,20.3c0,-0 25.779,50.698 35.85,84.706l-19.609,53.875c0.086,-24.071 -8.141,-67.516 -16.241,-80.392c-8.624,12.454 -16.259,56.479 -16.24,80.392l-19.609,-53.875c10.041,-34.052 35.849,-84.706 35.849,-84.706Zm-0.002,5.557c-6.386,12.9 -24.904,51.286 -33.231,79.071l15.04,41.321c1.215,-15.9 4.402,-35.393 8.484,-50.088c2.322,-8.359 4.97,-15.194 7.666,-19.086l2.142,-3.094l2.004,3.185c6.96,11.064 14.089,44.307 16.079,69.115l15.051,-41.352c-8.351,-27.752 -26.855,-66.165 -33.235,-79.072Z"/></g></svg>