<?xml version="1.0" encoding="UTF-8" standalone="no"?><!DOCTYPE svg PUBLIC "-//W3C//DTD SVG 1.1//EN" "http://www.w3.org/Graphics/SVG/1.1/DTD/svg11.dtd"><svg width="100%" height="100%" viewBox="0 0 414 414" version="1.1" xmlns="http://www.w3.org/2000/svg" xmlns:xlink="http://www.w3.org/1999/xlink" xml:space="preserve" xmlns:serif="http://www.serif.com/" style="fill-rule:evenodd;clip-rule:evenodd;stroke-linejoin:round;stroke-miterlimit:2;"><rect id="thick_outline_white" x="-49" y="-48" width="512" height="512" style="fill:none;"/><g id="_--Thick-Outline-White" serif:id="- Thick Outline White"><path d="M175.021,207.971l31.981,-45.255l31.981,45.255l-31.981,45.255l-31.981,-45.255Zm3.246,0l28.735,40.662l28.735,-40.662l-28.735,-40.662l-28.735,40.662Zm-116.094,0c13.737,8.64 69.767,13.882 95.442,13.79l-67.217,24.494c-35.79,-10.598 -88.884,-37.549 -90.299,-38.269l-0.029,-0.015c0,0 54.046,-27.501 90.368,-38.211l67.162,24.429c-25.507,-0.02 -82.145,4.583 -95.429,13.781l0.002,0.001Zm-56.177,0.002c13.761,6.816 54.717,26.583 84.319,35.491l53.224,-19.395c-18.282,-0.837 -42.222,-3.172 -60.058,-6.691c-10.185,-2.01 -18.425,-4.462 -22.72,-7.163l-3.399,-2.139l3.3,-2.285c4.174,-2.89 12.405,-5.435 22.645,-7.458c17.822,-3.521 41.882,-5.677 60.172,-6.46l-53.125,-19.323c-29.638,8.882 -70.597,28.618 -84.358,35.423Zm317.606,38.282l-67.217,-24.494c25.675,0.092 81.705,-5.15 95.442,-13.79l0.002,-0.001c-13.284,-9.198 -69.922,-13.801 -95.429,-13.781l67.162,-24.429c36.094,10.643 89.688,37.869 90.361,38.211l0.003,0.002c-0.477,0.243 -54.21,27.588 -90.324,38.282Zm84.399,-38.28c-13.765,-6.808 -54.719,-26.543 -84.356,-35.425l-53.122,19.323c18.288,0.783 42.348,2.939 60.17,6.46c10.24,2.023 18.471,4.568 22.645,7.458l3.3,2.285l-3.399,2.139c-4.295,2.701 -12.535,5.153 -22.72,7.163c-17.836,3.519 -41.775,5.854 -60.059,6.691l53.225,19.395c29.6,-8.907 70.553,-28.673 84.316,-35.489Zm-200.999,206.93c0,-0 -27.497,-54.078 -38.238,-90.354l20.916,-57.466c-0.092,25.675 8.683,72.017 17.323,85.751c9.198,-13.284 17.342,-60.244 17.322,-85.751l20.916,57.466c-10.711,36.322 -38.239,90.354 -38.239,90.354Zm0.002,-5.928c6.813,-13.759 26.564,-54.705 35.446,-84.342l-16.043,-44.076c-1.295,16.96 -4.694,37.753 -9.048,53.427c-2.478,8.916 -5.302,16.207 -8.177,20.359l-2.285,3.3l-2.138,-3.398c-7.423,-11.801 -15.028,-47.26 -17.15,-73.722l-16.054,44.109c8.907,29.602 28.644,70.575 35.449,84.343Z" style="fill:#fff;"/><path d="M309.413,105.576c-2.766,2.782 -6.031,4.837 -9.682,6.618c-16.91,8.251 -42.098,10.645 -64.338,52.343c4.798,-17.881 6.465,-40.48 20.798,-57.111c14.516,-16.842 82.634,-31.254 89.877,-38.502c-7.272,7.292 -21.781,75.194 -38.537,89.903c-16.454,14.445 -42.599,17.236 -60.573,22.044c41.934,-22.264 46.55,-48.415 55.697,-65.693c1.923,-3.633 4.046,-6.873 6.758,-9.602Zm-10.845,4.236c3.609,-1.761 9.916,-5.204 15.125,-8.495c-3.376,5.386 -6.9,11.71 -8.695,15.101c-8.15,15.395 -12.841,37.646 -42.507,58.155c14.992,-3.314 31.634,-7.504 43.292,-17.738c3.815,-3.349 7.44,-9.648 10.944,-17.319c5.503,-12.044 10.556,-27.422 14.941,-40.855c3.027,-9.275 5.743,-17.637 8.066,-23.412c-5.779,2.312 -14.15,5.014 -23.432,8.029c-13.452,4.37 -28.846,9.411 -40.876,14.917c-7.654,3.503 -13.926,7.131 -17.227,10.961c-10.038,11.647 -13.664,26.307 -16.63,40.122c20.357,-29.224 41.887,-32.092 56.999,-39.466Z" style="fill:#fff;"/><path d="M309.413,310.424c-2.766,-2.782 -6.031,-4.837 -9.682,-6.618c-16.91,-8.251 -42.098,-10.645 -64.338,-52.343c4.798,17.881 6.465,40.48 20.798,57.111c14.516,16.842 82.634,31.254 89.877,38.502c-7.272,-7.292 -21.781,-75.194 -38.537,-89.903c-16.454,-14.445 -42.599,-17.236 -60.573,-22.044c41.934,22.264 46.55,48.415 55.697,65.693c1.923,3.633 4.046,6.873 6.758,9.602Zm-10.845,-4.236c3.609,1.761 9.916,5.204 15.125,8.495c-3.376,-5.386 -6.9,-11.71 -8.695,-15.101c-8.15,-15.395 -12.841,-37.646 -42.507,-58.155c14.992,3.314 31.634,7.504 43.292,17.738c3.815,3.349 7.44,9.648 10.944,17.319c5.503,12.044 10.556,27.422 14.941,40.855c3.027,9.275 5.743,17.637 8.066,23.412c-5.779,-2.312 -14.15,-5.014 -23.432,-8.029c-13.452,-4.37 -28.846,-9.411 -40.876,-14.917c-7.654,-3.503 -13.926,-7.131 -17.227,-10.961c-10.038,-11.647 -13.664,-26.307 -16.63,-40.122c20.357,29.224 41.887,32.092 56.999,39.466Z" style="fill:#fff;"/><path d="M104.585,105.576c2.767,2.782 6.032,4.837 9.683,6.618c16.91,8.251 42.098,10.645 64.338,52.343c-4.799,-17.881 -6.466,-40.48 -20.799,-57.111c-14.515,-16.842 -82.633,-31.254 -89.876,-38.502c7.271,7.292 21.78,75.194 38.536,89.903c16.455,14.445 42.599,17.236 60.573,22.044c-41.933,-22.264 -46.55,-48.415 -55.697,-65.693c-1.923,-3.633 -4.046,-6.873 -6.758,-9.602Zm10.845,4.236c-3.608,-1.761 -9.916,-5.204 -15.125,-8.495c3.377,5.386 6.9,11.71 8.696,15.101c8.15,15.395 12.841,37.646 42.506,58.155c-14.991,-3.314 -31.634,-7.504 -43.291,-17.738c-3.816,-3.349 -7.441,-9.648 -10.945,-17.319c-5.503,-12.044 -10.556,-27.422 -14.94,-40.855c-3.028,-9.275 -5.744,-17.637 -8.066,-23.412c5.778,2.312 14.149,5.014 23.432,8.029c13.451,4.37 28.846,9.411 40.876,14.917c7.653,3.503 13.925,7.131 17.226,10.961c10.038,11.647 13.664,26.307 16.63,40.122c-20.357,-29.224 -41.887,-32.092 -56.999,-39.466Z" style="fill:#fff;"/><path d="M104.585,310.424c2.767,-2.782 6.032,-4.837 9.683,-6.618c16.91,-8.251 42.098,-10.645 64.338,-52.343c-4.799,17.881 -6.466,40.48 -20.799,57.111c-14.515,16.842 -82.633,31.254 -89.876,38.502c7.271,-7.292 21.78,-75.194 38.536,-89.903c16.455,-14.445 42.599,-17.236 60.573,-22.044c-41.933,22.264 -46.55,48.415 -55.697,65.693c-1.923,3.633 -4.046,6.873 -6.758,9.602Zm10.845,-4.236c-3.608,1.761 -9.916,5.204 -15.125,8.495c3.377,-5.386 6.9,-11.71 8.696,-15.101c8.15,-15.395 12.841,-37.646 42.506,-58.155c-14.991,3.314 -31.634,7.504 -43.291,17.738c-3.816,3.349 -7.441,9.648 -10.945,17.319c-5.503,12.044 -10.556,27.422 -14.94,40.855c-3.028,9.275 -5.744,17.637 -8.066,23.412c5.778,-2.312 14.149,-5.014 23.432,-8.029c13.451,-4.37 28.846,-9.411 40.876,-14.917c7.653,-3.503 13.925,-7.131 17.226,-10.961c10.038,-11.647 13.664,-26.307 16.63,-40.122c-20.357,29.224 -41.887,32.092 -56.999,39.466Z" style="fill:#fff;"/><path d="M207.003,1.037c-0,0 27.497,54.078 38.238,90.354l-20.916,57.466c0.092,-25.675 -8.683,-72.017 -17.323,-85.751c-9.198,13.284 -17.342,60.244 -17.322,85.751l-20.916,-57.466c10.711,-36.322 38.239,-90.354 38.239,-90.354Zm-0.003,5.928c-6.812,13.759 -26.563,54.705 -35.446,84.342l16.043,44.076c1.295,-16.96 4.695,-37.753 9.049,-53.427c2.477,-8.916 5.302,-16.207 8.177,-20.359l2.285,-3.3l2.137,3.398c7.424,11.801 15.029,47.26 17.151,73.722l16.054,-44.109c-8.907,-29.602 -28.645,-70.575 -35.45,-84.343Z" style="fill:#fff;"/></g></svg>